<?xml version="1.0" encoding="utf-8"?>
<!-- Generator: Adobe Illustrator 24.2.0, SVG Export Plug-In . SVG Version: 6.00 Build 0)  -->
<svg version="1.1" id="Layer_1" xmlns="http://www.w3.org/2000/svg" xmlns:xlink="http://www.w3.org/1999/xlink" x="0px" y="0px"
	 viewBox="0 0 504 504" style="enable-background:new 0 0 504 504;" xml:space="preserve">
<style type="text/css">
	.st0{fill-rule:evenodd;clip-rule:evenodd;fill:#FFFFFF;}
	.st1{fill-rule:evenodd;clip-rule:evenodd;fill:#DF1E26;}
	.st2{fill-rule:evenodd;clip-rule:evenodd;fill:none;stroke:#F2D80D;stroke-width:1.4;stroke-miterlimit:3;}
	.st3{fill-rule:evenodd;clip-rule:evenodd;fill:#F5E002;}
</style>
<g>
	
		<ellipse transform="matrix(0.7071 -0.7071 0.7071 0.7071 -104.3811 252.0003)" class="st0" cx="252" cy="252" rx="242.6" ry="242.6"/>
	<path class="st1" d="M252,9.4c133.9,0,242.6,108.7,242.6,242.6c0,133.9-108.7,242.6-242.6,242.6C118.1,494.6,9.4,385.9,9.4,252
		C9.4,118.1,118.1,9.4,252,9.4L252,9.4z M252,15.2C121.3,15.2,15.2,121.3,15.2,252c0,130.7,106.1,236.8,236.8,236.8
		c130.7,0,236.8-106.1,236.8-236.8C488.8,121.3,382.7,15.2,252,15.2z"/>
	<path class="st1" d="M252.7,85.2c92.6,0,167.8,75.2,167.8,167.8c0,92.6-75.2,167.8-167.8,167.8c-92.6,0-167.8-75.2-167.8-167.8
		C84.9,160.4,160.1,85.2,252.7,85.2L252.7,85.2z M156.2,42.7l35.5,45.9c38.7-14.8,78.6-14.8,119.7,0l35.5-45.9
		C283.3,15.3,219.8,15.2,156.2,42.7z"/>
	<path class="st0" d="M182.9,315.3v-17.6H196v10.7h10.3v-44.6h27.2l0.7-0.9c0,0,4.7-5.5,17.6-5.5c13,0,18.3,5.6,18.3,5.6l0.7,0.8
		h26.7v44.6h10.3v-10.7h12.4v16.9l44.5,59H139.1L182.9,315.3L182.9,315.3z M339.2,347.6h-175l-16.9,23.1h208.9L339.2,347.6
		L339.2,347.6z M335.1,342l-6.4-8.7H174.7l-6.3,8.7H335.1L335.1,342z M324.6,327.7l-6.5-8.8H185.2l-6.5,8.8H324.6L324.6,327.7z
		 M232.4,272.3c0-1.8-1.4-3.2-3.2-3.2c-0.5,0-1,0-1.5,0c-1.8,0-3.2,1.4-3.2,3.2c0,8.9,0,33.5,0,33.5h7.8V272.3L232.4,272.3z
		 M278.7,272.3c0-1.8-1.4-3.2-3.2-3.2c-0.5,0-1,0-1.5,0c-1.8,0-3.2,1.4-3.2,3.2c0,8.9,0,33.5,0,33.5h7.8V272.3L278.7,272.3z
		 M261.7,272.5c0-4.9-3.9-8.8-8.8-8.8c-0.8,0-1.5,0-2.3,0c-4.9,0-8.8,3.9-8.8,8.8c0,12.3,0,33.2,0,33.2h19.9V272.5L261.7,272.5z
		 M182.9,293.8H196v-61.4h-13.1V293.8L182.9,293.8z M307.8,293.8h12.4v-61.4h-12.4V293.8L307.8,293.8z M297.5,259.2v-26.8h-91.2
		v26.8c7.7,0,25.1,0,25.1,0c2-1.9,8.1-6.4,20.4-6.4c12.4,0,18.8,4.6,20.9,6.4H297.5L297.5,259.2z M270.9,241.8c0,0.3,0,0.6,0,0.9
		c0,2.2-1.8,3.9-3.9,3.9c-7.4,0-23.3,0-30.7,0c-2.2,0-3.9-1.8-3.9-3.9c0-0.3,0-0.6,0-0.9c0-2.2,1.8-3.9,3.9-3.9c7.4,0,23.3,0,30.7,0
		C269.2,237.9,270.9,239.7,270.9,241.8L270.9,241.8z M307.8,228.5h12.4v-6.6h-12.4V228.5L307.8,228.5z M182.9,228.5H196v-6.6h-13.1
		V228.5L182.9,228.5z M206.3,228.5h91.2v-6.6h-91.2V228.5L206.3,228.5z M189.5,221.9l-6.7-10.7l6.3-10.9l6.5,10.8L189.5,221.9
		L189.5,221.9z M314.1,221.9l-6.7-10.7l6.3-10.9l6.5,10.8L314.1,221.9z"/>
	<path class="st1" d="M187.3,459.9c0,0,25.7,10.3,64.4,10.3c32.9,0,69.1-11.1,69.1-11.1l-1.6-5.3c0,0-35.4,10.9-67.5,10.9
		c-37.4,0-62.3-9.9-62.3-9.9L187.3,459.9L187.3,459.9z M189.2,449.6l1.8-5.2c6.2,2.2,28.9,9.3,60.7,9.3c24,0,50-5.6,61.7-8.4
		l1.3,5.4c-11.9,2.9-38.4,8.5-63,8.5C219,459.2,195.6,451.9,189.2,449.6L189.2,449.6z M196.9,441.3c10.8,2.7,33.9,7.8,54.7,7.8
		c22.1,0,45.5-5.4,54.7-7.9l-1.4-5.3c-9,2.4-31.8,7.7-53.3,7.7c-20.3,0-42.9-5-53.4-7.6L196.9,441.3L196.9,441.3z M207.5,432.3
		l1.5-5.3c6.9,2,22.6,5.7,42.9,5.7c15.7,0,32-2.9,43.1-5.4l1.2,5.4c-11.5,2.6-28.2,5.5-44.3,5.5
		C230.9,438.2,214.6,434.3,207.5,432.3z"/>
	<path class="st2" d="M94.9,376.4c-27.6-34.3-44.1-77.8-44.1-125.1c0-58.5,25.2-111.3,65.5-147.9"/>
	<path class="st2" d="M386.4,102.2c41,36.7,66.7,89.9,66.7,149.1c0,47.5-16.6,91.2-44.4,125.5"/>
	<path class="st1" d="M45.2,315.6c0,0,0.3,5.3-0.5,7.8c-0.8,2.5,0.6,12.5,2.9,16.4c2.3,3.8,3.1,8.9,10.1,5.9
		c5.7-2.5,2.6-8.2,1.6-11.4c-1-3.2-4-10.1-8.5-13.2C46.3,318,45.2,315.6,45.2,315.6L45.2,315.6z M458.2,315.6c0,0-0.3,5.3,0.5,7.8
		c0.8,2.5-0.6,12.5-2.9,16.4c-2.3,3.8-3.1,8.9-10.1,5.9c-5.7-2.5-2.6-8.2-1.6-11.4c1-3.2,4-10.1,8.5-13.2
		C457.1,318,458.2,315.6,458.2,315.6L458.2,315.6z M84.7,166.2c-5.3-3.3-2.2-6.5-0.7-10.1c1.5-3.7,8-10.1,10.2-10.9
		c2.2-0.8,5.8-3.8,5.8-3.8s-1.1,2.1-0.9,7c0.2,4.9-3.1,10.7-4.9,13.1c-1.8,2.4-4.2,7.7-9,5c-0.1-0.1-0.2-0.1-0.3-0.2
		c-0.2,0.9-0.5,3,0,6.6c0.8,4.8-1.8,11-3.3,13.6c-1.4,2.5-3.2,7.9-8,6.2c-0.1,0.6-0.2,2.9,1.1,6.8c1.5,4.6,0,11.2-1.1,14
		c-1,2.7-1.9,8.3-6.9,7.4c0,0.6,0.3,2.8,2.2,6.5c2.2,4.3,1.8,11.1,1.2,14c-0.6,2.9-0.5,8.8-6,8.4c0,0-0.1,0-0.1,0
		c0.1,0.5,0.6,2.7,3.2,6.2c2.9,3.9,3.5,10.6,3.4,13.6c-0.1,3,0.9,8.8-4.6,9.2c0,0-0.1,0-0.1,0c0.2,0.4,1,2.6,4.1,5.6
		c3.5,3.4,5.2,9.9,5.6,12.9c0.4,3,2.3,8.5-3.1,9.9c-0.2,0.1-0.4,0.1-0.6,0.1c0.4,0.6,1.7,2.4,4.9,4.6c4,2.8,6.7,8.9,7.6,11.8
		c0.9,2.9,3.6,8-1.4,10.2c-6.2,2.7-6.9-1.9-9-5.3c-2.1-3.4-3.3-12.4-2.6-14.7c0.6-1.9,0.5-5.6,0.4-6.7c-5.8,1.1-5.8-3.3-7.3-6.9
		c-1.5-3.7-1.3-12.8-0.2-14.9c1-1.9,1.5-6.1,1.5-6.7c-6.6,0.5-5.8-4-6.7-7.9c-0.9-3.9,0.8-12.8,2.2-14.7c1.3-1.7,2.4-5.8,2.6-6.4
		c-6.6-0.6-5.1-4.9-5.3-8.9c-0.2-4,2.9-12.5,4.5-14.2c1.5-1.5,3.2-5.1,3.6-5.8c-0.1,0-0.2,0-0.3-0.1c-6.6-1.6-4.4-5.7-4-9.7
		c0.4-4,4.8-11.9,6.8-13.3c1.7-1.2,4-4.5,4.5-5.2c-0.1,0-0.2-0.1-0.3-0.1c-6.3-2.6-3.4-6.3-2.4-10.2c1-3.9,6.7-11,8.8-12
		C81.4,169.5,83.9,167.1,84.7,166.2L84.7,166.2z M418.6,166.2c5.3-3.3,2.2-6.5,0.7-10.1c-1.5-3.7-8-10.1-10.2-10.9
		c-2.2-0.8-5.8-3.8-5.8-3.8s1.1,2.1,0.9,7c-0.2,4.9,3.1,10.7,4.9,13.1c1.8,2.4,4.2,7.7,9,5c0.1-0.1,0.2-0.1,0.3-0.2
		c0.2,0.9,0.5,3,0,6.6c-0.8,4.8,1.8,11,3.3,13.6c1.4,2.5,3.2,7.9,8,6.2c0.1,0.6,0.2,2.9-1.1,6.8c-1.5,4.6,0,11.2,1.1,14
		c1,2.7,1.9,8.3,6.9,7.4c0,0.6-0.3,2.8-2.2,6.5c-2.2,4.3-1.8,11.1-1.2,14c0.6,2.9,0.5,8.8,6,8.4c0,0,0.1,0,0.1,0
		c-0.1,0.5-0.6,2.7-3.2,6.2c-2.9,3.9-3.5,10.6-3.4,13.6c0.1,3-0.9,8.8,4.6,9.2c0,0,0.1,0,0.1,0c-0.2,0.4-1,2.6-4.1,5.6
		c-3.5,3.4-5.2,9.9-5.6,12.9c-0.4,3-2.3,8.5,3.1,9.9c0.2,0.1,0.4,0.1,0.6,0.1c-0.4,0.6-1.7,2.4-4.9,4.6c-4,2.8-6.7,8.9-7.6,11.8
		c-0.9,2.9-3.6,8,1.4,10.2c6.2,2.7,6.9-1.9,9-5.3c2.1-3.4,3.3-12.4,2.6-14.7c-0.6-1.9-0.5-5.6-0.4-6.7c5.8,1.1,5.8-3.3,7.3-6.9
		c1.5-3.7,1.3-12.8,0.2-14.9c-1-1.9-1.5-6.1-1.5-6.7c6.6,0.5,5.8-4,6.7-7.9c0.9-3.9-0.8-12.8-2.2-14.7c-1.3-1.7-2.4-5.8-2.6-6.4
		c6.6-0.6,5.1-4.9,5.3-8.9c0.2-4-2.9-12.5-4.5-14.2c-1.5-1.5-3.2-5.1-3.6-5.8c0.1,0,0.2,0,0.3-0.1c6.6-1.6,4.4-5.7,4-9.7
		c-0.4-4-4.8-11.9-6.8-13.3c-1.7-1.2-4-4.5-4.5-5.2c0.1,0,0.2-0.1,0.3-0.1c6.3-2.6,3.4-6.3,2.4-10.2c-1.1-3.9-6.7-11-8.8-12
		C422,169.5,419.5,167.1,418.6,166.2L418.6,166.2z M37.7,282.7c0,0,0.8,2.5,4.8,6.2c4,3.7,6,11,6.5,14.3c0.5,3.3,2.7,9.4-3.2,11.1
		c-7.3,2-7.4-3.2-9.1-7.3c-1.7-4.1-1.6-14.3-0.5-16.6C37.3,288,37.7,282.7,37.7,282.7L37.7,282.7z M465.7,282.7c0,0-0.8,2.5-4.8,6.2
		c-4,3.7-6,11-6.5,14.3c-0.5,3.3-2.7,9.4,3.2,11.1c7.3,2,7.4-3.2,9.1-7.3c1.7-4.1,1.6-14.3,0.5-16.6
		C466.1,288,465.7,282.7,465.7,282.7L465.7,282.7z M35.1,249c0,0-1.2,5.2-2.7,7.3c-1.5,2.2-3,12.2-1.9,16.5c1.1,4.3,0.4,9.5,7.9,8.5
		c6.1-0.7,4.8-7.1,4.8-10.5s-0.9-10.8-4.3-15C35.6,251.6,35.1,249,35.1,249L35.1,249z M468.2,249c0,0,1.2,5.2,2.7,7.3
		c1.5,2.2,3,12.2,1.9,16.5c-1.1,4.3-0.4,9.5-7.9,8.5c-6.1-0.7-4.8-7.1-4.8-10.5s0.9-10.8,4.3-15C467.8,251.6,468.2,249,468.2,249
		L468.2,249z M38.2,216.5c0,0,0,2.6,2.8,7.3c2.7,4.7,2.6,12.2,2.1,15.5c-0.5,3.3-0.1,9.8-6.3,9.7c-7.6-0.2-6.1-5.2-6.6-9.6
		c-0.5-4.5,2.5-14.1,4.3-16C36.3,221.5,38.2,216.5,38.2,216.5L38.2,216.5z M465.2,216.5c0,0,0,2.6-2.8,7.3
		c-2.7,4.7-2.6,12.2-2.1,15.5c0.5,3.3,0.1,9.8,6.3,9.7c7.6-0.2,6.1-5.2,6.6-9.6c0.5-4.5-2.5-14.1-4.3-16
		C467.1,221.5,465.2,216.5,465.2,216.5L465.2,216.5z M46.8,183.9c0,0-2.8,4.5-4.9,6.1c-2.1,1.6-6.8,10.6-7.1,15
		c-0.3,4.5-2.6,9.1,4.8,10.6c6.1,1.3,6.8-5.2,7.9-8.4c1.1-3.2,2.6-10.5,0.7-15.6C46.3,186.5,46.8,183.9,46.8,183.9L46.8,183.9z
		 M456.6,183.9c0,0,2.8,4.5,4.9,6.1c2.1,1.6,6.8,10.6,7.1,15c0.3,4.5,2.6,9.1-4.8,10.6c-6.1,1.3-6.8-5.2-7.9-8.4
		c-1.1-3.2-2.6-10.5-0.7-15.6C457.1,186.5,456.6,183.9,456.6,183.9L456.6,183.9z M59.7,153.5c0,0-3.6,3.9-5.9,5.1
		c-2.3,1.2-8.5,9.2-9.7,13.5c-1.1,4.3-4.2,8.5,2.8,11.3c5.7,2.3,7.7-3.9,9.3-6.8c1.6-2.9,4.4-9.9,3.5-15.3
		C58.8,155.9,59.7,153.5,59.7,153.5L59.7,153.5z M443.7,153.5c0,0,3.6,3.9,5.9,5.1c2.3,1.2,8.5,9.2,9.7,13.5
		c1.1,4.3,4.2,8.5-2.8,11.3c-5.7,2.3-7.7-3.9-9.3-6.8c-1.6-2.9-4.4-9.9-3.5-15.3C444.6,155.9,443.7,153.5,443.7,153.5L443.7,153.5z
		 M77.1,125.3c0,0-4.1,3.4-6.6,4.2c-2.5,0.8-9.8,7.9-11.5,12c-1.7,4.1-5.4,7.8,1.2,11.6c5.3,3.1,8.1-2.8,10.1-5.5
		c2-2.7,5.7-9.2,5.6-14.6C75.9,127.6,77.1,125.3,77.1,125.3L77.1,125.3z M426.3,125.3c0,0,4.1,3.4,6.6,4.2c2.5,0.8,9.8,7.9,11.5,12
		c1.7,4.1,5.4,7.8-1.2,11.6c-5.3,3.1-8.1-2.8-10.1-5.5c-2-2.7-5.7-9.2-5.6-14.6C427.5,127.6,426.3,125.3,426.3,125.3L426.3,125.3z
		 M118.9,118.9c0,0-4,2.5-6.4,2.9c-2.3,0.4-9.7,5.8-11.7,9.2c-2,3.5-5.7,6.2-0.4,10.5c4.4,3.4,7.6-1.5,9.7-3.6
		c2.1-2.1,6.3-7.4,6.8-12.3C117.5,120.8,118.9,118.9,118.9,118.9L118.9,118.9z M384.5,118.9c0,0,4,2.5,6.4,2.9
		c2.3,0.4,9.6,5.8,11.7,9.2c2,3.5,5.7,6.2,0.4,10.5c-4.4,3.4-7.6-1.5-9.7-3.6c-2.1-2.1-6.3-7.4-6.8-12.3
		C385.9,120.8,384.5,118.9,384.5,118.9L384.5,118.9z M98.3,99.8c0,0-1.5,2.1-2.2,7.5c-0.6,5.4-5.3,11.3-7.6,13.7
		c-2.4,2.3-6,7.8-10.8,4c-6-4.7-1.8-7.8,0.5-11.7c2.3-3.8,10.5-9.8,13.1-10.3C93.7,102.6,98.3,99.8,98.3,99.8L98.3,99.8z
		 M405.1,99.8c0,0,1.5,2.1,2.2,7.5c0.6,5.4,5.3,11.3,7.6,13.7c2.4,2.3,6,7.8,10.8,4c6-4.7,1.8-7.8-0.5-11.7
		c-2.3-3.8-10.5-9.8-13.1-10.3C409.6,102.6,405.1,99.8,405.1,99.8L405.1,99.8z M133.4,87.5c0,0-4.8,2.3-7.4,2.5
		c-2.6,0.2-11.4,5.3-14.1,8.9c-2.7,3.6-7.1,6.3-1.7,11.5c4.4,4.3,8.6-0.7,11.2-2.8c2.6-2.1,7.8-7.5,9-12.8S133.4,87.5,133.4,87.5
		L133.4,87.5z M370,87.5c0,0,4.8,2.3,7.4,2.5c2.6,0.2,11.4,5.3,14.1,8.9c2.7,3.6,7.1,6.3,1.7,11.5c-4.4,4.3-8.6-0.7-11.2-2.8
		c-2.6-2.1-7.8-7.5-9-12.8C371.8,89.5,370,87.5,370,87.5z"/>
	<path class="st3" d="M168.7,305.2l-26.3-0.1l26.7-33.9l-37.7-18.9l37.7-18.9l-25.5-33.5l42.8-0.5l-9.7-40.7l38.3,17.5l9.9-41.4
		l26.7,33.1l26.7-33.1l9.9,41.4l38.3-17.5l-9.7,40.7l42.8,0.5l-25.5,33.5l37.7,18.9l-37.7,18.9l26.7,33.9l-26.3,0.1l0.1,13.8
		l54.5-0.3L355.6,276l47.1-23.6l-47.5-23.8l32-42.1l-53-0.7l12.2-51.4l-48.7,22.2l-12.5-52.4l-33.6,41.7l-33.6-41.7l-12.5,52.4
		l-48.7-22.2l12.2,51.4l-53,0.7l32,42.1l-47.5,23.8l47.1,23.6l-33.7,42.8l54.5,0.3L168.7,305.2L168.7,305.2z M251.5,33.6l3.8,11.8
		h12.4l-10,7.3l3.8,11.8l-10-7.3l-10,7.3l3.8-11.8l-10-7.3h12.4L251.5,33.6z"/>
	<path class="st3" d="M250.7,421.2l1,0c42.4,0,63.6,39,63.6,39l2.9,5.3l44.9-26.2l-3.5-5.2c-15.7-23.3-32.4-35.3-49.5-42.1l-0.9-0.4
		l-1-0.1c0,0-29-1.4-46.5,5.1c-4,1.5-7.4,3.5-10,5.8c-2.6-2.4-6-4.3-10-5.8c-17.4-6.6-46.5-5.1-46.5-5.1l-1,0.1l-0.9,0.4
		c-17.1,6.9-33.8,18.8-49.5,42.1l-3.5,5.2l44.9,26.2l2.9-5.3C188.1,460.2,208.9,421.8,250.7,421.2z"/>
	<path class="st1" d="M148.7,437.4l34.2,20c0,0,23-42.1,68.8-42.1c0-20.8-56.2-17.8-56.2-17.8C179.3,404,163.6,415.3,148.7,437.4
		L148.7,437.4z M354.7,437.4l-34.2,20c0,0-23-42.1-68.8-42.1c0-20.8,56.2-17.8,56.2-17.8C324.1,404,339.8,415.3,354.7,437.4z"/>
	<path class="st3" d="M69.7,368.9l-6.7,2.6l31.5,38.9l66.1-27.1l-26.5-35.2l-3.4,0.9C109.8,354.4,89.5,361.1,69.7,368.9L69.7,368.9z
		 M409.1,410.4l31.5-38.9l-6.7-2.6c-19.8-7.8-40.1-14.5-60.9-19.8l-3.4-0.9l-26.6,35.2L409.1,410.4z"/>
	<path class="st1" d="M71.7,373.8c19.6-7.7,39.7-14.3,60.3-19.6l20.3,26.9l-56.1,23L71.7,373.8L71.7,373.8z M432,373.8
		c-19.6-7.7-39.7-14.3-60.3-19.6l-20.3,26.9l56.1,23L432,373.8z"/>
	<path class="st3" d="M99.1,381.5l-7.4,2.6l38.1,55l4.1-1.2c78.5-22.4,157.1-22.2,235.6,0l4.1,1.2l38.4-55.1l-7.6-2.5
		C302.6,348.1,200.8,346.5,99.1,381.5z"/>
	<path class="st1" d="M101,387.2c100.5-34.6,201-33,301.4,0l-31.4,45c-79.6-22.5-159.3-22.7-238.9,0L101,387.2z"/>
	<path class="st0" d="M205.7,217.3l-3.6,0.9l1.5-1.3l-3-1l2.7-0.6l-1.6-2.3l2.5,1.6l-0.1-1.7l1.8,2.2l0.7-1.8l0.9,3.5
		c0,0,0.8,1.4,2.9-1.1c2.2-2.5,3.2-1.9,3.9-1.9c2,0,3.8,1.8,4.5,2.7c1.3-1.3,2.5-6.4,8.9-6.4c3.6,0,5.8,1.2,7.4,3.7
		c1.6,2.5,1.6,3.4,3.2,2.3c1.6-1.1-0.7-2.1-1.8-3.7c-1.1-1.6-0.8-2.8-0.8-2.8l-4.3-1.9l3.6-0.1l-3.6-2l3.6,0.1l-1.1-2
		c0,0,3.1,1,5.1,1c2,0,2.4,0.8,3.2,1.2c0.8,0.4,2.1,1.1,2.1,1.1s-0.4,1.1-0.8,1.2c-0.3,0.1-2.3-0.3-2.3-0.3l-0.5,0.5l2.4,1.1
		c0,0-0.7,0.8-1.1,1.1c-0.2,0-0.4,0-0.6-0.1c-0.7-0.5-2-1.4-2.2-1.3c-0.3,0.1-1.3,0.9-0.2,1.8c1.1,0.9,3,2,3,4.7
		c0,1.1-0.2,1.8-0.2,1.8l2.1,0.3c0,0-1.5,2-2,3.3c-0.6-1.5-1.3-2.3-1.3-2.3s-0.9,2-3.1,2c-2.2,0-3.5-2-3.5-2l-0.9,1.1
		c0,0,0.9,1.5,1.2,2c-1.1-0.5-4.5-1.1-4.5-1.1s1.2-0.9,1.6-1.6c0.4-0.8,1.8-1.4,1.8-1.4s-2.7-4.4-5.8-4.4c-3,0-4.6,2.4-4.6,2.4
		s1.9,0.2,3.1,0c-2.3,1.1-2.3,1.9-2.5,2.3c-0.2,0.4-0.6-0.8-1.6-0.9c-1.2,2-1.8,3.1-3.3,3.1c-1.5,0-3-0.7-3.6,0
		c-0.6,0.7,0.6,1.5,0.6,1.5s-1.6-0.4-2.4-0.4c-0.9,0-1.6-0.2-1.6-0.2s1.3-1.5,2-2.1c0.8-0.7,2.5-0.2,3.1-0.9
		c0.6-0.8-1.8-1.9-3.2-1.9c-1.4,0-3.5,3.1-5.5,3.1C206.4,219,205.7,217.3,205.7,217.3L205.7,217.3z M241.1,206.3
		c-0.2,0-0.4,0.2-0.4,0.4c0,0.2,0.2,0.4,0.4,0.4c0.2,0,0.4-0.2,0.4-0.4C241.5,206.4,241.3,206.3,241.1,206.3z"/>
	<path class="st0" d="M297.6,217.3l3.6,0.9l-1.5-1.3l3-1l-2.7-0.6l1.6-2.3l-2.5,1.6l0.1-1.7l-1.8,2.2l-0.7-1.8l-0.9,3.5
		c0,0-0.8,1.4-2.9-1.1c-2.2-2.5-3.2-1.9-3.9-1.9c-2,0-3.8,1.8-4.5,2.7c-1.3-1.3-2.5-6.4-8.9-6.4c-3.6,0-5.8,1.2-7.4,3.7
		c-1.6,2.5-1.6,3.4-3.2,2.3c-1.6-1.1,0.7-2.1,1.8-3.7c1.1-1.6,0.8-2.8,0.8-2.8l4.3-1.9l-3.6-0.1l3.6-2l-3.6,0.1l1.1-2
		c0,0-3.1,1-5.1,1c-2,0-2.4,0.8-3.2,1.2c-0.5,0.2-1.1,0.5-1.5,0.8c-0.2,0.1-0.4,0.3-0.5,0.5c0,0.2,0.1,0.5,0.3,0.6
		c0.1,0.2,0.2,0.3,0.3,0.3c0.3,0.1,2.3-0.3,2.3-0.3s0.3,0.3,0.4,0.4c0,0,0,0-0.1,0l-0.4,0.3c-1.9,0.9-1.1,1.6-0.8,2
		c0.2,0,0.4,0,0.6-0.1c0.7-0.5,2-1.4,2.2-1.3c0.3,0.1,1.3,0.9,0.2,1.8c-1.1,0.9-3,2-3,4.7c0,1.1,0.2,1.8,0.2,1.8l-2.1,0.3
		c0,0,1.5,2,2,3.3c0.6-1.5,1.3-2.3,1.3-2.3s0.9,2,3.1,2c2.2,0,3.5-2,3.5-2l0.9,1.1c0,0-0.9,1.5-1.2,2c1.1-0.5,4.5-1.1,4.5-1.1
		s-1.2-0.9-1.6-1.6c-0.5-0.8-1.8-1.4-1.8-1.4s2.7-4.4,5.8-4.4c3,0,4.6,2.4,4.6,2.4s-1.9,0.2-3.1,0c2.3,1.1,2.3,1.9,2.5,2.3
		c0.2,0.4,0.6-0.8,1.6-0.9c1.2,2,1.8,3.1,3.3,3.1c1.5,0,3-0.7,3.6,0c0.6,0.7-0.6,1.5-0.6,1.5s1.6-0.4,2.4-0.4c0.9,0,1.6-0.2,1.6-0.2
		s-1.3-1.5-2-2.1c-0.8-0.7-2.5-0.2-3.1-0.9c-0.6-0.8,1.8-1.9,3.2-1.9c1.4,0,3.5,3.1,5.5,3.1C296.9,219,297.6,217.3,297.6,217.3
		L297.6,217.3z M262.3,206.3c0.2,0,0.4,0.2,0.4,0.4c0,0.2-0.2,0.4-0.4,0.4c-0.2,0-0.4-0.2-0.4-0.4
		C261.9,206.4,262.1,206.3,262.3,206.3z"/>
	<path class="st0" d="M251.7,222l-2.1,0c0,0,1.8-0.8,0.4-1.7c-1.3-0.9-3.8-2-4.6-3.1c-0.8-1.1-1.3-2.4-0.8-4.1
		c0.7,1.6,3.1,2.2,3.2,0.7c-0.8-1.6-1.3-3.2,0.1-4.9c0.4,1.5,1,2.6,2.1,2.6c1.1,0,1.5-1.3,0.5-2.7c-1-1.4,0.5-2.1,1.2-3.2v0
		c0.8,1.1,2.2,1.9,1.2,3.2c-1,1.4-0.6,2.7,0.5,2.7c1.1,0,1.8-1.2,2.1-2.6c1.4,1.7,0.9,3.3,0.1,4.9c0.1,1.5,2.5,0.9,3.2-0.7
		c0.5,1.7,0,3-0.8,4.1c-0.8,1.1-3.3,2.2-4.6,3.1c-1.3,0.9,0.5,1.7,0.5,1.7L251.7,222L251.7,222L251.7,222z M251.7,212.5
		c-1.8,0-3.3,1.5-3.3,3.3c0,1.8,1.5,3.3,3.3,3.3c1.8,0,3.3-1.5,3.3-3.3C255,214,253.5,212.5,251.7,212.5z"/>
	<path class="st0" d="M149.2,417.6l-6.8-32.2l10.4-2.2c4-0.8,6.6-1.2,7.8-1.1c1.9,0.1,3.7,0.8,5.3,2.2c1.6,1.4,2.6,3.3,3.2,5.9
		c0.4,2,0.4,3.7,0,5.2c-0.4,1.5-1.1,2.8-2.1,3.8c-0.9,1-2,1.7-3.1,2.2c-1.5,0.6-3.7,1.3-6.6,1.9l-4.2,0.9l2.6,12.1L149.2,417.6
		L149.2,417.6z M150.1,389.5l1.9,9.1l3.6-0.7c2.6-0.5,4.2-1.1,5-1.6c0.8-0.5,1.4-1.2,1.7-2c0.3-0.8,0.4-1.7,0.2-2.7
		c-0.2-1.2-0.8-2.1-1.6-2.7c-0.8-0.6-1.8-0.9-2.9-0.9c-0.8,0-2.4,0.3-4.7,0.8L150.1,389.5z"/>
	<polygon class="st0" points="180.9,411.2 176.5,378.6 183.1,377.7 184.8,390.5 197.7,388.8 196,376 202.6,375.1 207,407.7 
		200.4,408.6 198.5,394.3 185.6,396.1 187.5,410.3 	"/>
	<path class="st0" d="M213.7,374l6.6-0.4l0.9,17.8c0.1,2.8,0.3,4.7,0.5,5.5c0.4,1.3,1.1,2.4,2.2,3.1c1.1,0.8,2.6,1.1,4.4,1
		c1.9-0.1,3.3-0.6,4.2-1.4c0.9-0.8,1.4-1.8,1.6-2.9c0.1-1.1,0.1-3,0-5.6l-1-18.2l6.6-0.4l0.9,17.3c0.2,3.9,0.2,6.7-0.1,8.4
		c-0.3,1.6-0.9,3.1-1.8,4.2c-0.9,1.2-2.1,2.1-3.7,2.9c-1.6,0.8-3.7,1.2-6.3,1.3c-3.1,0.2-5.5-0.1-7.2-0.7c-1.7-0.6-3-1.5-4-2.6
		c-1-1.1-1.7-2.3-2.1-3.5c-0.5-1.9-0.9-4.6-1.1-8.3L213.7,374L213.7,374z M222.6,371.7l2.7-6.9l7.1-0.4l-5.8,7L222.6,371.7z"/>
	<polygon class="st0" points="270.4,406 271.8,378.7 262.1,378.2 262.4,372.6 288.5,374 288.2,379.6 278.5,379.1 277.1,406.4 	"/>
	<polygon class="st0" points="292.7,407.4 296.8,374.7 303.4,375.6 301.8,388.4 314.7,390.1 316.3,377.2 322.9,378 318.8,410.7 
		312.2,409.9 314,395.6 301.1,394 299.3,408.2 	"/>
	<path class="st0" d="M328.3,395.7c0.7-3.3,1.7-5.9,3.2-8c1.1-1.5,2.4-2.8,3.9-3.8c1.5-1,3.1-1.7,4.8-2c2.2-0.4,4.6-0.4,7.2,0.2
		c4.7,1,8.2,3.2,10.5,6.8c2.2,3.5,2.8,7.9,1.7,13.2c-1.1,5.2-3.3,9-6.8,11.3c-3.4,2.4-7.5,3-12.3,2.1c-4.8-1-8.3-3.2-10.5-6.8
		C327.9,405.2,327.3,400.9,328.3,395.7L328.3,395.7z M335.1,396.9c-0.8,3.6-0.5,6.6,0.8,8.8c1.3,2.2,3.2,3.6,5.8,4.2
		c2.6,0.5,4.9,0,7-1.5c2-1.5,3.5-4.2,4.2-7.9c0.8-3.7,0.5-6.6-0.7-8.8c-1.2-2.2-3.2-3.5-5.9-4.1c-2.7-0.6-5-0.1-7.1,1.4
		C337.3,390.6,335.9,393.2,335.1,396.9L335.1,396.9z M335.5,423l1.3-6.2l6.2,1.3l-1.3,6.2L335.5,423z"/>
</g>
</svg>
