<?xml version="1.0" encoding="utf-8"?>
<!-- Generator: Adobe Illustrator 24.2.0, SVG Export Plug-In . SVG Version: 6.00 Build 0)  -->
<svg version="1.1" id="Layer_1" xmlns="http://www.w3.org/2000/svg" xmlns:xlink="http://www.w3.org/1999/xlink" x="0px" y="0px"
	 viewBox="0 0 936 936" style="enable-background:new 0 0 936 936;" xml:space="preserve">
<style type="text/css">
	.st0{fill:#FFFFFF;}
	.st1{fill:#3D568F;}
</style>
<g>
	<g>
		<g>
			<path class="st0" d="M452,29.1c48-1.7,96.4,4.3,142.4,18.2C661.2,67.3,722.9,103.6,773,152c49.8,48.1,88.2,108,110.5,173.6
				c22.2,64.3,28.8,133.9,19.7,201.3c-7.2,53.5-24.3,105.6-50.4,152.9c-38.9,70.7-97.7,130.3-167.8,170.1
				c-43.9,25-92.2,42.3-141.9,50.9c-66.7,11.4-136,7.5-200.9-12c-69.7-20.7-134-59.2-185.2-110.8c-54.4-54.3-94.1-123.2-113.6-197.6
				C29.5,528,25.5,473,31.5,419.1c7.5-68.5,31.6-135.2,69.7-192.7c46.5-70.8,114.1-127.7,191.9-161.3
				C343.2,43.3,397.4,31.1,452,29.1z M133.1,609.5c8.3,0.3,16.6,0.1,24.9,0.1c170.7,0,341.3,0,512,0c44.3-0.1,88.6,0.3,132.9-0.2
				c-25.4-40.4-50.6-80.9-75.9-121.3c-10.2-0.1-20.3-0.1-30.5,0c-3.9,18.6-18.7,34.2-36.8,39.7c-12.1,4.2-25.1,3.2-37.7,3.3
				c-123.9,0-247.8,0-371.7,0c32.8-52.4,65.4-104.9,98.3-157.2c7.9,0,15.7,0.2,23.6-0.1c-0.5,16.2,2.7,32.6,9.8,47.2
				c7.6,16,20,29.7,35,39c16.9,10.7,37.1,15.8,57.1,15.6c81.7-0.1,163.4,0.1,245-0.1c-10.7-17.5-22.1-34.7-32.8-52.3
				c-13.4-0.1-26.9,0.8-40.3,0.9c-31.3,0.8-62.6,1.7-93.9,2.5c-2.5,0.3-5.2-0.3-7.5,0.9c-12.8,11.2-30.5,16.9-47.4,14.6
				c-17.3-1.9-33.1-12.3-42.9-26.6c-8.1-12.1-11.3-27.2-9.2-41.6c-24.3-0.2-48.6,0-72.8-0.1c0.1-2,0.2-3.9,0.4-5.8
				c24.5,0,49,0,73.5,0c-0.4,1.9-0.9,3.8-1.3,5.7c8.3,1.1,17.1-1.5,24.9,2.3c7.2,4,10,12.3,14.2,18.8c3.6,5.9,9,11.2,15.9,12.8
				c3.3,0.9,6.8,1.1,10.2,1c55.7,0,111.4,0,167.1,0c-1.1-2.1-2.3-4.2-3.8-6.1c-45.1,0.2-90.3,0-135.4,0.1c-7.9,0.1-16.3-0.9-22.7-6
				c-7.9-5.8-10.5-16-17.5-22.6c-4.5-4.2-10.8-6-16.8-6c-11.6-0.1-23.2,0-34.7,0c0.6-2.2,1.2-4.4,1.9-6.6c14.3,0.3,28.5,0,42.8,0.2
				c5.1,0,10.3,2,14,5.5c6.7,6.8,9.9,16.5,17.7,22.2c6.6,5.1,15.1,6.7,23.3,6.8c41.1,0.1,82.3,0,123.5,0.1c-1.2-2-2.4-3.9-3.5-5.9
				c-37.7-0.2-75.3,0-113-0.1c-6,0.2-12.3-0.3-17.4-3.8c-8.2-5.3-10.9-15.6-18-22c-6.6-6.7-16.5-8.8-25.6-8.9c-13.7,0-27.3,0-41,0
				c7-14.5,20.3-25.7,35.5-30.5c21.7-5.9,47.6-0.7,62.7,16.8c28.7,0.1,57.5,0.1,86.2,0.1c-14.1-22.3-27.9-44.8-42.1-67
				c-37.8,0.3-75.5-0.1-113.3,0c-11.1-0.2-22.3,0.2-33,3.3c-36.2,9.5-65.1,41-72.6,77.5c-4.8,0-9.6,0-14.4,0
				c11.8-19,23.6-37.9,35.4-56.8c7-10.8,13.4-22,20.8-32.5c10.6-13.8,22.1-27.5,37.4-36.4c4.5-2.8,9.8-4.2,14.6-6.3
				c4.6-2.1,9.7-1.7,14.6-1.9c9.4-0.4,18.5,2.9,26.8,6.8c11.4,5.8,22.5,14,28.1,25.9c14.3,0.3,28.5,0.1,42.8,0.2
				C543.1,194.2,505.6,134,468,73.8C356.3,252.4,244.8,431,133.1,609.5z M638.8,494.8c-5.5,2.8-11.8,2.4-17.8,2.4
				c-96.7,0-193.4,0-290,0c-16.4,0.2-32.8-0.4-49.1,0.3c-1.1,2.2-2.2,4.4-3.6,6.5c117.6,0.2,235.1,0,352.7,0.1
				c5,0,10.2-0.2,14.9-2.3c6.1-2.5,10-8,13.1-13.6c-4.4-0.2-8.8,0-13.1-0.3C643.7,490.4,641.8,493.3,638.8,494.8z M670.4,488.1
				c-2.8,7-7.1,13.6-13.4,17.9c-6.9,5.1-15.6,6.9-24,7c-120.3,0-240.6,0-360.9,0c-1.5,3.2-4.3,5.7-5,9.2
				c123.9-0.2,247.9,0,371.8-0.1c7.4-0.1,14.8-1.4,21.4-4.7c12.2-5.5,20.7-17.1,25.1-29.5C680.5,488.1,675.4,488,670.4,488.1z
				 M218.6,624.2c0,2.8-0.1,5.7-0.1,8.5c29.3,0.2,58.5,0.2,87.8,0c-0.1-2.8-0.1-5.6-0.1-8.4C277,624.3,247.8,624.3,218.6,624.2z
				 M763.3,624.2c0,2.8,0,5.7,0,8.6c11.7,0,23.3,0.2,34.9-0.1c-0.1-2.8-0.2-5.6-0.2-8.5C786.4,624.3,774.9,624.3,763.3,624.2z
				 M137.9,626.1c0.1,28.9-0.2,57.9,0.2,86.8c3.1,5.8,7.1,11,10.6,16.6c214.9,0,429.8,0,644.6,0c1.5-1.1,3-2.2,4.5-3.3
				c0.3-4.3,0.2-8.6,0.3-13c-10.7-0.3-21.4-0.1-32.1-0.2c-197.8,0-395.6,0.1-593.4-0.1c0.2-29,0.2-57.9,0-86.9
				C161.1,626,149.5,625.8,137.9,626.1z M201.2,641.7c0,5.6,0,11.3,0.1,16.9c18.5,0,37,0,55.5,0c0-1.4,0-2.8,0.1-4.2
				c-6.9,0-13.9-0.1-20.8,0c0-1.4-0.1-2.8-0.1-4.1c17.6-0.1,35.2-0.1,52.7,0c0,5.7,0.1,11.4,0,17.2c-29.1-0.1-58.3-0.1-87.4,0
				c0,11.4-0.1,22.9,0.1,34.3c40.8,0,81.5,0,122.3,0c0.1-20,0.1-40.1,0-60.1C282.8,641.7,242,641.6,201.2,641.7z M341.7,641.6
				c0,20,0,40.1,0,60.1c40.8,0.1,81.6,0,122.3,0c0.1-20,0.1-40,0-60.1c-26.2,0-52.4,0-78.6,0c-0.1,5.6-0.1,11.3,0,16.9
				c11.6,0,23.3,0.1,34.9-0.1c0-1,0-3,0-4.1c-6.9-0.1-13.9,0-20.8,0c0-1.4,0-2.8,0-4.2c18.5,0,37,0,55.6,0
				c-0.4,14.3,0.1,28.6-0.3,43c-26.1-0.1-52.2,0.1-78.4-0.1c0.1-17.2,0.1-34.3,0-51.5C365,641.7,353.3,641.7,341.7,641.6z
				 M482.2,641.7c0,20,0,40,0,59.9c40.8,0.2,81.6,0.1,122.4,0c0-4.3,0.1-8.5,0-12.8c-11.7,0.2-23.3-0.2-35,0.2
				c0,1.4,0.1,2.8,0.1,4.2c-17.5-0.1-35.1-0.1-52.7,0c0-14.3,0-28.6,0-42.9c17.5-0.2,35.1,0,52.6-0.1c0.1,5.7,0.1,11.5,0,17.2
				c-6.9-0.2-13.7-0.1-20.6-0.1c-0.1,2.8-0.1,5.7,0,8.6c18.5-0.1,37,0,55.5-0.1c0-11.4,0.1-22.8-0.1-34.2
				C563.8,641.7,523,641.6,482.2,641.7z M622.7,641.6c0.1,5.6,0,11.3,0,16.9c18.6,0.2,37.2,0.1,55.8,0c0-1,0-3.1,0-4.2
				c-7,0-13.9,0-20.9,0c0-1.4,0-2.8,0-4.2c17.5,0.1,35.1-0.1,52.6,0.1c-0.1,5.7-0.1,11.4-0.1,17.1c-29.2-0.1-58.3-0.1-87.5,0
				c0,11.4,0.1,22.8-0.1,34.2c40.8,0.3,81.6,0.1,122.4,0.1c0.2-20,0-40.1,0.1-60.1C704.3,641.7,663.5,641.7,622.7,641.6z
				 M763.3,701.7c11.6,0.1,23.2,0.1,34.7,0c0.1-20-0.1-40,0.1-60c-11.6,0-23.2,0-34.8,0C763.2,661.6,763.2,681.7,763.3,701.7z"/>
		</g>
		<path class="st0" d="M322.4,361.3c1.2-1.9,2.4-3.8,3.5-5.7c11.3,0.1,22.6,0,34,0.1c-1.2,1.9-2.5,3.8-3.7,5.6
			C345,361.4,333.7,361.4,322.4,361.3z"/>
		<path class="st0" d="M374.4,355.6c25.4,0.1,50.9,0.1,76.3,0c-0.9,1.9-1.8,3.9-2.7,5.8c-24.9,0-49.7,0-74.6,0
			C373.8,359.4,374.1,357.5,374.4,355.6z"/>
		<path class="st0" d="M356.2,361.5c5.7,0.1,11.4,0,17.1,0.1c-0.3,2.1-0.6,4.3-0.9,6.5c-6.7,0-13.4,0-20.1,0
			C353.6,365.9,354.9,363.7,356.2,361.5z"/>
		<path class="st0" d="M318.2,368.1c11.3,0.1,22.6,0,34,0c-1.3,2-2.6,4-4,5.9c-11.2-0.4-22.4,0-33.7-0.2
			C315.7,371.9,316.9,370,318.2,368.1z"/>
		<path class="st0" d="M236.1,675.9c17.6,0.2,35.1-0.3,52.7,0.3c0,5.7,0.1,11.4-0.1,17.1c-17.5-0.3-35.1-0.1-52.6-0.1
			C236.1,687.4,236,681.6,236.1,675.9z"/>
		<path class="st0" d="M657.7,675.8c17.5,0.1,35,0,52.6,0c0,5.7-0.1,11.5,0.1,17.2c-17.6,0.1-35.2,0.1-52.8,0
			C657.7,687.3,657.6,681.6,657.7,675.8z"/>
	</g>
	<g>
		<g>
			<path class="st1" d="M440.5,18.8c90.5-5.8,182.5,16.6,260,63.8c63,38,116.4,91.7,154.1,154.8c35.6,59.5,57.1,127.4,62.2,196.6
				c4.6,61.1-3.2,123.1-23.3,181c-26.2,76.4-73.7,145.2-135.4,197.1c-72.8,61.8-165.8,99.3-261.1,105
				c-67.5,4.4-136.1-6.5-198.8-32.2c-73-29.6-137.7-79-186-141.2c-48.5-62.2-80-137.5-90.3-215.7c-8.6-65.5-3.1-133,17-196
				C70.7,230.5,140.2,141.5,230.6,85.6C293.5,46.3,366.5,23.1,440.5,18.8z M452,29.1c-54.6,1.9-108.9,14.1-159,36
				c-77.8,33.7-145.3,90.5-191.9,161.3c-38.1,57.5-62.2,124.2-69.7,192.7c-6,53.9-2,108.9,11.8,161.4
				C62.9,654.8,102.6,723.7,157,778c51.2,51.6,115.5,90.1,185.2,110.8c64.8,19.5,134.2,23.3,200.9,12c49.8-8.6,98-25.9,141.9-50.9
				c70.2-39.8,129-99.4,167.8-170.1c26.1-47.2,43.3-99.4,50.4-152.9c9-67.4,2.5-136.9-19.7-201.3C861.2,260,822.8,200.1,773,152
				c-50.1-48.4-111.8-84.7-178.5-104.6C548.4,33.4,500.1,27.4,452,29.1z"/>
		</g>
		<g>
			<path class="st1" d="M133.1,609.5C244.8,431,356.3,252.4,468,73.8c37.6,60.2,75.1,120.4,112.7,180.6c-14.3-0.1-28.5,0.1-42.8-0.2
				c-5.6-11.9-16.7-20.1-28.1-25.9c-8.4-3.9-17.4-7.2-26.8-6.8c-4.9,0.2-10.1-0.2-14.6,1.9c-4.9,2.1-10.1,3.5-14.6,6.3
				c-15.3,8.8-26.7,22.6-37.4,36.4c-7.4,10.5-13.8,21.7-20.8,32.5c-11.8,19-23.7,37.9-35.4,56.8c4.8,0,9.6,0,14.4,0
				c7.5-36.5,36.4-68,72.6-77.5c10.7-3.1,21.9-3.5,33-3.3c37.8,0,75.5,0.3,113.3,0c14.2,22.2,28.1,44.7,42.1,67
				c-28.7,0-57.5,0-86.2-0.1c-15.1-17.4-41-22.6-62.7-16.8c-15.3,4.8-28.6,16.1-35.5,30.5c13.7,0,27.3,0,41,0
				c9.1,0.2,19,2.2,25.6,8.9c7.1,6.5,9.7,16.7,18,22c5.1,3.4,11.4,3.9,17.4,3.8c37.7,0.1,75.3-0.1,113,0.1c1.1,2,2.3,3.9,3.5,5.9
				c-41.2-0.1-82.3,0-123.5-0.1c-8.2-0.1-16.7-1.7-23.3-6.8c-7.8-5.7-11-15.5-17.7-22.2c-3.8-3.5-8.9-5.5-14-5.5
				c-14.3-0.2-28.5,0.1-42.8-0.2c-0.7,2.2-1.3,4.4-1.9,6.6c11.6,0.1,23.1,0,34.7,0c6.1,0,12.3,1.8,16.8,6c7,6.6,9.6,16.8,17.5,22.6
				c6.4,5.1,14.8,6.1,22.7,6c45.1-0.1,90.3,0.1,135.4-0.1c1.5,1.9,2.7,4,3.8,6.1c-55.7,0.1-111.4,0-167.1,0c-3.4,0-6.9-0.1-10.2-1
				c-6.9-1.6-12.4-6.9-15.9-12.8c-4.2-6.6-7-14.8-14.2-18.8c-7.8-3.8-16.6-1.2-24.9-2.3c0.4-1.9,0.8-3.8,1.3-5.7
				c-24.5,0-49,0-73.5,0c-0.1,1.9-0.3,3.9-0.4,5.8c24.3,0.1,48.6-0.1,72.8,0.1c-2.2,14.4,1.1,29.5,9.2,41.6
				c9.8,14.3,25.6,24.7,42.9,26.6c17,2.3,34.6-3.4,47.4-14.6c2.3-1.2,5-0.6,7.5-0.9c31.3-0.8,62.6-1.7,93.9-2.5
				c13.4-0.2,26.9-1.1,40.3-0.9c10.7,17.6,22,34.8,32.8,52.3c-81.7,0.2-163.3,0-245,0.1c-20,0.1-40.1-4.9-57.1-15.6
				c-15-9.3-27.4-23-35-39c-7.1-14.6-10.3-31-9.8-47.2c-7.9,0.3-15.7,0.1-23.6,0.1c-32.9,52.3-65.5,104.8-98.3,157.2
				c123.9-0.1,247.8,0,371.7,0c12.6-0.1,25.6,0.9,37.7-3.3c18.1-5.5,32.9-21.1,36.8-39.7c10.2-0.1,20.3-0.1,30.5,0
				c25.3,40.4,50.5,81,75.9,121.3c-44.3,0.5-88.6,0.1-132.9,0.2c-170.7,0-341.3,0-512,0C149.7,609.6,141.4,609.9,133.1,609.5z
				 M322.4,361.3c11.3,0.1,22.6,0.1,33.8,0c1.2-1.9,2.5-3.8,3.7-5.6c-11.3-0.1-22.6,0.1-34-0.1C324.8,357.5,323.6,359.4,322.4,361.3
				z M374.4,355.6c-0.3,1.9-0.7,3.8-1,5.8c24.9,0.1,49.7,0,74.6,0c0.9-2,1.8-3.9,2.7-5.8C425.3,355.7,399.9,355.7,374.4,355.6z
				 M356.2,361.5c-1.3,2.2-2.6,4.4-3.9,6.6c6.7,0,13.4,0,20.1,0c0.3-2.2,0.6-4.3,0.9-6.5C367.6,361.5,361.9,361.6,356.2,361.5z
				 M318.2,368.1c-1.3,1.9-2.5,3.8-3.7,5.8c11.2,0.3,22.5-0.1,33.7,0.2c1.3-2,2.7-4,4-5.9C340.8,368.2,329.5,368.2,318.2,368.1z"/>
		</g>
		<path class="st1" d="M638.8,494.8c3-1.4,4.9-4.3,7-6.8c4.4,0.2,8.8,0,13.1,0.3c-3,5.6-7,11.1-13.1,13.6c-4.7,2.1-9.9,2.3-14.9,2.3
			c-117.6-0.1-235.2,0.1-352.7-0.1c1.4-2.1,2.5-4.3,3.6-6.5c16.3-0.7,32.7-0.1,49.1-0.3c96.7,0,193.4,0,290,0
			C627,497.2,633.3,497.6,638.8,494.8z"/>
		<path class="st1" d="M670.4,488.1c5-0.1,10,0,15-0.1c-4.5,12.4-12.9,23.9-25.1,29.5c-6.7,3.2-14.1,4.5-21.4,4.7
			c-124,0.1-247.9-0.1-371.8,0.1c0.8-3.5,3.5-6.1,5-9.2c120.3,0,240.6,0,360.9,0c8.4-0.1,17.1-1.9,24-7
			C663.3,501.8,667.7,495.2,670.4,488.1z"/>
		<path class="st1" d="M218.6,624.2c29.2,0.1,58.4,0.1,87.6,0c0,2.8,0.1,5.6,0.1,8.4c-29.3,0.3-58.5,0.2-87.8,0
			C218.6,629.9,218.6,627,218.6,624.2z"/>
		<path class="st1" d="M763.3,624.2c11.6,0.1,23.2,0.1,34.7,0c0,2.8,0.1,5.6,0.2,8.5c-11.6,0.3-23.3,0.1-34.9,0.1
			C763.3,629.9,763.3,627,763.3,624.2z"/>
		<path class="st1" d="M137.9,626.1c11.6-0.3,23.1,0,34.7-0.1c0.2,29,0.2,58,0,86.9c197.8,0.2,395.6,0,593.4,0.1
			c10.7,0.1,21.4-0.2,32.1,0.2c-0.1,4.3,0,8.6-0.3,13c-1.5,1.1-3,2.2-4.5,3.3c-214.9,0-429.8,0-644.6,0c-3.5-5.6-7.6-10.8-10.6-16.6
			C137.7,683.9,138,655,137.9,626.1z"/>
		<g>
			<path class="st1" d="M201.2,641.7c40.8-0.1,81.6,0,122.3-0.1c0.1,20,0.1,40,0,60.1c-40.8,0-81.5,0-122.3,0
				c-0.1-11.4,0-22.9-0.1-34.3c29.1-0.1,58.3-0.1,87.4,0c0.1-5.7,0.1-11.4,0-17.2c-17.6-0.1-35.2-0.1-52.7,0
				c0.1,1.4,0.1,2.7,0.1,4.1c6.9-0.1,13.9,0,20.8,0c0,1.4-0.1,2.8-0.1,4.2c-18.5,0-37,0-55.5,0C201.2,652.9,201.2,647.3,201.2,641.7
				z M236.1,675.9c-0.1,5.8,0,11.5,0,17.3c17.5,0,35.1-0.2,52.6,0.1c0.1-5.7,0-11.4,0.1-17.1C271.2,675.6,253.7,676.1,236.1,675.9z"
				/>
		</g>
		<path class="st1" d="M341.7,641.6c11.6,0.1,23.2,0.1,34.8,0c0.1,17.2,0.1,34.3,0,51.5c26.1,0.1,52.2,0,78.4,0.1
			c0.4-14.3-0.1-28.6,0.3-43c-18.5,0-37,0-55.6,0c0,1.4,0,2.8,0,4.2c6.9,0,13.9,0,20.8,0c0,1,0,3,0,4.1c-11.6,0.2-23.3,0-34.9,0.1
			c0-5.6-0.1-11.3,0-16.9c26.2,0,52.4,0,78.6,0c0.1,20,0.1,40,0,60.1c-40.8-0.1-81.6,0.1-122.3,0
			C341.8,681.6,341.7,661.6,341.7,641.6z"/>
		<path class="st1" d="M482.2,641.7c40.8-0.1,81.6,0,122.3,0c0.1,11.4,0,22.8,0.1,34.2c-18.5,0.2-37,0-55.5,0.1
			c-0.1-2.9,0-5.7,0-8.6c6.9,0,13.7-0.1,20.6,0.1c0-5.7,0-11.5,0-17.2c-17.5,0-35.1-0.1-52.6,0.1c0,14.3,0,28.6,0,42.9
			c17.5,0,35.1-0.1,52.7,0c0-1.4-0.1-2.8-0.1-4.2c11.6-0.4,23.3,0,35-0.2c0.1,4.3,0,8.5,0,12.8c-40.8,0.1-81.6,0.2-122.4,0
			C482.2,681.6,482.2,661.7,482.2,641.7z"/>
		<g>
			<path class="st1" d="M622.7,641.6c40.8,0.1,81.6,0.1,122.4,0c-0.1,20,0.1,40.1-0.1,60.1c-40.8,0-81.6,0.1-122.4-0.1
				c0.2-11.4,0.1-22.8,0.1-34.2c29.2-0.1,58.4-0.1,87.5,0c0-5.7,0-11.4,0.1-17.1c-17.5-0.2-35.1,0-52.6-0.1c0,1.4,0,2.8,0,4.2
				c7,0,13.9,0,20.9,0c0,1,0,3.1,0,4.2c-18.6,0-37.2,0.1-55.8,0C622.7,652.9,622.8,647.2,622.7,641.6z M657.7,675.8
				c0,5.8,0,11.5-0.1,17.3c17.6,0.1,35.2,0.1,52.8,0c-0.2-5.7-0.1-11.5-0.1-17.2C692.7,675.9,675.2,676,657.7,675.8z"/>
		</g>
		<path class="st1" d="M763.3,701.7c-0.1-20-0.1-40,0-60c11.6,0,23.2,0,34.8,0c-0.2,20,0,40-0.1,60
			C786.5,701.8,774.9,701.7,763.3,701.7z"/>
	</g>
</g>
</svg>
