<?xml version="1.0" encoding="UTF-8"?>
<svg id="Layer_1" data-name="Layer 1" xmlns="http://www.w3.org/2000/svg" viewBox="0 0 400 299.17">
  <defs>
    <style>
      .cls-1 {
        fill: #38b34b;
      }

      .cls-2 {
        fill: #b21e8c;
      }

      .cls-3 {
        fill: #b41d90;
      }
    </style>
  </defs>
  <g id="Layer_2" data-name="Layer 2">
    <g id="Layer_1-2" data-name="Layer 1-2">
      <path class="cls-2" d="m187.89,6.79c8.64-2.2,17.75-1.59,26.02,1.74,8.15,3.22,15.05,9.17,19.79,16.49-2.86,7.07-7.73,13.14-13.25,18.33-3.28-2.8-7.15-4.97-11.34-6.04-12.13-3.15-24.85,2.3-30.93,13.25-6.12,10.97-4,24.69,5.14,33.3,2.49,2.19,4.69,4.69,7.05,7.01,3.54,3.72,7.17,7.36,10.72,11.07l24.75,24.75c.88.86,1.71,1.77,2.64,2.58,17.58,14.99,19.68,41.4,4.69,58.99-6.24,7.32-14.8,12.26-24.26,14-10.77,2.01-22.31-.4-31.3-6.69-17.34-11.92-23.12-34.88-13.49-53.59,2.59-5.19,6.43-9.66,10.79-13.43-.34.73-.74,1.44-1.18,2.12-5.28,8.73-4.99,20.43.69,28.89,2.85,4.35,6.87,7.81,11.6,9.98,5.25,2.4,11.12,3.07,16.77,1.93,9.21-1.74,17.2-8.62,20.41-17.41,2.38-6.47,2.25-13.61-.38-19.98-1.77-4.25-4.55-8.01-8.12-10.93-5.73-5.87-11.44-11.74-17.15-17.62-8.01-8-16.02-16-24.02-24.01-1.15-1.18-2.35-2.32-3.61-3.39-17-15.67-18.08-42.15-2.42-59.15,5.48-5.95,12.57-10.18,20.41-12.19Z"/>
      <path class="cls-2" d="m117.35,66.01c16.3-5.9,34.55-1.14,45.9,11.96,1.25,1.5,2.72,2.8,4.07,4.21,7.75,7.7,15.41,15.46,23.2,23.13-7.77,7.84-15.6,15.61-23.4,23.43-1.26,1.31-2.64,2.51-3.79,3.92-7.62,8.97-19.2,14.43-30.97,14.53-11.06.22-21.76-3.98-29.73-11.66-5.69-5.48-9.86-12.58-11.66-20.3-2.96-11.97-.29-25.19,7.2-35h0c4.88-6.51,11.55-11.45,19.19-14.22Z"/>
      <path class="cls-1" d="m236.74,33.75c.19-.35.52-.59.76-.91,2.52,6.65,3.02,13.93,2.1,20.94-.85,5.07-2.5,10.04-5.15,14.46,7.05-5.01,15.66-7.89,24.33-7.79,5.15-.04,10.27.89,15.08,2.73,10.55,4.04,19.33,12.51,23.62,22.98,4.01,9.5,4.26,20.5.79,30.2-.41,1.19-1.02,2.3-1.35,3.52-.66,1.02-1.13,2.14-1.75,3.18-4.08,7.11-10.15,12.87-17.46,16.57-5.78,2.94-12.18,4.46-18.66,4.45-1.31.02-2.59-.37-3.81-.83-2.75-1.15-5.39-2.56-7.87-4.21-1.63-1.18-3.42-2.23-4.67-3.85,6.12,0,12.29-1.52,17.53-4.75,8.78-5.12,14.83-14.58,15.85-24.68.83-7.37-.94-15.09-5.09-21.26-2.68-4.46-6.7-8.04-11.14-10.71l-.02.5-.03-.55c-8.07-4.66-18.16-5.71-26.97-2.59-.67.37-.97,1.15-1.45,1.71-2,2.59-4.31,4.94-6.87,6.99,6.38-8.97,6.8-20.89,1.06-30.28-.25-.46-.63-.88-.68-1.41,4.52-4.29,8.62-9.07,11.85-14.42Z"/>
      <path class="cls-1" d="m98.16,80.23l.02-.02h0l-.02.02Z"/>
    </g>
  </g>
  <path class="cls-3" d="m183.49,232.78c1.17-.47,2.66-.29,3.56.65.75.78.96,1.93.54,2.93-.49,1.03-1.45,1.72-2.06,2.67-.75-.11-1.49-.29-2.2-.55.02-.92.79-1.51,1.2-2.26.19-.28.1-.64-.07-.9-.65-.42-1.04.46-1.52.76-.67-.01-1.16-.57-1.71-.89.39-1.06,1.19-2,2.26-2.41Z"/>
  <path class="cls-3" d="m37.25,234.85c1.13-.17,2.3-.03,3.45-.06.93,1.25,1.99,2.41,2.8,3.74-.03.07-.1.2-.14.27-1.02.11-2.05.03-3.07.04-.45-.52-.87-1.07-1.29-1.61-.45.51-.88,1.04-1.27,1.59-1.07.03-2.15.06-3.22-.01.02-.71.6-1.18.97-1.72.6-.73,1.11-1.54,1.76-2.24Z"/>
  <path class="cls-3" d="m123.88,235.31c.19-.2.33-.52.65-.52,1.06-.04,2.13-.01,3.2,0,.79,1.01,1.57,2.03,2.37,3.04.22.29.38.62.48.96-1.08.11-2.17.04-3.25.06-.44-.53-.86-1.08-1.28-1.63-.45.52-.87,1.04-1.28,1.6-1.08.05-2.15.04-3.23-.01.05-.29.1-.6.31-.84.67-.89,1.38-1.76,2.04-2.66Z"/>
  <path class="cls-3" d="m320.61,234.79c1.57-.01,3.12-.04,4.68.01.01.1.04.32.05.42-1.13,1.17-2.2,2.42-3.37,3.55-1.22.15-2.48.07-3.71.02.08-.68.54-1.22.9-1.78.48-.74.98-1.48,1.45-2.23Z"/>
  <path class="cls-3" d="m166.24,239.42c2.37-.46,4.82-.16,7.01.87-.29,1.34-.56,2.7-1.08,3.97-1.61-.59-3.35-1.21-5.07-.77-.68.14-1.38.72-1.31,1.47-.08.61.37,1.08.84,1.38,1.33.85,2.91,1.2,4.27,2.01,1.14.68,2.17,1.63,2.68,2.87.7,1.79.53,3.81-.46,5.45-.77,1.34-2.15,2.21-3.6,2.67-2.88.86-6.05.48-8.76-.79.23-1.35.56-2.68.91-4,.78.02,1.44.49,2.18.69,1.31.38,2.74.62,4.07.21.7-.21,1.31-.84,1.26-1.61.06-.73-.47-1.33-1.06-1.67-1.13-.68-2.44-.99-3.59-1.63-1.55-.8-2.98-2.14-3.36-3.9-.39-1.7-.01-3.49,1.04-4.87.98-1.26,2.48-2.04,4.03-2.35Z"/>
  <path class="cls-3" d="m379.6,239.38c2.68-.5,5.65.12,7.7,1.98,2.16,1.95,3.16,4.93,3.13,7.79.06,2.79-.65,5.74-2.58,7.83-2.03,2.3-5.34,3.19-8.31,2.7-2.57-.35-4.86-2.06-6.05-4.34-1.39-2.64-1.67-5.79-1.01-8.68.48-2.18,1.65-4.24,3.41-5.63,1.08-.83,2.35-1.4,3.7-1.65Zm1.19,3.9c-.94.07-1.76.64-2.33,1.37-1.33,1.76-1.47,4.1-1.3,6.23.17,1.44.62,2.95,1.71,3.96,1.1,1.11,2.99,1.26,4.3.42.84-.51,1.38-1.38,1.74-2.27.61-1.54.71-3.24.53-4.87-.23-1.44-.71-2.95-1.82-3.96-.77-.69-1.81-1.01-2.84-.87Z"/>
  <path class="cls-3" d="m15.53,239.78c1.49-.28,3.01-.36,4.53-.43,2.05-.02,4.19-.07,6.1.77,1.18.52,2.25,1.43,2.72,2.66.62,1.54.37,3.3-.67,4.61-.45.55-1.04.95-1.65,1.32,1.07.49,2.07,1.22,2.63,2.28,1,1.92.82,4.24-.44,6-.97,1.36-2.56,2.12-4.16,2.45-2.99.6-6.07.46-9.07.08-.08-5.07-.01-10.15-.03-15.23.03-1.5-.06-3,.05-4.5Zm4.66,3.35c-.07,1.36-.04,2.72-.02,4.07,1.2,0,2.55.14,3.58-.62.99-.68,1.01-2.36-.01-3.02-1.05-.69-2.37-.4-3.55-.43Zm-.02,7.8c-.03,1.69-.03,3.38,0,5.07,1.22.03,2.54.15,3.64-.5,1.47-.78,1.51-3.24.05-4.04-1.11-.67-2.45-.54-3.68-.53Z"/>
  <path class="cls-3" d="m33.01,239.49c2.36-.05,4.71-.01,7.07-.02,1.59.02,3.18-.05,4.76.04.04,1.34.02,2.68,0,4.02-.83.17-1.67.09-2.51.1-1.55,0-3.1-.01-4.66.01-.09,1.16-.09,2.32-.01,3.48,2.13.04,4.25-.01,6.38.02.41-.03.4.5.42.79-.01,1.09.06,2.18-.08,3.26-2.23.15-4.48-.09-6.71.08-.03,1.38-.11,2.76,0,4.14,2.02-.01,4.04,0,6.06,0,.49,0,.99.03,1.48.1.03,1.34.04,2.69,0,4.03-1.48.1-2.96.03-4.44.05-2.59-.02-5.18.04-7.76-.03-.17-1.02-.1-2.05-.11-3.07,0-4.58,0-9.17,0-13.75.02-1.08-.08-2.16.1-3.23Z"/>
  <path class="cls-3" d="m48.43,239.49c1.72-.04,3.44-.05,5.15,0,.23.18.34.47.49.72,2.05,3.89,4.3,7.69,5.99,11.77-.16-3.9-.22-7.81-.17-11.71.01-.26.05-.51.09-.77,1.4-.04,2.81-.06,4.22,0,.1,3.97.01,7.94.04,11.92-.03,2.7.06,5.41-.04,8.11-1.58.08-3.17.04-4.75.03-1.49-2.81-2.96-5.62-4.43-8.44-.85-1.62-1.61-3.28-2.35-4.95.01,4.45.15,8.9.03,13.35-1.42.09-2.85.06-4.28.02-.13-2.53-.02-5.06-.06-7.59v-9.92c0-.84-.04-1.69.08-2.52Z"/>
  <path class="cls-3" d="m68.19,239.51c1.52-.07,3.04-.06,4.56-.02.07.37.1.75.11,1.13,0,2.13-.01,4.25,0,6.38,2.12,0,4.23,0,6.35,0,.14-2.5-.05-5,.1-7.5,1.51-.07,3.03-.04,4.54,0,.22,1.47.06,2.96.06,4.44.02,3.36-.04,6.73.05,10.1-.11,1.83.02,3.67-.09,5.5-1.51.06-3.03.07-4.55,0-.15-2.69.02-5.4-.09-8.08-2.12-.07-4.25-.08-6.37,0v6.94c0,.39-.04.77-.11,1.15-1.52.04-3.05.07-4.57-.02-.08-4.15-.01-8.3-.03-12.46.03-2.53-.04-5.06.05-7.57Z"/>
  <path class="cls-3" d="m91.65,239.51c1.66-.09,3.31-.03,4.97-.04,1.31,4.74,2.66,9.48,3.78,14.27,1.16-4.8,2.55-9.53,3.91-14.27,1.61.02,3.22-.05,4.83.04-.03.35-.1.7-.2,1.04-2.02,6.33-4.04,12.67-6.06,19-1.76.01-3.52.02-5.28-.02-1.95-6.36-3.86-12.73-5.81-19.09-.08-.31-.12-.62-.14-.93Z"/>
  <path class="cls-3" d="m111.49,239.5c1.52-.05,3.04-.05,4.57,0,.11,3.22.02,6.44.05,9.66-.03,3.46.06,6.91-.05,10.37-1.53.08-3.06.06-4.58.02-.14-.84-.08-1.7-.09-2.55v-13.93c.04-1.18-.09-2.38.1-3.56Z"/>
  <path class="cls-3" d="m120.04,239.49c2.7-.07,5.41-.01,8.11-.03,1.24.01,2.48-.04,3.71.05.05,1.34.03,2.68.01,4.02-.89.15-1.79.09-2.68.09h-4.5c-.01,1.16-.01,2.33,0,3.49,2.23.03,4.46-.02,6.69.03.17,1.34.18,2.7.02,4.04-1.08.19-2.17-.02-3.26.02-1.15-.03-2.3.08-3.45.08-.01,1.37-.01,2.74,0,4.11,2.52.06,5.05-.11,7.55.1.04,1.34.04,2.68,0,4.03-2.58.11-5.16.02-7.74.05-1.49-.02-2.97.04-4.46-.03-.06-.38-.1-.76-.11-1.15v-13.93c.04-1.66-.12-3.32.1-4.97Z"/>
  <path class="cls-3" d="m135.5,239.48c1.61-.03,3.22-.03,4.83-.02.4-.07.56.35.72.63,2.06,3.94,4.35,7.77,6.04,11.88-.05-2.74-.23-5.47-.17-8.21.05-1.42-.11-2.86.1-4.27,1.4-.04,2.81-.05,4.21,0,.11,3.91.02,7.83.05,11.75-.02,2.76.05,5.53-.04,8.29-1.58.07-3.17.03-4.76.03-2.29-4.45-4.81-8.79-6.79-13.4.01,4.45.15,8.91.02,13.35-1.42.08-2.85.09-4.27.02-.13-2.35-.02-4.72-.06-7.07v-10.79c.01-.72-.04-1.46.12-2.18Z"/>
  <path class="cls-3" d="m181.44,239.47c1.95,0,3.91,0,5.86,0,1.7,5.78,3.4,11.56,5.09,17.34.24.9.63,1.77.65,2.71-1.55.1-3.1.04-4.64.05-.28.05-.3-.31-.38-.48-.44-1.49-.85-2.99-1.28-4.49-1.65-.05-3.31-.03-4.95,0-.45,1.65-.86,3.32-1.31,4.97-1.59,0-3.17.07-4.76-.04.05-.55.16-1.08.35-1.6,1.8-6.14,3.53-12.31,5.36-18.44Zm1.13,11.21c1.12.02,2.25.02,3.38,0-.55-2.17-1.2-4.3-1.74-6.47-.5,2.17-1.1,4.31-1.64,6.47Z"/>
  <path class="cls-3" d="m195.95,239.51c1.74-.09,3.5-.02,5.24-.03,1.49,2.75,2.99,5.5,4.44,8.27.72,1.39,1.3,2.84,2,4.24-.27-4.15-.25-8.31-.17-12.47,1.43-.08,2.86-.08,4.3-.01.07,3.85.01,7.7.03,11.55-.02,2.81.03,5.63-.02,8.44-1.57.09-3.14.08-4.7.03-.32-.28-.46-.7-.66-1.04-2.09-4.15-4.47-8.16-6.25-12.46-.03,2.15.15,4.29.12,6.44v4.53c0,.85.06,1.71-.09,2.55-1.41.05-2.82.06-4.22,0-.09-3.98-.01-7.96-.04-11.94.03-2.7-.05-5.4.05-8.08Z"/>
  <path class="cls-3" d="m222.03,239.49c1.6-.03,3.21-.04,4.81-.02.51-.07.64.5.86.84,1.99,3.87,4.28,7.6,5.89,11.66-.01-2.79-.2-5.58-.15-8.37.03-1.36-.09-2.73.09-4.09,1.39-.05,2.8-.05,4.21,0,.18.95.11,1.91.12,2.87v13.93c0,1.08.06,2.17-.12,3.24-1.58.06-3.16.03-4.75.02-2.27-4.46-4.79-8.8-6.79-13.4.03,4.45.17,8.91.04,13.36-1.42.09-2.84.06-4.26.02-.17-1.94-.03-3.9-.07-5.85v-11.84c.01-.79-.05-1.59.12-2.36Z"/>
  <path class="cls-3" d="m241.75,239.51c1.19-.07,2.37-.02,3.56-.04.38,0,.75.04,1.12.14,0,2.46-.02,4.93,0,7.39,2.13,0,4.26.02,6.39,0,.04-2.49-.05-4.98.05-7.47,1.51-.09,3.03-.06,4.55-.02.17.95.1,1.91.11,2.88v14.27c0,.96.05,1.94-.1,2.89-1.52.05-3.04.07-4.56-.01-.11-2.7,0-5.41-.05-8.12-2.13,0-4.25-.05-6.38.03-.05,2.69.02,5.38-.03,8.07-1.55.1-3.11.1-4.67.01-.05-4.85,0-9.69-.02-14.54.02-1.83-.03-3.66.04-5.48Z"/>
  <path class="cls-3" d="m261.4,239.5c1.52-.04,3.04-.06,4.56,0,.15.89.1,1.79.1,2.69v14.8c0,.85.04,1.7-.09,2.54-1.52.06-3.04.06-4.56,0-.1-3.98-.02-7.96-.04-11.94.02-2.7-.05-5.4.04-8.09Z"/>
  <path class="cls-3" d="m276.81,239.69c2.07-.3,4.17-.41,6.27-.35,1.87.14,3.89.54,5.25,1.94,1.8,1.79,2.13,4.63,1.32,6.95-.46,1.43-1.46,2.62-2.79,3.32-1.81,1-3.94,1.15-5.97,1.09-.05,2.22.05,4.45-.04,6.67l-.15.19c-1.46.11-2.93.04-4.4.02-.14-.73-.1-1.47-.09-2.2v-17.23c-.05-.34.36-.35.59-.41Zm4.08,3.66c.02,1.79-.02,3.57.02,5.36,1.07.07,2.23.11,3.2-.45,1.55-.86,1.81-3.42.36-4.49-1.05-.69-2.4-.66-3.58-.42h0Z"/>
  <path class="cls-3" d="m293.09,239.5c1.51-.06,3.03-.05,4.55,0,.17.89.1,1.8.11,2.7v4.8h6.36c0-1.26.02-2.51.05-3.76.04-1.25-.14-2.5.06-3.74,1.51-.05,3.02-.05,4.55,0,.09,4.84.01,9.69.04,14.53-.03,1.83.06,3.67-.04,5.5-1.51.06-3.03.06-4.55,0-.24-2.69.05-5.4-.11-8.09-2.12-.06-4.24-.06-6.36,0,0,2.32,0,4.64,0,6.95,0,.38-.04.77-.1,1.15-1.52.05-3.05.06-4.58,0-.07-5.08-.01-10.16-.03-15.25.03-1.59-.04-3.19.05-4.78Z"/>
  <path class="cls-3" d="m312.75,239.5c1.52-.06,3.05-.05,4.57,0,.16.89.09,1.8.1,2.7v8.89c0,1.2.16,2.45.81,3.48.97,1.64,3.72,1.61,4.7,0,.61-.98.77-2.17.8-3.3v-9.06c0-.9-.05-1.81.06-2.71,1.53-.03,3.06-.05,4.59.02.08,2.87.01,5.74.03,8.6-.03,1.7.11,3.42-.2,5.1-.26,1.45-.73,2.91-1.7,4.06-.83,1.02-1.95,1.77-3.22,2.14-1.97.58-4.07.55-6.02-.09-1.53-.55-2.78-1.67-3.48-3.13-1.11-2.17-1.13-4.66-1.1-7.04.04-3.23-.05-6.45.06-9.67Z"/>
  <path class="cls-3" d="m336.24,239.49c3.34-.06,6.68-.01,10.02-.03,1.53.02,3.07-.03,4.6.04.05,1.39.05,2.78,0,4.16-1.68.07-3.35,0-5.03.04-.04,5.27.03,10.54-.03,15.81-1.55.09-3.11.09-4.66,0-.07-5.27,0-10.54-.04-15.82-1.62-.01-3.25.02-4.87-.02-.18-1.39-.18-2.8.01-4.19Z"/>
  <path class="cls-3" d="m353.31,239.51c1.31-.07,2.61-.03,3.93-.04.25.02.72-.03.73.35.04,2.4-.01,4.79.02,7.19,2.13,0,4.26.01,6.39,0,.05-2.49-.07-4.99.07-7.49,1.51-.07,3.03-.05,4.54,0,.19,1.24.02,2.49.05,3.74v12.01c-.04,1.43.16,2.86-.06,4.29-1.52.05-3.03.06-4.55-.01-.12-2.69,0-5.4-.06-8.08-2.13-.08-4.27-.07-6.4,0v5.55c0,.85.05,1.71-.1,2.55-1.52.04-3.05.06-4.57-.02-.07-3.46-.01-6.91-.03-10.37.02-3.24-.04-6.46.03-9.67Z"/>
  <path class="cls-3" d="m38.42,261.46c.68-.17,1.47-.08,1.99.41,1.04.93.98,2.82-.2,3.61-1.04.76-2.69.26-3.13-.95-.57-1.16.07-2.75,1.34-3.08Z"/>
  <path class="cls-3" d="m125.45,261.46c.6-.14,1.29-.11,1.81.27,1.06.72,1.23,2.35.44,3.33-.75,1.05-2.49,1.01-3.27,0-1.01-1.13-.48-3.2,1.02-3.6Z"/>
  <path class="cls-3" d="m380.65,261.46c.67-.16,1.47-.09,1.99.41,1.07.92.98,2.81-.19,3.62-1.05.75-2.7.25-3.13-.98-.58-1.16.1-2.69,1.33-3.05Z"/>
</svg>