<?xml version="1.0" encoding="utf-8"?>
<!-- Generator: Adobe Illustrator 24.2.0, SVG Export Plug-In . SVG Version: 6.00 Build 0)  -->
<svg version="1.1" id="Layer_1" xmlns="http://www.w3.org/2000/svg" xmlns:xlink="http://www.w3.org/1999/xlink" x="0px" y="0px"
	 viewBox="0 0 936 936" style="enable-background:new 0 0 936 936;" xml:space="preserve">
<style type="text/css">
	.st0{fill:#FFF3D1;}
	.st1{fill:#FF0000;}
	.st2{fill:#E01B22;}
	.st3{fill:#7C9F51;}
</style>
<g>
	<g>
		<g>
			<path class="st0" d="M352.3,33.5c48.5-12.9,99.2-17.5,149.2-13.8c71.3,5.1,141.3,27.7,202.2,65.3c29.1,18.3,56.3,39.4,80.7,63.6
				c42.4,42.1,76.4,92.6,99.2,147.9c7.7,18.4,13.9,37.3,19.1,56.5c24.6,92.5,18.6,192.9-17.1,281.7c-25.5,63.9-66,121.7-117.2,167.7
				C717.2,848.5,655.3,882.6,589,901c-91.4,25.6-190.9,21.3-279.7-12.3c-55.1-20.8-106.1-52.6-149-93
				c-50.5-47.3-89.8-106.4-113.9-171.3c-27.5-73.8-34.7-154.8-21.5-232.3c7.6-44.7,22-88.1,42.7-128.5
				c30.4-59.5,74.3-112.1,127.4-152.7C241.6,75.1,295.4,48.6,352.3,33.5z M439.5,33.8C390.2,37,341.4,48.6,296,68.2
				c-58.6,25.1-111.4,63.5-153.7,111.2c-39.4,44.3-69.6,96.8-88,153.1c-25.7,78.2-28.4,163.8-8,243.5c16.9,66.5,50,128.7,95.5,180
				c40.9,46.3,91.7,83.8,148,109.1c84.3,38.1,180.8,47.8,271,28c72.3-15.6,140.4-50.4,195.6-99.5c53.4-47.2,94.9-107.7,119.6-174.6
				c29.7-80,34.9-168.8,15.2-251.9c-11.5-48.7-31.7-95.4-59.1-137.3c-40-61.1-95.5-111.9-160-146.2
				C601.3,45.8,519.7,28.5,439.5,33.8z"/>
		</g>
		<g>
			<path class="st0" d="M432.6,48.9c82.5-7.1,167,10.8,239.3,51.2C734,134.5,787.1,185,824.7,245.2c28.4,45.4,48.1,96.2,57.4,148.9
				c14.5,81.3,4.7,166.8-28.6,242.4c-33.7,77.5-91.5,144.1-163.3,188.7c-35,21.8-73.2,38.5-113,49.1c-86.3,23.2-180,18.1-263.1-14.8
				c-55.4-21.8-106-55.5-147.4-98.2c-55-56.4-93.8-128.5-110-205.5C38.4,470.7,47.2,380,82.2,300.3c25.8-59.3,65.5-112.4,115-154.1
				C263,90.5,346.5,55.8,432.6,48.9z M384,128.1c-29.6,23-55.4,50.6-77.1,81.2c5.6,13.5,11.8,26.7,17.6,40.1
				c17.9,40.4,35.5,81.1,52.3,122c15.2-6.7,31.6-9.7,48.1-11.1c29.1-2.5,58.3-0.3,87.5-2.1c19.8-1.3,40.3-4.4,57.5-15
				c10.3-6.3,16.2-17.7,18.6-29.2c4.1-19.2,4.2-39.1,10.2-57.8c5.4-18.1,16.1-34.4,30.1-47c-18.9-26.8-41.2-51.3-66.4-72.4
				c-28.5-24-60.6-43.6-94.5-58.9C438.2,91.3,409.8,108,384,128.1z M620.2,231.3c-8.6,16-15.1,33.5-16.5,51.8
				c-1.3,14.8,0.5,30-3.2,44.5c-3.2,12.4-12.4,22.1-22.4,29.5c-14.4,11-32.5,15.6-50.2,17.9c-30.5,3.9-61.3,1.5-91.9,3.5
				c-17.2,1.3-35.2,3.7-49.8,13.5c7.4,18.8,14.6,37.6,21.6,56.5c9.4,2.8,19.6,5.7,26.4,13.3c4.4,5,4.3,12.6,0.9,18.1
				c-6.3,10.8-16.4,18.6-26.2,26c-19.3,14-40.1,25.6-61,37c-16.2,8.7-32.3,17.9-46.7,29.3c-9.7,7.8-19.2,16.6-25.3,27.6
				c-3.9,7-5.8,15.8-2.5,23.4c3.6,8.4,11.6,13.7,19.6,17.5c12.9,5.9,26.9,8.8,40.8,10.8c19.3,2.6,38.7,3.5,58.1,2.8
				c75.6-2.4,149.2-24.7,225-24.9c20.3,0,40.7,2,60.1,8.3c17.2,5.5,33.2,14.5,47.4,25.6c14.5,11.1,27.3,24.3,39.3,38
				c9.6-12.5,18.6-25.6,26.5-39.3c-18-16.3-39.1-29.3-62-37.6c-31-11.4-64.4-14.5-97.3-14.1c-42.5,0.5-84.7,6.1-127,9.2
				c-39.2,3.1-78.8,3.4-117.8-1.6c-12.6-1.9-25.6-4.2-36.6-10.9c-5.8-3.5-11-9.3-11.1-16.4c-0.1-8.8,5.3-16.3,10.8-22.7
				c11.4-12.6,25.6-22.3,39.8-31.4c9.1-5.5,18.2-11.4,27.9-15.9c-11.8,7.8-23.5,16.6-31.5,28.4c-4.8,7-7.5,16.5-3.3,24.3
				c5,9.3,15.3,14,24.9,17.2c15.1,4.9,31.2,6,47,6.5c75.9,2,151.2-16,227.1-10.1c28.8,2.2,57.3,8.7,83.6,20.9
				c14.6,6.5,28.2,15,41.4,24c5.2-10.6,9.5-21.5,13.5-32.5c-17-10.2-35.5-18.1-54.7-23.2c-27.4-7.4-55.9-9.2-84.1-8.5
				c-31.4,0.8-62.7,4.3-94,6.1c-21.6,1.3-43.3,1.3-65,0.6c-23.6-1-47.4-2.7-70.5-8.3c-10.2-2.7-20.8-5.8-29-12.8
				c-4-3.3-6.9-8.5-5.2-13.7c2.5-9.1,9.5-16.2,16.3-22.4c12.8-11,27.6-19.7,43.5-25.5c-8.3,5.5-16.4,11.6-22.6,19.4
				c-3.5,4.5-6.4,10.3-4.8,16.2c1.8,5.9,7.2,9.7,12.4,12.3c10.3,5,21.7,7.2,32.9,9c22.8,3.4,46,3.9,69,3.8
				c40.8-0.4,81.4-3.3,122.1-5.8c17.6-1.3,35.4-1.6,53,0.4c30.8,3.5,61.9,11,88.8,26.9c2.4-8.7,4.6-17.4,6.3-26.2
				c-0.6-1.2-2.2-1.2-3.2-1.8c-11.8-4.8-24-9-36.5-11.8c-26-6.3-53.1-5.9-79.5-3.1c-30.9,3.4-61.8,7.6-92.9,7.7
				c-28,0.2-56.1-0.5-83.8-3.9c-14.7-2-29.6-4.3-43.4-10.1c-6-2.7-12.6-6.2-15.1-12.6c-2-5.5,0.9-11.3,4.4-15.5
				c6.4-7.7,14.9-13.3,23.4-18.5c5.1-3,10.1-6.1,15.5-8.4c-5.4,3.8-10.5,8.1-14.5,13.4c-2.4,3.3-4.4,7.3-4,11.4
				c0.4,4.2,3.4,7.6,6.7,9.9c6.1,4.3,13.2,6.6,20.3,8.6c14.3,3.7,29,5.5,43.7,6.7c31.9,2.5,64,2.5,95.9,0.2c10.1-0.6,20-2.7,30-4.2
				c20.2-3.1,40.5-5.4,60.9-5.2c26,0.2,52.3,4.5,75.8,15.8c1.1-8,2.1-16,2.6-24c-10.1-3.4-20.8-5.1-31.4-5.7
				c-27.6-1.4-55.1,2.6-82.4,5.7c-35.7,4.3-71.7,7.8-107.6,5.1c-19.1-1.5-38.2-4-56.6-9.4c-8-2.6-16.3-5.5-22.8-10.9
				c-3.6-3-6.5-7.7-5.3-12.5c1.5-5.7,6.1-9.8,10.6-13.3c8.8-6.6,18.9-11.3,29-15.6c-5.3,4.4-10.9,9.2-13.2,15.9
				c-1.4,4,0.1,8.5,3.1,11.3c5.3,4.9,12.5,7.2,19.4,9.2c16.6,4.3,33.8,5.8,50.9,6.8c21.7,1.1,43.5,1.2,65.1,0.1
				c33.4-2.7,66.3-9.9,99.9-10.4c14.3-0.1,29.1,1,42.4,6.8c0.1-7.4,0.3-14.7,0-22.1c-16.8-3.3-33.8,0.6-50.4,3.4
				c-18.9,3.5-37.8,7.2-56.9,9.5c-36.3,4.6-73.4,4.2-109.5-2.4c-9.1-1.7-18.3-3.2-27-6.8c-4.6-2-9.4-4.6-12.2-8.9
				c-2.1-3.2-2.3-7.4-0.7-10.8c2.3-5.3,6.8-9.3,11.4-12.7c5.8-4.1,12.1-7.5,18.7-10c-3.3,3.2-6.6,7.1-6.6,12
				c0.1,4.9,3.8,8.6,7.5,11.2c7.6,5.1,16.4,7.9,25.2,10.2c19.7,4.8,39.9,6.7,60.1,7.1c20,0.2,40.2-0.9,59.8-5.2
				c11.5-2.7,23.3-6.2,32.5-13.9c5-4.1,8-10.6,7.4-17.1c-2.3,4.2-6.6,6.7-10.9,8.5c-9.5,4-19.8,6-29.9,7.6
				c-23.4,3.5-47.3,4.1-70.9,2.7c-16-1.1-32-3-47.4-7.5c-6.1-2.1-12.8-4.1-17.1-9.1c-2.2-2.4-1.8-6.2,0.5-8.4
				c4.7-4.7,11.3-6.7,17.4-8.7c14.8-4.3,30.3-6.1,45.6-7.2c24.3-1.5,48.8-1,72.8,2.7c12.6,2.1,25.6,4.6,36.5,11.6
				c12.7,6.4,27.1,13,41.6,9.3c-4.8-44.8-18.4-88.6-39.1-128.7c-29.5-57-74-106.2-127.9-141.1C652.6,182.8,634.1,205.6,620.2,231.3z
				 M125.5,326.6c-32.5,74.8-39.1,160.5-19,239.5c9.7,38.6,25.8,75.6,47.3,109.1c7.7,11.7,15.6,23.4,24.8,34
				c-5.7-28.6-6.8-59,2.5-87c5.6-17.3,15.3-33.1,27.8-46.3c-12.4-33.5-24.9-67-37.3-100.6c-19.5-7.3-39.2-14.2-58.7-21.7
				c27.9-0.3,55.7-0.7,83.6-1.1c9.3-32.7,18.5-65.5,27.8-98.2c0.9-3.2,0.4-6.6,0.5-9.9c-11.3,0-22.6,0-33.9,0c0-1.7,0.1-3.3,0.1-5
				c11.3-5.6,22.5-11.4,33.8-17.2c0-4.7,0-9.4,0-14.1c-11.3-0.1-22.6,0-33.9,0c0-1.6,0-3.3,0-4.9c11.7-6,23.5-11.9,35.1-18
				c5.7-11.1,10.9-22.5,16.3-33.8c5.9,11,10.7,22.7,16.6,33.8c11.6,6.2,23.4,12,35.1,18c0,1.6,0,3.3,0,4.9
				c-11.3,0.1-22.6-0.1-33.9,0.1c0,4.7,0.1,9.4,0,14c11.2,6,22.8,11.5,34,17.6c-0.1,1.5-0.1,3.1-0.1,4.6c-11.3,0-22.5,0-33.8,0
				c0.1,3.1-0.3,6.2,0.3,9.2c9.2,32.6,18.4,65.1,27.6,97.7c15.3-0.1,30.5-0.4,45.8-0.6c6.1,17.1,12.5,34.2,18.6,51.3
				c14-4.9,28-9.8,41.4-16.1c6.6-3.4,14.5-7.8,16-15.8c1.2-9.8-5.7-17.8-10.3-25.7c-43.3-94.8-87.4-189.4-139.3-279.8
				C201.1,204.2,153.6,261.1,125.5,326.6z M242.4,263.3c-3.1,6.8-6.6,13.4-9.5,20.3c6.4,0,12.8,0,19.2,0
				C249.2,276.6,245.9,269.9,242.4,263.3z M231.7,290.5c0.1,4.1-0.2,8.3,0.1,12.4c7.2-0.1,14.4,0,21.6-0.1c0-4.1,0-8.2,0-12.3
				C246.1,290.4,238.9,290.5,231.7,290.5z M205.1,302.8c6.5,0.1,13.1,0,19.6,0c0-3.6,0-7.3,0-10.9
				C218.2,295.5,211.6,299.1,205.1,302.8z M260.3,291.9c0,3.6,0,7.3,0,10.9c6.6,0,13.1,0,19.7,0
				C273.4,299.1,266.8,295.5,260.3,291.9z M231.5,308c3.7,3.9,7.3,7.9,11.1,11.7c3.5-4,7.3-7.7,10.8-11.7
				C246.1,308,238.8,308,231.5,308z M231.7,316c0,5-0.1,10.1,0,15.1c2.5-2.4,4.8-5,7.2-7.5C236.6,321,234.3,318.4,231.7,316z
				 M246.1,323.7c2.4,2.5,4.7,5.1,7.3,7.5c0-5.1,0-10.2,0-15.2C250.8,318.4,248.4,321,246.1,323.7z M231.6,339.1
				c7.3,0.1,14.5,0.1,21.8,0c-3.5-4-7.3-7.7-10.8-11.7C238.8,331.1,235.2,335.1,231.6,339.1z M205.5,339c6.4,0.3,12.8,0.1,19.2,0.1
				c0-3.6,0-7.3,0-10.9C218.4,331.8,211.8,335.1,205.5,339z M260.3,328.2c0,3.7,0,7.3,0,10.9c6.4,0,12.8,0.1,19.2-0.1
				C273.3,335.1,266.7,331.8,260.3,328.2z M231.6,344.5c0.1,3.2,0,6.3,0.1,9.5c3.7,3.4,7.1,7.1,10.8,10.6c3.6-3.7,7.3-7.2,10.8-10.9
				c-0.1-3.1-0.1-6.2,0-9.3C246.1,344.4,238.8,344.1,231.6,344.5z M230.3,364.5c-1.6,5.8-3.2,11.6-4.9,17.3
				c3.8-3.6,7.3-7.5,11.1-11.1C234.5,368.6,232.4,366.5,230.3,364.5z M248.6,370.5c3.5,4,7.4,7.6,11,11.4
				c-1.6-5.8-3.3-11.6-4.9-17.4C252.6,366.5,250.6,368.5,248.6,370.5z M242.4,376.7c-5.6,5.9-11.5,11.6-17.2,17.4
				c5.7,4.9,11.4,9.9,17.1,14.7c6.2-4.3,11.7-9.9,17.6-14.7C254,388.3,248.4,382.3,242.4,376.7z M220.1,400.9
				c-3.4,12.1-6.9,24.1-10.2,36.2c8.8-7.4,17.4-15,26.1-22.4C230.8,410,225.4,405.5,220.1,400.9z M249,414.5
				c8.5,7.7,17.4,15.1,26.1,22.6C271.9,425,268.3,413,265,401C259.5,405.3,254.4,410.1,249,414.5z M242.4,420.3
				c-12.1,10.8-24.7,21-36.6,32.1c24.1-0.2,48.1-0.6,72.2-0.9c-1.1-1.4-2.4-2.5-3.8-3.6C263.6,438.6,253.1,429.4,242.4,420.3z
				 M289.1,470.4c4.6,12.4,9.2,24.9,13.8,37.3c7-0.7,14.3-1.3,21.1,1.2c9.9,3.5,17.6,11,25.9,17.2c-6.9-7.4-14.1-14.7-20.9-22.2
				c-4.9-11.5-8.8-23.4-13.7-34.9C306.5,469.7,297.8,469.9,289.1,470.4z M249.5,472.2c5.1,13.7,10.3,27.4,15.4,41.1
				c8.9-0.5,18.2-0.7,26.4,3.2c11.9,5.7,21.8,14.8,32.5,22.4c-9.8-10.1-20.1-19.8-29.8-30c-4.9-12.6-9.4-25.4-14.2-38.1
				C269.8,471.3,259.6,471.8,249.5,472.2z M204.6,474.3c5.4,15.2,10.9,30.4,16.3,45.6c13.3-1.3,26.9,1.9,38.2,9
				c11.1,6.5,20.3,15.7,30.7,23.1c-12-12.3-24.1-24.5-36-36.9c-5.5-14-10.4-28.2-15.7-42.3C227,473.2,215.8,473.8,204.6,474.3z
				 M662.1,701.8c17.2,17.7,33.9,36,51.3,53.4c5.1-5.2,10.5-10,15.6-15.1c-17-17.8-34-35.7-51-53.5
				C672.7,691.6,667.3,696.6,662.1,701.8z M259.2,690.1c0,20,0.1,40.1,0,60.1c-4.9,7.7-10.7,14.9-15.7,22.5
				c6.3,4.3,12.4,8.7,18.6,13c5.6-7.6,10.8-15.6,16.6-23c18-7,36-13.7,54-20.7c-6.1-4.8-12.5-9.2-18.7-13.8
				c-11.3,4.6-22.6,9.3-33.9,13.8c0.3-11.6,0.4-23.2,0.7-34.8C273.7,701.4,266.5,695.7,259.2,690.1z M616.7,706.6
				c-0.3,6.4-0.8,12.7-1.2,19.1c4.4-3,9.1-5.6,13.3-8.8c2.4-7.4,4.6-14.9,6.8-22.4C629.3,698.5,622.9,702.4,616.7,706.6z
				 M635.6,720.2c-7.7,5.7-15.6,10.9-23.3,16.6c3.9,25.6,7.5,51.3,11.2,76.9c6.8-3.5,13.7-6.9,20.5-10.6c-1-5.4-1.8-10.8-2.7-16.2
				c9.4-6.1,18.9-12.3,28.4-18.4c4.7,3.5,9.5,7,14.3,10.5c6.2-4.7,12.1-9.7,18.2-14.5c-3.3-2.7-7.1-4.8-10.6-7.3
				C672.9,745,654.4,732.4,635.6,720.2z M367.5,729.6c-5.1,3-10.2,6-15.2,9c0,0.2-0.1,0.6-0.1,0.8c4,1.4,8.1,2.6,12,4.1
				c3.6-1.5,7.1-3.4,10.7-5c1.5,3.3,3.1,6.6,4.6,10c4.5,1.6,9,3.1,13.6,4.6c-2.6-6.2-5-12.4-7.7-18.5c-4.8-1.6-9.6-3.2-14.4-4.9
				C369.8,729.4,368.5,728.7,367.5,729.6z M315.1,815.9c22.1,7.6,44.3,15,66.6,22.2c1.9-5.7,3.8-11.3,5.7-17
				c-15.6-5.3-31.3-10.8-46.9-16c0.9-4,2.3-7.9,3.4-11.8c14.1,4.6,28.1,9.6,42.2,14.4c1.9-5.1,3.6-10.3,5.3-15.5
				c-14.1-4.8-28.1-9.6-42.1-14.5c1.2-3.7,2.5-7.3,3.7-11c14.6,4.5,29,9.9,43.6,14.8c1.9-5.7,4.1-11.3,5.6-17
				c-20.8-6.8-41.6-13.8-62.3-20.8C331.2,767.7,323.4,791.9,315.1,815.9z M559,758.3c-12.6,3.6-25.3,7.2-37.9,10.8
				c6.9,24,13.7,48,20.7,72c14.4-4,28.9-7.8,43.3-11.9c8.5-2.7,17.6-6.8,22.2-14.8c4-6.9,1.3-15.5-3.1-21.5c-3-3.9-8.1-5.2-12.8-5
				c10.8-6.7,7.9-25.4-3.7-29.6C578.5,754.8,568.3,755.9,559,758.3z M409.4,844.2c7.5,0.8,15,1.6,22.6,2.3c0.5-17.6,1-35.2,1.5-52.8
				c3.1,5.1,5,10.8,7.7,16.2c5.6,12.4,11.2,24.8,16.9,37.2c11,0.3,22.1,0.6,33.2,0.8c0.7-24.9,1.3-49.9,1.9-74.8c-7,0-14,0-21,0
				c-0.8,16.3-1.2,32.7-2.2,49c-8.5-16.9-16.6-34-25-50.9c-10.7-1.2-21.4-2.6-32.1-3.8C411.6,793.1,410.5,818.6,409.4,844.2z"/>
		</g>
		<path class="st0" d="M467.5,179.9c5.2,11.5,9.4,23.4,14.3,35.1c12.5,0.8,24.9,1.6,37.4,2.5c-1.6,2-3.8,3.5-5.7,5.2
			c-7.7,6.4-15.4,12.8-23,19.2c3.1,12.1,6.2,24.2,9.2,36.4c-10.9-6.1-21.3-13.2-31.9-19.8c-10.9,6.5-21.5,13.5-32.3,20.2
			c3-12.3,6.2-24.5,9.3-36.8c-9.6-8.2-19.6-16-29-24.4c12.6-0.9,25.3-1.5,37.9-2.6C458.1,203.1,462.9,191.6,467.5,179.9z"/>
		<path class="st0" d="M634.2,742.9c6.9,4.1,13.1,9.5,19.7,14.1c-5.3,3.4-10.5,6.8-15.8,10.1C636.8,759,635.5,751,634.2,742.9z"/>
		<path class="st0" d="M545.6,780.2c7.4-1.9,14.7-4.6,22.3-6.1c2.8-0.8,5.5,1.1,5.9,3.9c1,3.7-2.7,6.2-5.6,7.3
			c-6.3,2.2-12.8,3.8-19.1,5.7C547.8,787.4,546.7,783.8,545.6,780.2z"/>
		<path class="st0" d="M572.6,802.4c2.6-0.6,5.5-1.3,8,0.1c2.4,1.5,3.7,5.4,1.6,7.7c-2.1,2.4-5.3,3.4-8.3,4.2
			c-5.4,1.5-10.7,3.1-16,4.6c-1.2-3.8-2.4-7.6-3.6-11.4C560.4,805.9,566.5,804.1,572.6,802.4z"/>
	</g>
	<g>
		<g>
			<path class="st1" d="M439.5,33.8c80.2-5.3,161.8,12,232.7,49.9c64.5,34.3,120,85.1,160,146.2c27.5,41.9,47.6,88.6,59.1,137.3
				c19.7,83,14.5,171.8-15.2,251.9c-24.7,66.9-66.2,127.4-119.6,174.6c-55.3,49.2-123.3,83.9-195.6,99.5c-90.3,19.7-186.8,10-271-28
				c-56.4-25.3-107.1-62.8-148-109.1c-45.5-51.3-78.6-113.6-95.5-180c-20.4-79.8-17.7-165.3,8-243.5c18.4-56.4,48.6-108.8,88-153.1
				c42.3-47.7,95.1-86.1,153.7-111.2C341.4,48.6,390.2,37,439.5,33.8z M432.6,48.9c-86.1,6.9-169.6,41.6-235.4,97.3
				c-49.5,41.6-89.2,94.8-115,154.1c-35,79.7-43.8,170.5-25.6,255.5c16.2,77.1,55,149.2,110,205.5C208,804,258.6,837.8,314,859.6
				c83.1,32.9,176.8,38,263.1,14.8c39.8-10.6,78-27.3,113-49.1c71.8-44.6,129.6-111.3,163.3-188.7c33.3-75.6,43.1-161.1,28.6-242.4
				c-9.3-52.7-28.9-103.6-57.4-148.9C787.1,185,734,134.5,671.9,100.1C599.6,59.7,515.1,41.8,432.6,48.9z"/>
		</g>
	</g>
	<g>
		<g>
			<path class="st2" d="M384,128.1c25.8-20.2,54.2-36.8,83.9-50.3c33.9,15.3,66,34.9,94.5,58.9c25.2,21.1,47.4,45.6,66.4,72.4
				c-14,12.6-24.7,28.9-30.1,47c-6,18.8-6.2,38.7-10.2,57.8c-2.4,11.5-8.3,22.9-18.6,29.2c-17.2,10.6-37.7,13.7-57.5,15
				c-29.1,1.8-58.4-0.4-87.5,2.1c-16.4,1.4-32.9,4.4-48.1,11.1c-16.8-40.9-34.4-81.6-52.3-122c-5.8-13.4-12.1-26.6-17.6-40.1
				C328.6,178.8,354.4,151.1,384,128.1z M467.5,179.9c-4.6,11.7-9.4,23.2-13.9,34.9c-12.6,1.1-25.2,1.7-37.9,2.6
				c9.4,8.4,19.4,16.2,29,24.4c-3.1,12.3-6.3,24.5-9.3,36.8c10.8-6.6,21.4-13.6,32.3-20.2c10.6,6.6,21,13.7,31.9,19.8
				c-3-12.1-6.1-24.3-9.2-36.4c7.7-6.4,15.4-12.8,23-19.2c1.9-1.7,4.1-3.1,5.7-5.2c-12.5-0.8-24.9-1.7-37.4-2.5
				C476.9,203.4,472.7,191.4,467.5,179.9z"/>
		</g>
		<path class="st2" d="M620.2,231.3c13.9-25.7,32.5-48.5,51.8-70.3c53.9,34.9,98.4,84.1,127.9,141.1c20.7,40,34.3,83.8,39.1,128.7
			c-14.5,3.7-28.9-2.9-41.6-9.3c-10.9-7-23.9-9.4-36.5-11.6c-24.1-3.7-48.5-4.2-72.8-2.7c-15.4,1.1-30.8,2.9-45.6,7.2
			c-6.2,2-12.7,4-17.4,8.7c-2.3,2.2-2.7,6-0.5,8.4c4.4,5,11,7,17.1,9.1c15.4,4.5,31.5,6.4,47.4,7.5c23.6,1.4,47.5,0.8,70.9-2.7
			c10.2-1.6,20.4-3.6,29.9-7.6c4.3-1.9,8.6-4.3,10.9-8.5c0.6,6.5-2.4,13-7.4,17.1c-9.2,7.7-21,11.2-32.5,13.9
			c-19.6,4.3-39.8,5.5-59.8,5.2c-20.2-0.4-40.5-2.2-60.1-7.1c-8.8-2.3-17.6-5.1-25.2-10.2c-3.7-2.6-7.4-6.4-7.5-11.2
			c0-4.8,3.3-8.8,6.6-12c-6.6,2.5-12.9,5.9-18.7,10c-4.6,3.4-9.1,7.4-11.4,12.7c-1.6,3.5-1.4,7.7,0.7,10.8c2.8,4.3,7.6,6.9,12.2,8.9
			c8.6,3.5,17.8,5,27,6.8c36.1,6.5,73.1,6.9,109.5,2.4c19.1-2.3,38-6,56.9-9.5c16.6-2.8,33.6-6.6,50.4-3.4c0.3,7.3,0.2,14.7,0,22.1
			c-13.3-5.8-28.1-6.9-42.4-6.8c-33.6,0.4-66.5,7.7-99.9,10.4c-21.7,1.1-43.5,1-65.1-0.1c-17.1-1-34.3-2.5-50.9-6.8
			c-6.9-2-14-4.2-19.4-9.2c-3.1-2.8-4.6-7.3-3.1-11.3c2.3-6.7,7.9-11.5,13.2-15.9c-10.1,4.3-20.1,9-29,15.6
			c-4.5,3.5-9.1,7.6-10.6,13.3c-1.3,4.9,1.6,9.6,5.3,12.5c6.6,5.4,14.8,8.4,22.8,10.9c18.4,5.5,37.5,8,56.6,9.4
			c35.9,2.6,71.9-0.9,107.6-5.1c27.4-3.1,54.8-7.1,82.4-5.7c10.6,0.6,21.3,2.3,31.4,5.7c-0.5,8-1.5,16-2.6,24
			c-23.5-11.3-49.9-15.6-75.8-15.8c-20.4-0.2-40.8,2-60.9,5.2c-10,1.5-19.9,3.6-30,4.2c-31.9,2.2-64,2.2-95.9-0.2
			c-14.7-1.3-29.4-3-43.7-6.7c-7.1-2-14.3-4.3-20.3-8.6c-3.3-2.4-6.2-5.8-6.7-9.9c-0.4-4.2,1.6-8.2,4-11.4c4-5.3,9.1-9.6,14.5-13.4
			c-5.4,2.3-10.4,5.4-15.5,8.4c-8.4,5.2-16.9,10.9-23.4,18.5c-3.5,4.2-6.4,9.9-4.4,15.5c2.5,6.5,9.1,9.9,15.1,12.6
			c13.8,5.7,28.7,8.1,43.4,10.1c27.8,3.4,55.9,4.1,83.8,3.9c31.1-0.1,62-4.4,92.9-7.7c26.5-2.9,53.5-3.2,79.5,3.1
			c12.5,2.9,24.6,7,36.5,11.8c1,0.6,2.6,0.6,3.2,1.8c-1.7,8.8-3.9,17.5-6.3,26.2c-26.9-15.9-58-23.4-88.8-26.9
			c-17.6-2-35.3-1.7-53-0.4c-40.7,2.5-81.3,5.4-122.1,5.8c-23,0.2-46.2-0.4-69-3.8c-11.2-1.8-22.6-4-32.9-9
			c-5.2-2.7-10.7-6.4-12.4-12.3c-1.6-5.8,1.3-11.6,4.8-16.2c6.2-7.9,14.3-13.9,22.6-19.4c-15.9,5.8-30.7,14.5-43.5,25.5
			c-6.8,6.2-13.8,13.3-16.3,22.4c-1.7,5.2,1.2,10.5,5.2,13.7c8.2,6.9,18.8,10.1,29,12.8c23.1,5.6,46.8,7.3,70.5,8.3
			c21.7,0.7,43.3,0.7,65-0.6c31.4-1.8,62.6-5.3,94-6.1c28.2-0.7,56.8,1.2,84.1,8.5c19.2,5.1,37.6,13,54.7,23.2
			c-4,11-8.4,22-13.5,32.5c-13.2-9-26.8-17.4-41.4-24c-26.2-12.1-54.8-18.6-83.6-20.9c-76-5.9-151.2,12.1-227.1,10.1
			c-15.8-0.5-31.8-1.6-47-6.5c-9.6-3.2-19.8-7.9-24.9-17.2c-4.2-7.9-1.5-17.4,3.3-24.3c8-11.9,19.7-20.7,31.5-28.4
			c-9.7,4.5-18.8,10.3-27.9,15.9c-14.3,9.1-28.4,18.8-39.8,31.4c-5.5,6.3-10.9,13.9-10.8,22.7c0.1,7.1,5.3,12.9,11.1,16.4
			c11,6.7,24,9.1,36.6,10.9c39.1,4.9,78.6,4.6,117.8,1.6c42.3-3.1,84.5-8.7,127-9.2c32.9-0.4,66.3,2.7,97.3,14.1
			c22.9,8.3,44,21.3,62,37.6c-7.9,13.7-16.9,26.7-26.5,39.3c-12-13.7-24.8-26.9-39.3-38c-14.3-11.1-30.2-20.1-47.4-25.6
			c-19.3-6.3-39.8-8.3-60.1-8.3c-75.8,0.2-149.4,22.4-225,24.9c-19.4,0.6-38.9-0.3-58.1-2.8c-13.9-2-27.9-4.9-40.8-10.8
			c-7.9-3.8-15.9-9.2-19.6-17.5c-3.3-7.6-1.4-16.4,2.5-23.4c6.1-11.1,15.6-19.8,25.3-27.6c14.4-11.4,30.5-20.6,46.7-29.3
			c20.9-11.4,41.7-23,61-37c9.8-7.4,19.9-15.3,26.2-26c3.4-5.5,3.5-13.1-0.9-18.1c-6.7-7.6-17-10.5-26.4-13.3
			c-7-18.9-14.3-37.8-21.6-56.5c14.6-9.8,32.6-12.2,49.8-13.5c30.6-2.1,61.4,0.3,91.9-3.5c17.7-2.3,35.8-6.9,50.2-17.9
			c10-7.4,19.2-17.1,22.4-29.5c3.7-14.5,1.9-29.7,3.2-44.5C605.1,264.9,611.6,247.4,620.2,231.3z"/>
		<path class="st2" d="M125.5,326.6c28.2-65.5,75.6-122.4,134.8-162.1c52,90.4,96,185.1,139.3,279.8c4.6,7.9,11.5,15.9,10.3,25.7
			c-1.5,8-9.3,12.4-16,15.8c-13.4,6.3-27.5,11.2-41.4,16.1c-6-17.1-12.4-34.2-18.6-51.3c-15.3,0.1-30.5,0.4-45.8,0.6
			c-9.1-32.6-18.4-65.1-27.6-97.7c-0.6-3.1-0.2-6.2-0.3-9.2c11.3,0,22.5,0,33.8,0c0-1.5,0.1-3.1,0.1-4.6
			c-11.2-6.1-22.7-11.6-34-17.6c0.1-4.7,0.1-9.3,0-14c11.3-0.2,22.6,0,33.9-0.1c0-1.6,0-3.3,0-4.9c-11.7-6-23.5-11.9-35.1-18
			c-5.8-11.1-10.6-22.7-16.6-33.8c-5.4,11.3-10.6,22.7-16.3,33.8c-11.6,6.1-23.4,12-35.1,18c0,1.6,0,3.2,0,4.9
			c11.3,0,22.6-0.1,33.9,0c0,4.7,0,9.4,0,14.1c-11.2,5.8-22.4,11.6-33.8,17.2c-0.1,1.7-0.1,3.3-0.1,5c11.3,0,22.6,0,33.9,0
			c-0.1,3.3,0.4,6.7-0.5,9.9c-9.3,32.7-18.5,65.5-27.8,98.2c-27.9,0.4-55.7,0.8-83.6,1.1c19.4,7.5,39.2,14.4,58.7,21.7
			c12.4,33.5,24.9,67,37.3,100.6c-12.4,13.2-22.1,29-27.8,46.3c-9.3,28-8.2,58.4-2.5,87c-9.2-10.6-17.2-22.3-24.8-34
			c-21.5-33.5-37.6-70.5-47.3-109.1C86.4,487.1,92.9,401.5,125.5,326.6z"/>
		<path class="st2" d="M242.4,263.3c3.5,6.6,6.9,13.4,9.7,20.3c-6.4,0-12.8,0-19.2,0C235.8,276.7,239.3,270.1,242.4,263.3z"/>
		<path class="st2" d="M231.7,290.5c7.2,0,14.5,0,21.7,0c0,4.1,0,8.2,0,12.3c-7.2,0.1-14.4,0-21.6,0.1
			C231.5,298.7,231.7,294.6,231.7,290.5z"/>
		<path class="st2" d="M205.1,302.8c6.5-3.7,13.1-7.3,19.6-10.9c0,3.6,0,7.3,0,10.9C218.2,302.8,211.7,302.8,205.1,302.8z"/>
		<path class="st2" d="M260.3,291.9c6.6,3.6,13.2,7.2,19.7,10.9c-6.6,0-13.1,0-19.7,0C260.3,299.2,260.3,295.5,260.3,291.9z"/>
		<path class="st2" d="M231.5,308c7.3,0,14.6-0.1,21.9,0c-3.5,4-7.3,7.7-10.8,11.7C238.8,316,235.2,312,231.5,308z"/>
		<path class="st2" d="M231.7,316c2.6,2.4,4.9,5,7.3,7.6c-2.4,2.5-4.7,5.1-7.2,7.5C231.6,326.1,231.7,321.1,231.7,316z"/>
		<path class="st2" d="M246.1,323.7c2.3-2.7,4.7-5.3,7.3-7.7c0,5.1,0,10.2,0,15.2C250.8,328.8,248.5,326.1,246.1,323.7z"/>
		<path class="st2" d="M231.6,339.1c3.6-4,7.2-8,11-11.7c3.5,4,7.3,7.7,10.8,11.7C246.2,339.2,238.9,339.2,231.6,339.1z"/>
		<path class="st2" d="M205.5,339c6.3-3.9,12.8-7.2,19.2-10.8c0,3.6,0,7.3,0,10.9C218.3,339.1,211.9,339.3,205.5,339z"/>
		<path class="st2" d="M260.3,328.2c6.4,3.7,13,6.9,19.2,10.8c-6.4,0.3-12.8,0.1-19.2,0.1C260.3,335.5,260.3,331.8,260.3,328.2z"/>
		<path class="st2" d="M231.6,344.5c7.2-0.4,14.5-0.1,21.8-0.1c0,3.1,0,6.2,0,9.3c-3.5,3.7-7.3,7.2-10.8,10.9
			c-3.7-3.4-7.2-7.1-10.8-10.6C231.6,350.8,231.7,347.7,231.6,344.5z"/>
		<path class="st2" d="M230.3,364.5c2.1,2,4.2,4.1,6.2,6.2c-3.8,3.7-7.3,7.5-11.1,11.1C227.1,376.1,228.7,370.3,230.3,364.5z"/>
		<path class="st2" d="M248.6,370.5c2.1-2,4.1-4,6.1-6c1.6,5.8,3.3,11.6,4.9,17.4C255.9,378,252,374.5,248.6,370.5z"/>
		<path class="st2" d="M242.4,376.7c6,5.6,11.6,11.6,17.5,17.4c-5.9,4.8-11.4,10.4-17.6,14.7c-5.8-4.8-11.4-9.8-17.1-14.7
			C230.9,388.3,236.7,382.6,242.4,376.7z"/>
		<path class="st2" d="M220.1,400.9c5.3,4.6,10.7,9.1,15.9,13.9c-8.8,7.4-17.3,15-26.1,22.4C213.2,425,216.7,413,220.1,400.9z"/>
		<path class="st2" d="M249,414.5c5.4-4.4,10.5-9.3,15.9-13.6c3.4,12,6.9,24,10.1,36.1C266.4,429.6,257.6,422.2,249,414.5z"/>
		<path class="st2" d="M242.4,420.3c10.7,9.1,21.2,18.4,31.8,27.5c1.4,1.1,2.7,2.3,3.8,3.6c-24.1,0.3-48.1,0.7-72.2,0.9
			C217.7,441.3,230.3,431.1,242.4,420.3z"/>
		<path class="st2" d="M289.1,470.4c8.7-0.5,17.4-0.7,26.1-1.3c4.9,11.5,8.8,23.4,13.7,34.9c6.8,7.5,14,14.7,20.9,22.2
			c-8.3-6.2-15.9-13.7-25.9-17.2c-6.7-2.5-14.1-1.9-21.1-1.2C298.3,495.3,293.7,482.8,289.1,470.4z"/>
		<path class="st2" d="M249.5,472.2c10.1-0.5,20.2-1,30.4-1.4c4.8,12.7,9.3,25.5,14.2,38.1c9.7,10.2,20,19.9,29.8,30
			c-10.7-7.6-20.6-16.7-32.5-22.4c-8.2-3.9-17.5-3.7-26.4-3.2C259.8,499.7,254.6,486,249.5,472.2z"/>
		<path class="st2" d="M204.6,474.3c11.2-0.5,22.3-1.1,33.5-1.6c5.3,14,10.3,28.3,15.7,42.3c11.8,12.5,24,24.6,36,36.9
			c-10.4-7.4-19.6-16.6-30.7-23.1c-11.3-7.1-24.9-10.3-38.2-9C215.5,504.7,210,489.5,204.6,474.3z"/>
		<path class="st2" d="M662.1,701.8c5.2-5.2,10.6-10.2,15.9-15.2c17,17.8,34,35.7,51,53.5c-5.1,5.1-10.5,9.9-15.6,15.1
			C696,737.7,679.3,719.5,662.1,701.8z"/>
		<path class="st2" d="M259.2,690.1c7.3,5.7,14.5,11.4,21.6,17.1c-0.3,11.6-0.5,23.2-0.7,34.8c11.3-4.6,22.6-9.3,33.9-13.8
			c6.2,4.6,12.6,9,18.7,13.8c-18,7-36.1,13.7-54,20.7c-5.8,7.5-11,15.4-16.6,23c-6.2-4.3-12.3-8.8-18.6-13
			c5.1-7.6,10.8-14.8,15.7-22.5C259.3,730.1,259.2,710.1,259.2,690.1z"/>
		<path class="st2" d="M616.7,706.6c6.2-4.1,12.6-8.1,18.9-12.1c-2.1,7.5-4.4,15-6.8,22.4c-4.2,3.3-8.9,5.9-13.3,8.8
			C615.9,719.3,616.4,712.9,616.7,706.6z"/>
		<g>
			<path class="st2" d="M635.6,720.2c18.8,12.2,37.3,24.8,56,37.2c3.5,2.4,7.2,4.6,10.6,7.3c-6.1,4.8-12,9.8-18.2,14.5
				c-4.7-3.6-9.5-7-14.3-10.5c-9.5,6.1-18.9,12.2-28.4,18.4c0.9,5.4,1.7,10.8,2.7,16.2c-6.8,3.7-13.6,7.1-20.5,10.6
				c-3.8-25.6-7.4-51.3-11.2-76.9C620,731.1,627.9,725.8,635.6,720.2z M634.2,742.9c1.3,8.1,2.6,16.1,3.9,24.2
				c5.3-3.4,10.5-6.7,15.8-10.1C647.3,752.3,641.1,747,634.2,742.9z"/>
		</g>
		<path class="st2" d="M367.5,729.6c1.1-0.9,2.4-0.1,3.5,0.2c4.8,1.6,9.5,3.3,14.4,4.9c2.7,6.1,5.1,12.4,7.7,18.5
			c-4.5-1.5-9.1-3-13.6-4.6c-1.5-3.4-3.1-6.7-4.6-10c-3.6,1.6-7.1,3.4-10.7,5c-4-1.5-8-2.7-12-4.1c0-0.2,0.1-0.6,0.1-0.8
			C357.3,735.5,362.4,732.6,367.5,729.6z"/>
		<path class="st2" d="M315.1,815.9c8.3-24,16.1-48.2,24.6-72.2c20.8,7,41.5,13.9,62.3,20.8c-1.6,5.8-3.7,11.4-5.6,17
			c-14.5-4.9-28.9-10.2-43.6-14.8c-1.2,3.7-2.5,7.3-3.7,11c14,4.8,28.1,9.7,42.1,14.5c-1.6,5.2-3.4,10.4-5.3,15.5
			c-14-4.8-28.1-9.8-42.2-14.4c-1.1,3.9-2.5,7.8-3.4,11.8c15.7,5.3,31.3,10.7,46.9,16c-1.9,5.7-3.9,11.3-5.7,17
			C359.4,830.9,337.2,823.4,315.1,815.9z"/>
		<g>
			<path class="st2" d="M559,758.3c9.3-2.4,19.5-3.5,28.7,0c11.6,4.2,14.5,22.9,3.7,29.6c4.7-0.2,9.8,1.1,12.8,5
				c4.5,6,7.1,14.6,3.1,21.5c-4.6,8.1-13.7,12.1-22.2,14.8c-14.4,4.1-28.9,7.9-43.3,11.9c-7-24-13.8-48-20.7-72
				C533.7,765.5,546.3,761.9,559,758.3z M545.6,780.2c1.1,3.6,2.3,7.2,3.4,10.8c6.4-1.9,12.8-3.5,19.1-5.7c3-1.1,6.7-3.6,5.6-7.3
				c-0.4-2.8-3.2-4.7-5.9-3.9C560.3,775.6,553,778.3,545.6,780.2z M572.6,802.4c-6.1,1.7-12.2,3.5-18.3,5.3
				c1.2,3.8,2.4,7.6,3.6,11.4c5.3-1.5,10.7-3.1,16-4.6c3-0.9,6.1-1.8,8.3-4.2c2.1-2.3,0.8-6.2-1.6-7.7
				C578.1,801.1,575.2,801.8,572.6,802.4z"/>
		</g>
		<path class="st2" d="M409.4,844.2c1.1-25.6,2.3-51.1,3.3-76.7c10.7,1.1,21.4,2.5,32.1,3.8c8.4,16.9,16.5,34,25,50.9
			c1-16.3,1.4-32.7,2.2-49c7,0,14,0,21,0c-0.5,24.9-1.2,49.9-1.9,74.8c-11.1-0.3-22.1-0.6-33.2-0.8c-5.6-12.4-11.2-24.8-16.9-37.2
			c-2.6-5.3-4.6-11-7.7-16.2c-0.5,17.6-1,35.2-1.5,52.8C424.4,845.8,416.9,844.9,409.4,844.2z"/>
	</g>
</g>
<g>
	<path class="st3" d="M235,942.1"/>
</g>
</svg>
