<?xml version="1.0" encoding="utf-8"?>
<!-- Generator: Adobe Illustrator 24.2.0, SVG Export Plug-In . SVG Version: 6.00 Build 0)  -->
<svg version="1.1" id="Layer_1" xmlns="http://www.w3.org/2000/svg" xmlns:xlink="http://www.w3.org/1999/xlink" x="0px" y="0px"
	 viewBox="0 0 1250 1250" style="enable-background:new 0 0 1250 1250;" xml:space="preserve">
<style type="text/css">
	.st0{fill:#FFFFFF;}
	.st1{fill:#DA251C;}
	.st2{fill:#007B3D;}
	.st3{fill:#0064A8;}
	.st4{fill:#936072;}
	.st5{fill:#9389A0;}
	.st6{fill:#776986;}
</style>
<g>
	<g>
		<g>
			<path class="st0" d="M588.6,6.9c88.7-5.3,178.6,8.8,261.3,41.3c106.2,41.5,200.2,113.1,268.9,204
				c43.9,57.9,77.6,123.6,98.7,193.2c26,85.4,33,176.5,20.7,264.9c-10.4,75.2-35,148.4-72,214.7c-31.7,56.9-72.4,108.7-120.1,153.1
				c-47.3,44-101.5,80.7-160.1,108.1c-74.1,34.8-155.3,54.4-237.1,57.5c-84.3,3.3-169.3-10.8-247.9-41.5
				c-68.6-26.7-132.3-65.9-187.3-114.9c-44-39.2-82.4-84.5-113.7-134.4c-40-63.7-68.3-134.8-82.8-208.7
				C-0.1,655.4,2.3,562.8,24.3,475c15.8-63,41.7-123.5,76.3-178.4c35.1-55.9,79.2-106.1,130-148.2c50.5-41.9,107.7-75.8,168.8-99.8
				C459.7,24.7,523.9,10.7,588.6,6.9z M583.7,12.9c-45,3-89.6,11-132.8,23.9C388.5,55.3,329.3,83.9,276,121
				c-54.2,37.7-102.4,84.1-142,137c-39.4,52.6-70.4,111.5-91.2,173.8C13.2,520.3,4.5,615.6,17.1,708c10.4,77,35.9,152,74.5,219.5
				c29.1,51.1,65.7,98,108,138.9c54.5,52.6,118.8,95.1,188.7,124.5c77.1,32.5,161,48.7,244.7,47.6c84.5-1,168.6-19.8,245.5-54.9
				c59.7-27.2,115-64.2,163.1-108.8c46.1-42.8,85.7-92.6,116.8-147.2c38.2-67,63.6-141.2,74.2-217.6c12.3-88.1,5.3-178.8-20.8-263.8
				c-21-68.5-54.2-133.2-97.4-190.3c-68.3-90.4-161.8-161.5-267.4-202.6C763.6,20.5,673,6.9,583.7,12.9z"/>
		</g>
		<g>
			<path class="st0" d="M456.1,38.9c85.1-24.7,175.6-30.2,263.1-16.6c78.9,12.3,155.2,40.5,223.3,82.2
				c85.3,52.2,157.5,125.6,208.3,211.8c39.6,67,66.2,141.8,77.5,218.8c16.1,107.6,2.8,219.4-38.6,320c-58.4,0.5-116.8,1-175.2,1.5
				c37.1-61.2,59.4-131.3,64.5-202.7c5.8-77.6-8.7-156.6-41.8-227.1c-24.3-52-58.6-99.3-100.2-138.8
				c-47.5-45.1-104.7-80-166.7-101.3c-69.7-24.1-145.3-30.7-218.3-19.5c-39.8,6.1-78.8,17.5-115.6,33.9
				c-52.5,23.3-100.4,56.6-140.8,97.4c-64.5,65.1-109,149.7-125.2,239.9c-13.8,75.6-8.2,154.8,16.4,227.6
				c10.5,31.2,24.4,61.2,41.3,89.4c-55.8,0.3-111.6,1-167.4,1c-3.8-10.5-8.2-20.8-11.7-31.4C19.5,741.2,9.1,650.5,18.3,561.9
				c5.2-50.5,16.8-100.3,34.5-148c22-59.3,53.3-115.1,92.4-164.8c39.2-49.9,86.1-93.7,138.6-129.3C336.5,84.1,394.9,56.6,456.1,38.9
				z M613.8,63.3c-0.4,24.7-0.9,49.4-1.3,74.2c6.8,0.1,13.7,0.2,20.5,0.4c0.3-10.2,0.4-20.3,0.6-30.5c8.4,0.1,16.8,0.3,25.3,0.4
				c-0.1,10.2-0.5,20.4-0.5,30.6c6.8,0,13.7,0.2,20.5,0.3c0.5-24.7,0.9-49.5,1.4-74.2c-6.9-0.1-13.8-0.3-20.7-0.3
				c0,9.8-0.3,19.6-0.5,29.4c-8.3-0.1-16.7-0.3-25-0.4c0.1-9.8,0.3-19.6,0.5-29.5C627.6,63.6,620.7,63.4,613.8,63.3z M536.3,70
				c2.9,24.6,6.1,49.1,8.9,73.6c6.9-0.6,13.8-1.7,20.7-2.4c-2.8-24.6-6.1-49.1-8.8-73.6C550,68.2,543.1,69.2,536.3,70z M724.5,73.8
				c-8.2,1.8-14.7,7.9-19.2,14.8c-6.5,10.5-9.2,23.6-6.5,35.7c2.6,10.6,11.1,19,21,23c8.9,3.5,19,5.4,28.4,3.1
				c10.8-2.6,19.4-11.3,23.4-21.5c2.7-6.9,4.1-14.3,3.9-21.7c-0.3-11.3-6.8-22.4-16.9-27.7C748.4,73.8,736.1,71.5,724.5,73.8z
				 M465.2,86.5c-3.1,26.4-6.1,52.9-9.1,79.3c6.6-1.7,13.1-3.6,19.8-5.2c0.7-5.1,0.7-10.3,1.1-15.4c9.7-2.6,19.4-5.2,29.1-7.8
				c2.8,4.2,5.7,8.3,8.4,12.5c7.6-1.5,14.9-3.9,22.4-5.8c-15.6-21.4-31.6-42.6-47.2-64.1C481.4,81.9,473.4,84.4,465.2,86.5z
				 M793.9,111.1c-7.1,10.8-12.6,23.7-11,36.9c1,9.1,6.6,17.4,14.5,21.8c10.1,5.9,22,10,33.8,7.9c7.7-1.4,13.7-7.3,16.8-14.3
				c-6.5-3.1-13.4-5.3-20-8c-1.8,2.6-3.8,5.4-7,6.1c-3.6,0.7-7.4-0.2-10.8-1.5c-4.1-1.6-6.8-5.8-7-10.1c-0.5-7.3,2.2-14.3,5-20.8
				c2.2-4.5,4.6-9.3,8.5-12.6c8.5-6.7,24.3,2.2,20.9,13.3c6.8,2.4,13.4,5.3,20.3,7.6c3-8.5,1.4-18.8-5.7-24.8
				c-8.1-7.3-18.4-12.1-29.2-13.8C812.1,97.4,800,101.6,793.9,111.1z M385.3,117.4c-10.5,4.5-20.9,9.3-31.4,13.9
				c4.3,10,8.8,19.9,13.2,29.9c-2.2,1.1-4.4,2.1-6.6,3c0.9,2.6,2.1,5.1,3.3,7.7c2.3-1.1,4.5-2.1,6.9-2.8
				c4.3,10.1,8.9,20.1,13.3,30.2c10.2-4.5,20.4-9,30.6-13.6c9.5-4.3,18.3-11,23.6-20.2c4.5-8.1,3.5-18.2-0.2-26.4
				c-4.3-9.8-10.8-19.7-21-23.9C406.8,110.9,395.2,113.4,385.3,117.4z M908.6,156c6,4.4,12.4,8.4,18.3,13
				c-10.9,16.3-22.7,32.2-33.7,48.5l0,0.6c5.5,4.1,11.1,7.9,16.7,11.7c11.3-16.4,22.8-32.6,34.2-48.9c6.4,4.3,12.5,9,19,13.1
				c3-3.7,5.5-7.8,8.3-11.7c-18.2-12.7-36.3-25.5-54.5-38.2C914.1,148.1,911.4,152.1,908.6,156z M714.2,149.8
				c-1.1,4.8-2.2,9.6-3.3,14.3c5.7,1.3,11.3,2.7,17,3.9c1.1-4.7,2.1-9.5,3.3-14.2C725.6,152.4,719.8,151.2,714.2,149.8z
				 M488.7,161.8c1.5,4.6,2.5,9.3,3.9,14c5.6-1.6,11.2-3,16.8-4.5c-1.3-4.7-2.5-9.5-3.9-14.2C499.9,158.8,494.2,159.9,488.7,161.8z
				 M282,180c-6,3.2-11.5,7.2-16.5,11.7c-6.7,6-12.2,14.2-12.6,23.5c-0.5,15.2,7.9,30.3,20.7,38.4c8.2,5.5,19,6.9,28.5,4
				c6.8-1.9,12.7-5.9,17.9-10.6c8.1-7,15.6-14.8,22.7-22.8c-8-10.4-16.2-20.6-24.1-31.1c-9.7,7-18.9,14.6-28.4,21.9
				c3,3.7,5.7,7.6,8.8,11.1c4.2-2.7,7.8-6.1,11.9-9c2.8,3.5,5.4,7.1,8.3,10.5c-2.7,3.8-6.2,7-10.1,9.6c-5.5,3.6-12.8,4.5-18.8,1.8
				c-7.1-2.9-11.7-9.5-15.1-16.1c-3.1-6.2-4.6-14.5,0.2-20.3c3.5-3.9,8.3-7.5,13.7-7.6c2.7-0.1,4.5,2,6.8,2.9
				c5.4-4,10.7-8.2,16-12.5c-3.3-3.8-7.2-7.5-12.2-8.7C293.6,175.3,287.4,177.3,282,180z M1002,198.8c2.9,3.2,6.3,6,9.4,9
				c3.6-0.2,7.2-0.4,10.8-0.5c0.1,3.7,0.1,7.3,0.3,11c3.4,2.8,6.3,6.2,9.8,8.8c0.3-6.3,0.8-12.7,1.2-19c-4.3-4-8.5-7.9-12.7-11.9
				C1014.5,197,1008.3,197.9,1002,198.8z M930.5,244.1c4.9,4.8,10,9.3,14.9,14.1c4.6-2.2,9-5,13.7-7.2c7.2,6.9,14.6,13.6,21.9,20.5
				c-2,4.6-4,9.3-6.2,13.9c5.5,5.4,11.1,10.7,17,15.8c9.5-24.8,19.5-49.4,29.2-74.1c-6-5.7-12.2-11.3-18.2-17.1
				C978.5,221.1,954.5,232.7,930.5,244.1z M211,246c13.8,12.1,27.9,23.9,41.4,36.3c-18.9-5.5-37.7-11.4-56.5-17
				c-1.4-0.8-2.3,0.7-3.1,1.5c-5.7,6.7-11.6,13.2-17.2,20c18.8,16.1,37.3,32.5,56,48.6c4-4.8,8.2-9.4,12.2-14.1
				c-13.2-11.4-26.2-23-39.4-34.5c-0.9-0.8-1.8-1.7-2.6-2.7c19.4,6.1,38.9,12,58.3,18.2c6.6-7,12.6-14.4,19-21.5
				c-18.5-16.4-37.3-32.3-55.7-48.8C219,236.5,215.1,241.3,211,246z M1053.2,259.3c-6.7,15.9-13.5,31.8-20.2,47.8
				c-0.5,1.1-0.8,2.3-1.8,3.2c-6.9,5.5-14.5,10.1-21.2,15.8c3.8,5.5,7.7,11,11.9,16.3c6.8-5,13.7-10,20.6-15c1.3-1.1,3-1,4.5-1.1
				c17.3-1.2,34.7-2.5,52-3.7c-4.2-5.8-8.3-11.7-12.7-17.3c-11.5,1.7-23,3.1-34.6,4.6c4.7-10.7,10.5-20.9,15.3-31.5
				C1062.4,272.1,1057.9,265.6,1053.2,259.3z M151.4,310.3c-2.4,1.7-3.3,5.1-2.3,7.8c1.1,2.5,3.9,3.3,6.3,4
				c-2.2,2.3-4.9,3.9-7.2,6.1c-5.8,5.5-9.8,12.5-12.7,19.9c-2.7,7-3.6,15-0.8,22.1c4.1,11,13.4,19.2,23.8,24.2
				c7.1,3,15,5.1,22.7,3.4c11.7-2.1,20.9-11.1,26.3-21.3c5.6-9.5,7.8-21.8,3-32.1c-4-9.7-12.5-16.7-21.8-21.1
				c-8.1-4.2-17.8-5.8-26.7-3.4c0.4-1.6,1-3.2,0.9-4.9C162.8,309.7,155.3,306.8,151.4,310.3z M123.1,328c-3.4,6.1-7,12.1-10.3,18.3
				c7.5-3.2,15.2-6.2,22.5-9.9c2.2-3.3,4-6.9,6-10.3C135.2,326.8,129.2,327.4,123.1,328z M1058.9,403c5.1,10.7,10,21.5,15,32.2
				c3.1,6.2,6.9,12.4,12.9,16.1c8,5.1,19.3,1.7,24.6-5.8c3.5-5.1,2.7-11.7,1.7-17.5c3.1,3.8,7,7.5,12,8.6c9.7,2,20.6-6.4,19.8-16.6
				c-0.5-6.7-2.4-13.3-5.2-19.4c-4.5-9.7-9-19.3-13.5-29C1103.8,382.1,1081.3,392.3,1058.9,403z M106,382.8
				c-3.1,2.2-2.8,7.1-0.4,9.8c1.7,1.9,4.4,1.6,6.5,2.5c-2,5.7-4.8,11.1-6.4,16.9c13.5,5.3,26.8,10.9,40.3,16.2
				c4.5,1.8,9.1,4.3,11.3,8.8c2.7,5.9,0.2,12.9-3.9,17.4c-4.2,4.7-11.4,4.5-16.8,2.3c-14.1-5.6-28.1-11.5-42.3-17
				c-2.3,6.4-5.3,12.6-7.4,19.1c13.9,5.5,27.7,11.2,41.6,16.8c5.8,2.6,12.3,3.8,18.5,2.1c9.7-2.5,17.2-10.3,21.5-19.2
				c4.1-8.5,7-18.1,5.5-27.6c-1.4-9.1-8.2-16.7-16.5-20.3c-12.5-5.2-25.1-10.2-37.7-15.5c-0.1-4.2,0-9.3-3.7-12.1
				C113.1,381.2,108.9,380.5,106,382.8z M1178.8,468.8c-5.2,7.7-6.3,18.7-1.2,26.7c4.5,6.1,12.4,9.4,19.9,8.2
				c-1.3-4.4-2.5-8.9-3.7-13.3c-7.9,1.6-10.9-11.7-3.6-14.2c-1-4.4-1.9-8.7-2.8-13.1C1184.2,464.3,1180.7,465.7,1178.8,468.8z
				 M1087.3,465.3c1.7,6.7,3.2,13.5,5.1,20.1c5,0.2,10,0.7,15,1.1c2.4,9.8,5,19.5,7.2,29.3c-4.3,2.6-8.5,5.5-12.8,8.2
				c1.8,7.4,3.7,14.7,5.4,22.1c4.1-2.4,7.8-5.4,11.8-8.1c17.8-12.7,35.6-25.3,53.3-38c-2-8.1-4-16.3-6.1-24.4
				C1140,472.4,1113.6,468.8,1087.3,465.3z M83.8,491.7c-5.3,5.9-8,13.7-9.8,21.4c-2.3,11.1-4.4,22.3-6.6,33.5
				c24.3,4.7,48.6,9.6,72.9,14.2c1.1-6.8,2.8-13.5,3.8-20.4c-9.2-1.6-18.3-3.6-27.5-5.3c0.9-4.7,1.6-9.5,3.6-13.9
				c0.8-1.9,2.9-3.1,4.9-3c7.7,0.1,15.3,1.4,23,1c2.1-7,2.9-14.6,4.6-21.9c-10.5,2-21.3-1.5-31.6,1.2c-5.4,1.4-6.8,7.3-8.5,11.8
				c0.6-7.2-1.4-15.7-8-19.7C98.3,486.9,89.2,486.2,83.8,491.7z M1182.8,504.5c1,3.9,2,7.9,2.9,11.8c6.9,4.7,13.8,9.5,20.8,14.2
				c-1.5-6.4-3.1-12.8-4.8-19.1C1195.4,509.1,1189.2,506.7,1182.8,504.5z M1119.5,557.5c-6.4,4.9-10.3,12.7-10.9,20.7
				c-0.9,11.4,0.5,23.7,7.1,33.3c4.6,6.7,12.9,10.2,21,9.5c-0.6-7.1-1.2-14.3-1.9-21.4c-2.9-0.5-6.1-0.9-8.2-3.1
				c-2.5-2.8-3.3-6.7-3.8-10.3c-0.5-4.5,2.1-9,6.1-11.2c6.4-3.6,13.9-4.3,21.1-4.5c5.1,0,10.6,0.1,15.3,2.5c9.3,5.1,8,22.5-3.2,24.2
				c0.6,7.2,1.2,14.4,1.8,21.5c7.6-0.7,15.2-4.9,18.4-12.1c4.2-9.5,4.3-20.3,2.6-30.4c-1.6-9.5-7-18.6-15.6-23.4
				c-7.4-4-16.1-4.1-24.3-3.7C1136,549.2,1126.8,551.9,1119.5,557.5z M67.3,553c-1.9,22.1-3.9,44.1-5.8,66.2
				c4.8,0.4,9.6,0.9,14.4,1.2c0.7-7.5,1.3-15,2-22.5c19.8,1.7,39.5,3.7,59.3,5.1c1-6.7,1.2-13.6,2-20.4c-19.8-2-39.7-3.5-59.6-5.4
				c0.6-7.7,1.4-15.4,2-23.2C76.9,553.9,72.1,553.3,67.3,553z M1125.1,703.9c-0.3,10.1-0.1,20.3-0.1,30.4c12,0,24,0.1,36.1,0.1
				c0-9.9,0.1-19.8-0.1-29.7c-6.4,7.8-11.8,16.3-17.8,24.3C1137.2,720.7,1131.1,712.3,1125.1,703.9z M127.6,706
				c-5.9,8.2-11.8,16.4-17.7,24.7c-6.3-8-11.6-16.8-18.2-24.6c-0.1,10,0,20,0,29.9c12,0,24,0.1,36,0.1
				C127.6,726,127.9,716,127.6,706z M1087.7,735.1c10.3,6,21.1,11.1,31.5,16.9c-10.4,5.5-21.1,10.5-31.3,16.3
				c12.3,0.2,24.7,0,37.1,0c0.1,10.3-0.1,20.7,0.1,31c6.2-8,12-16.2,18.1-24.2c6,8.1,11.8,16.3,17.8,24.3c0.2-10.4,0-20.8,0.1-31.2
				c12.5-0.1,24.9,0,37.4-0.2c-10.5-5.5-21.2-10.8-31.7-16.2c10.1-6,20.9-10.6,31.1-16.5c-12.3-0.1-24.5-0.1-36.7-0.2
				c0,10.8,0,21.5,0,32.3c-12,0-24,0.1-36,0.1c0-10.8,0-21.7,0-32.5C1112.6,735.1,1100.1,734.8,1087.7,735.1z M54,736.5
				c10.5,6,21.5,11.2,32,17.1c-10.6,5.3-21.2,10.8-31.8,16.3c12.5,0,24.9,0.1,37.4-0.1c0.4,10.3,0,20.6,0.3,31
				c6.2-7.8,12-15.9,17.8-23.9c6.7,7.5,11.9,16.3,18.2,24.1c0-10.4,0-20.8,0-31.2c12.5,0,25-0.1,37.5-0.1
				c-10.2-5.6-20.8-10.5-31-15.9c0-0.3,0.1-0.8,0.2-1c9.8-5.5,20.1-10,29.7-15.8c-12.1-0.3-24.2-0.1-36.4-0.2c0,10.8,0,21.5,0,32.2
				c-12,0.1-24,0.1-36,0.2c-0.1-10.9,0.1-21.7-0.1-32.6C79.1,736.7,66.5,736.6,54,736.5z"/>
		</g>
		<path class="st0" d="M733.5,88.6c7.9-2.8,18.4,1.9,20.3,10.5c1.8,7.7,0,15.8-2.5,23.1c-2.2,6-6.4,12.4-13.1,13.8
			c-6.7,1-14.9-1.6-17.5-8.4c-3.4-9-0.9-18.8,2.4-27.5C725,95.3,728.2,90.3,733.5,88.6z"/>
		<path class="st0" d="M480.1,97.2c6,9,11.6,18.4,17.4,27.6c-6.4,1.7-12.7,3.4-19.1,5.1C479,119,479.3,108.1,480.1,97.2z"/>
		<path class="st0" d="M379,136.1c6.6-3,13.4-7.1,21-5.6c16.4,2.1,25,25.3,13.9,37.5c-4.4,4.9-11,6.6-16.8,9.5
			c-2.5-5.7-5.1-11.4-7.6-17.2c2.1-1.1,4.7-1.6,6.5-3.2c-0.8-2.5-2.1-4.9-3.1-7.3c-2.3,1-4.5,2-6.8,3
			C383.9,147.2,380.9,141.8,379,136.1z"/>
		<path class="st0" d="M972.7,244c9.5-5.3,19-10.7,28.6-15.9c-4.3,9.3-9,18.5-13.5,27.8c-0.4,1.8-2,0.8-2.6-0.1
			C981.1,251.9,976.8,248,972.7,244z"/>
		<path class="st0" d="M693.1,276.1c4.1-5.1,8.9-11,16-11.5c7.8-0.6,13.9,5.5,17.9,11.5c6.4,1,13.7,2.5,17.9,8
			c3.9,5.2,2.4,12.1,0.4,17.7c-1.8,6.1-5.5,11.3-8.2,17c4.9-5.1,9.5-10.6,15.1-14.9c4.2-3,9.8-5.3,15-3.4c6.4,2.4,10,8.6,12.9,14.4
			c6.7,1.9,14,5.5,16.3,12.6c2.1,7-1.6,14-5.9,19.4c0.9,6,1.7,12.6-1.3,18.1c-2.2,4.1-6.7,6.4-11.1,6.9c-6.7,0.8-13.5,0-20.1-1.4
			c-1.2-0.1-2.2-0.6-3.1-1.3h0.2c2.4,0,4.9-0.1,7.3-0.2c-8.6-5.1-17.7-9.3-26.5-14c-0.8-0.4-1.5-0.9-2-1.6
			c9.7-5.3,19.8-9.9,29.5-15.2c-11.8-0.1-23.5-0.1-35.3-0.1c0-9.8,0.1-19.6-0.1-29.4c-5.7,7.6-11.2,15.3-16.8,22.9
			c-5.7-7.7-11.3-15.4-17.1-23c0,9.8,0,19.6,0,29.4c-11.8,0-23.6-0.2-35.4,0c10,5.1,20,10.3,30,15.3c-9,4.9-18.1,9.7-27.3,14.3
			l-0.4,0.5c-0.9,0.7-1.9,1.4-2.9,2.1c-8,1.5-17.4,3.4-24.4-2c-6.2-5.3-5.4-14.2-4.3-21.4c-3.6-5.5-7.7-11.8-6-18.7
			c1.8-7.6,9.5-11.6,16.5-13.5c3-5.6,6.4-11.7,12.5-14.3c5.7-2.3,11.8,0.4,16.3,3.8c5.8,3.9,10.6,9.2,15.1,14.6
			c-3.2-7-7.9-13.4-10-20.8c-1.4-4.9-1.3-10.7,2.3-14.7C680.5,278.5,687.2,277.3,693.1,276.1z"/>
		<path class="st0" d="M694.3,338.3c11.3,0.1,22.6,0,33.8,0.2c-0.1,10.2,0,20.5,0,30.7c-11.3,0-22.5,0.1-33.8,0.1
			C694.3,359,694.3,348.7,694.3,338.3z"/>
		<path class="st0" d="M159.5,339.6c5.9-2.4,12.4-0.4,17.9,2.2c6.8,3.4,13.8,7.7,17.5,14.6c5.3,9.3-2.9,23.2-13.8,22.3
			c-8-0.3-15.3-4.4-21.5-9c-3.8-2.7-7.3-6.3-9-10.8C147.9,351.3,152.6,342.8,159.5,339.6z"/>
		<path class="st0" d="M665.4,369.6c9.6-0.2,19.2-0.1,28.8-0.1c0,9.8,0,19.5,0,29.3c5.8-7.8,11.3-16,17.3-23.7
			c5.4,7.9,11,15.6,16.6,23.3c0.1-9.7,0-19.4,0.1-29c8,0,16.1,0,24.1-0.1c8.6,5,19.5,7.5,25.3,16.2c3.7,5.3,1.9,12.4-1.8,17.3
			c-1.6,2.7-4.4,4.5-5.8,7.1c0,6.6-0.9,14.2-6.5,18.5c-5.9,4.6-14.2,3.3-20.7,0.8c-5.8,2.9-12.4,5.9-19,4.1
			c-5.7-1.6-8.9-7.2-10.5-12.5c-2.5-6.7-3-13.8-3.8-20.8c-1.9,10.3-1,22.6-9.1,30.5c-6.8,5.9-16.5,2.3-23.5-1.5
			c-6.5,2.3-14.4,3.8-20.4-0.5c-6-4.3-7.1-12.3-6.8-19.2c-4.1-4.3-8.5-9-9.6-15c-0.9-4.7,1.4-9.3,4.7-12.4
			C650.8,376.4,658,372.6,665.4,369.6z"/>
		<g>
			<path class="st0" d="M562.3,385.3c3.3-1.8,6.8-3.2,9.9-5.4c1.8,0.9,2.9,2.5,3.7,4.4c-15.3,37.7-26.1,77.9-26.2,118.8
				c-0.2,32.9,7.5,66.1,23.3,95c15.3,28.3,37.7,52.3,63.1,71.8c27.3,21,58,37.2,89.7,50.3c46.9,19.2,96.2,31.8,146,40.2
				c21.3,3.5,42.8,6.4,64.4,7.9c-0.1,1.9-0.1,3.8-0.1,5.7c-57.7,0-115.4,0-173.1,0c-74.4-0.1-148.7,0.3-223.1,0
				c-65.9,0-131.9,0-197.8,0c-1-1.2-2.9-2-2.9-3.8c-3.7-42.7,0-86.1,11.2-127.6c16.2-60.6,48.2-116.5,90.3-163
				C475.4,441.5,516.6,409.2,562.3,385.3z M527.6,514.1c-2.5,37.7,5.7,75.8,21.6,110c14.8,32.2,35.7,61.3,59.2,87.7
				c18.9,21.4,40,40.8,61.6,59.4c77.7-0.1,155.4,0,233,0c10.3-0.1,20.7,0.3,31-0.6c-17.1-0.5-34.1-3.1-51-5.5
				c-51.8-8-103.2-20.5-152-39.7c-32.8-13-64.5-29.2-92.8-50.3c-25.5-19-48.2-42.2-64.3-69.8c-16.5-27.9-25.5-59.9-26.7-92.2
				c-1.8-42.5,8.5-84.6,23.7-124C547.2,426.7,530.3,469.4,527.6,514.1z M546.4,397.4c-33.9,19.9-65.1,44.4-92.5,72.5
				c-44.9,46-79.8,102.4-98,164.2c-13.2,44.2-17.7,91-13.6,137c21.1,0,42.2,0,63.3,0c-8.5-44.4-10.5-90.3-3.6-135
				c5.3-34.3,15.8-67.8,31.2-98.9c15.4-31.3,35.6-60.2,59-86c19.9-22.1,42.2-41.9,65.7-60C553.9,392.9,550.2,395.2,546.4,397.4z
				 M549,403.3c-43.5,35-81.7,77.5-107.8,127c-18.3,34.4-30.5,72-35.9,110.6c-6.1,42.7-4,86.3,4,128.5c23.1,0,46.2-0.1,69.3-0.1
				c-16-41.9-26.5-86.3-27.4-131.2c-0.8-37,5.1-74.2,17.8-109c12.1-33.6,30.3-64.9,52.1-93C529.8,424.6,539.5,414.1,549,403.3z
				 M472.2,532.3c-12.8,36-18.4,74.6-16.7,112.8c1.9,43.3,12.4,86,28.3,126.2c22.6-0.2,45.2,0,67.7-0.1c-28.6-43.5-51-92-59.1-143.8
				c-7-43.5-2.8-88.6,11.6-130.2c10.5-31.2,26.5-60.1,44.9-87.3C515.7,445,488.4,486.4,472.2,532.3z M495.2,553.2
				c-5.2,40.9,0,82.8,13.1,121.7c11.1,33.7,27.9,65.3,47.2,95c35.7,0.3,71.4,0.1,107,0.1c-43.5-37.5-84-80.3-110.8-131.6
				C533,602.7,522,562.5,523.2,522c0.8-39.2,12.9-77.3,30.8-111.9C523.9,452.5,501.5,501.3,495.2,553.2z"/>
		</g>
		<path class="st0" d="M1108.3,402.8c4.5-2.1,9-4.3,13.6-6.3c1.8,4.6,4.6,8.8,5.7,13.6c1.5,6.5-8.4,10.9-12.5,5.9
			C1112,412.1,1110.6,407.2,1108.3,402.8z"/>
		<path class="st0" d="M1081,415.4c4.8-2.1,9.5-4.3,14.2-6.6c2.1,4,3.9,8.1,5.7,12.2c2.4,5.5-3.3,12-9,10.8c-3.8-0.6-5.6-4.3-7-7.4
			C1083.6,421.4,1082,418.5,1081,415.4z"/>
		<path class="st0" d="M1122.7,488.2c10.9,0.7,21.7,1.4,32.6,2.2c-9,6-18.5,11.5-27.9,16.8C1125.9,500.9,1124.3,494.6,1122.7,488.2z
			"/>
		<path class="st0" d="M90.4,512.5c3.7-5.3,13.1-2.5,14,3.6c0.8,5.4-1.2,10.8-2.1,16.1c-5.5-1.1-11.1-2.2-16.6-3.2
			C86.9,523.5,87,517.3,90.4,512.5z"/>
		<path class="st0" d="M331.4,797.4c6-7.1,15.5-10.5,24.6-10.3c192,0,384,0,576.1,0c6.3,0,12.6-0.2,18.9,0.4
			c-13.9,0.4-26.3,11.3-29.6,24.6c-2.5,9.4-0.8,19.8,5,27.7c5.8,8.1,15.1,13.1,24.8,14.9c-24.3,0.5-48.7,0.1-73.1,0.2
			c-173.7,0-347.3,0-521,0c-7.8,0.2-15.7-2-21.7-7.1C321,835.7,319.2,811.7,331.4,797.4z"/>
		<path class="st0" d="M1061.5,888.2c0.2,0,0.7,0.1,0.9,0.1c6.9,15.9,13.5,31.9,20.5,47.7c6.8,5.4,14.2,10,21.2,15.1
			c-3.6,5.4-7.4,10.6-11.1,16c-7.2-4.8-14.1-10-21.4-14.7c-17.4-1.5-35-2.5-52.5-3.8c4.3-6.2,8.6-12.4,13-18.6
			c11.1,1.4,22.1,3,33.2,4.3c-5-10.1-10.1-20.2-15.1-30.4C1054.1,898.8,1057.7,893.5,1061.5,888.2z"/>
		<path class="st0" d="M183,909.4c3.8-2.5,7.1-6.1,11.1-8.2c13.1,16.5,26,33.1,38.9,49.9c-3,3.4-7.2,5.8-10.7,8.8
			c-4.6-5.9-9.1-11.8-13.8-17.6c-15,11.8-30,23.6-45.2,35.2c-3.9-5.3-8-10.4-12-15.6c15-11.8,30-23.5,45.1-35.2
			C192,920.9,187.3,915.3,183,909.4z"/>
		<path class="st0" d="M87.2,911.7c19.7,35,42,68.5,67.6,99.5c36,43.7,77.8,82.5,124.3,114.8c54.9,38.3,116.2,67.2,180.5,85.8
			c-17.3-4.4-34.1-10.4-50.8-16.6c-72.8-27.7-140.1-69.6-197.3-122.6c-46.7-43.2-86.7-93.6-118-149
			C91.4,919.7,88.9,915.9,87.2,911.7z"/>
		<path class="st0" d="M972.4,995.3c14.6-15.5,29-31.1,43.6-46.6c3.4,3.1,6.7,6.2,10.1,9.3c-5,5.6-10.3,10.9-15.2,16.6
			c14.1,12.8,27.8,25.9,41.8,38.8c-4.5,4.9-9.1,9.8-13.6,14.7c-14-13-27.9-26.1-42-39c-4.9,5.3-9.7,10.6-14.8,15.7
			C979.2,1001.5,975.7,998.4,972.4,995.3z"/>
		<g>
			<path class="st0" d="M173.1,990.1c23.6-9.3,47.3-18.5,70.9-28c5.7,5.7,11,11.8,16.5,17.7c-11,23-22,45.9-32.8,68.9
				c-5.1-5.3-10.3-10.7-15.1-16.3c2.2-3.8,4.1-7.7,6.2-11.6c1.3-1.3-0.4-2.4-1.1-3.3c-6-6.3-11.9-12.7-17.8-19.1
				c-4.4,2.1-8.9,4.1-13.3,6.3C182.1,999.8,177.5,995,173.1,990.1z M213.3,992.8c4.5,4.4,8.3,9.7,13.3,13.5
				c4.9-9,10.4-17.7,15.2-26.7C232.3,983.9,222.8,988.3,213.3,992.8z"/>
		</g>
		<path class="st0" d="M274.3,993.8c6,4.7,11.8,9.5,17.8,14.3c-2.3,11-4.5,22-6.8,33c10.5-4.2,21-8.7,31.5-12.9
			c5.1,4.3,10.6,8.3,15.6,12.8c-16.7,5.9-33.4,11.5-50,17.7c-5.7,6.5-10.9,13.3-16.4,20c-5.1-4.1-10.4-8-15.2-12.4
			c5.4-6.7,11.1-13.3,16.2-20.2C269.6,1028.7,271.8,1011.2,274.3,993.8z"/>
		<path class="st0" d="M953.2,1011.2c5-4.3,10-8.7,15-13c15.6,17.9,31.2,35.8,46.8,53.8c-5,4.3-10,8.6-15,13
			C984.3,1047,968.8,1029.1,953.2,1011.2z"/>
		<path class="st0" d="M925.1,1030.9c6.3-4.4,13.9-8.1,21.9-7.2c5.7,0.6,10.2,4.8,13.3,9.4c-5.3,3.8-10.5,7.6-15.8,11.4
			c-1.4-1.3-2.6-2.9-4.5-3.3c-5.1-1.3-10.2,2.3-12.3,6.8c-1.3,2.5-0.5,6.1,2.1,7.5c2.3,1.1,4.9,0.7,7.3,0.1
			c8.8-2.5,16.9-7.8,26.1-8.8c11.2-1,20.3,9.8,20.5,20.4c-0.3,8.6-5.9,15.8-12,21.5c-6.6,5.7-14.5,10.7-23.3,12.1
			c-8.1,1.4-16.3-3.4-20.4-10.2c5.3-3.6,10.4-7.4,15.5-11.2c2.1,2,4.6,4.2,7.7,4.3c4.5,0.1,8.4-2.9,11.2-6.2
			c2.2-2.5,3.3-6.7,0.8-9.3c-2.4-2.8-6.5-2.4-9.6-1.3c-7.8,2.6-15.2,6.4-23.4,8c-5.2,0.8-11-0.1-14.9-3.8
			c-5.1-4.9-8.4-12.3-6.5-19.4C911,1042.7,917.8,1036,925.1,1030.9z"/>
		<g>
			<path class="st0" d="M298.2,1104.1c11.9-20.6,23.8-41.1,35.6-61.6c9.3,5.4,18.6,10.6,27.8,16c5.4,3.3,10.5,7.5,14.3,12.6
				c5.4,8,0.8,20.4-8.3,23.3c-4.2,1.5-8.7,0.6-12.9-0.4c3.2,3.2,6.5,6.6,7.8,11.1c2,8-2.9,16.7-10.1,20.2
				c-7.4,3.2-15.7,0.3-22.5-3.1C319.2,1116.4,308.8,1110.1,298.2,1104.1z M336.8,1076.9c4.2,2.2,8,5.3,12.6,6.7
				c6,1.7,11.4-7.2,6.8-11.5c-3.5-3.3-8.1-5.1-12.1-7.7C341.7,1068.5,339.2,1072.7,336.8,1076.9z M322.4,1102
				c4.9,2.3,9.1,6.3,14.6,7.2c6.6,0.4,10.1-9.1,5.3-13.4c-3.9-2.8-8.2-4.8-12.2-7.3C327.5,1093.1,324.8,1097.5,322.4,1102z"/>
		</g>
		<g>
			<path class="st0" d="M873.5,1066.5c6.6-3.7,13.9-6.8,21.5-7.1c8.7-0.1,14.9,8.6,15.3,16.6c0,6.6-4.6,12-9.3,16.1
				c4.3-2,9.8-4.3,14.1-1.2c8.3,5.8,12.5,15.6,20.3,21.9c-6.2,3.5-12.4,7.1-18.5,10.7c-4.7-5.1-8.7-10.9-12.9-16.4
				c-1.3-1.9-3.6-3.7-6.1-2.9c-4.6,1.3-8.6,3.9-12.6,6.4c4.7,7.7,9.1,15.6,13.6,23.3c-5.7,3.3-11.5,6.6-17.2,10
				c-11.9-20.5-23.8-41.1-35.7-61.7C855.3,1077,864.4,1071.7,873.5,1066.5z M870.3,1084.5c2.8,4.5,5.5,9.2,8.1,13.9
				c4.5-2.7,9.8-4.6,13.1-8.8c3.7-4.6-0.4-13-6.5-12.2C879.5,1078.1,874.9,1081.6,870.3,1084.5z"/>
		</g>
		<g>
			<path class="st0" d="M410.2,1083.9c7.3,3.4,14.5,6.8,21.8,10.2c-1.6,25.4-2.9,50.9-4.8,76.3c-6.6-3.1-13.2-6.2-19.8-9.3
				c0.5-4.9,1.1-9.8,1.4-14.7c-8.8-4-17.5-8.1-26.2-12.2c-3.4,3.5-6.7,7.1-10,10.6c-6-2.7-11.8-5.6-17.8-8.2
				C373,1118.8,391.8,1101.5,410.2,1083.9z M393.3,1124c5.7,2.6,11.3,5.4,17.1,7.9c1.4-10.3,3-20.6,4.3-31
				C407.4,1108.5,400.3,1116.2,393.3,1124z"/>
		</g>
		<path class="st0" d="M789.1,1104.1c16.7-6.8,33.4-13.5,50.1-20.4c2,4.2,3.7,8.6,5.2,13c-10.7,4.2-21.3,8.4-31.8,12.9
			c2,4.4,3.7,8.9,5.6,13.4c9.8-3.9,19.6-8,29.4-11.8c1.6,4.3,3.5,8.5,5.1,12.9c-9.8,3.8-19.5,7.9-29.3,11.8
			c1.8,4.7,3.7,9.3,5.5,13.9c10.7-4.3,21.3-8.6,32-12.8c1.7,4.3,3.4,8.6,5.1,12.9c-16.8,6.7-33.5,13.8-50.4,20.2
			C806.9,1148,797.9,1126.1,789.1,1104.1z"/>
		<path class="st0" d="M768.1,1110.5c6.4-1.4,12.7-3.1,19-4.7c-2.6,25.2-5.3,50.3-8,75.5c-7.6,1.9-15.3,3.8-22.9,5.7
			c-13.8-21-27.7-42-41.4-63c7-1.7,14-3.6,21-5.2c9.3,15.4,18.6,30.8,28,46.1C765.4,1146.7,766.5,1128.6,768.1,1110.5z"/>
		<path class="st0" d="M462,1111c10.6-4.5,22.6-1.9,32.8,2.5c5.7,2.9,11.7,6.1,15.1,11.6c3.4,5.1,3.9,11.9,1.9,17.6
			c-6.5-2.1-13-3.8-19.6-5.8c2.4-11-13.6-18.1-21.1-10.8c-3.8,3.9-5.8,9.2-7.5,14.2c-2,6.6-4,13.8-2.1,20.6c2,7.3,11,9.1,17.5,7.6
			c3-1,4.6-3.9,6.1-6.4c6.5,1.9,13.1,3.8,19.6,5.6c-2,7.3-7.9,13.7-15.3,15.5c-11.3,2.8-23.1-0.4-33.3-5.3
			c-7.7-3.8-13.3-11.3-14.8-19.8c-2.5-11.3,1.3-22.7,6-32.8C450.4,1119,455.4,1113.6,462,1111z"/>
		<path class="st0" d="M691,1127.1c6.5-1.3,13-2.5,19.5-3.7c4.5,23.3,9.1,46.6,13.6,69.9c-6.5,1.2-13,2.6-19.5,3.7
			C700.1,1173.7,695.4,1150.4,691,1127.1z"/>
		<path class="st0" d="M548.4,1126.1c6.5,0.3,13,1.2,19.5,1.5c-0.7,12.1-2.1,24.2-3,36.3c-0.4,5.4-1.7,11.3,0.8,16.4
			c3.2,6.9,12.4,8.8,19.1,6.4c5.5-2.1,7.6-8.3,8.1-13.7c1.3-14.3,2.6-28.5,3.8-42.8c7.1,0.7,14.3,0.9,21.3,2.2
			c8.7-0.6,17.3-1.6,26-2.3c9.5,16.9,18.8,34,28.6,50.8c-1.6-17.6-3.1-35.3-4.7-52.9c5.9-0.5,11.8-1,17.7-1.5
			c2.1,23.6,4.2,47.3,6.2,70.9c-9.1,0.7-18.3,1.7-27.4,2.3c-9.5-17.3-18.8-34.8-28.6-51.8c1.8,18,3,36,4.6,54
			c-6,0.5-11.9,1.1-17.9,1.6c-2-22.9-4.2-45.8-5.9-68.8c-2,14.5-2.5,29.1-4.3,43.6c-1.2,8.1-6.1,15.7-13.5,19.4
			c-7.6,3.9-16.4,4.3-24.7,3.4c-8.9-1.1-17.9-4.5-23.9-11.4c-4.6-5.1-6.4-12.1-5.8-18.8C545.7,1156.1,547.2,1141.1,548.4,1126.1z"/>
		<path class="st0" d="M459.8,1211.9c10.5,2.7,20.9,5.6,31.5,8C480.7,1217.8,470.1,1215.2,459.8,1211.9z"/>
	</g>
	<g>
		<g>
			<path class="st1" d="M623.3,0.1h6.5c16.5,0.3,32.9,0.9,49.3,2.4c76.1,6.5,151,27.3,219.6,61c94.3,46.1,176.5,116.3,237,202.1
				c39.6,56.1,70,118.7,89.3,184.6c24.2,82.8,31,170.6,19.7,256.1c-10.1,78-35.4,154-73.8,222.6
				c-59.7,106.9-151.3,195.7-260.2,251.8c-69.8,36.1-146.5,58.8-224.8,66.4c-84.8,8.4-171.4-0.9-252.5-27.2
				c-64.1-20.7-124.7-52-178.9-92.1c-86.6-63.9-156.4-150.4-200.3-248.8c-33.6-75-52-156.7-53.9-238.9
				c-2.5-99.7,19.3-199.9,63.4-289.3C116.9,242.2,202.2,149.8,306,88C365.5,52.5,431,26.9,498.8,13C539.7,4.5,581.5,0.3,623.3,0.1z
				 M588.6,6.9c-64.8,3.8-128.9,17.8-189.3,41.6c-61.1,24-118.3,57.9-168.8,99.8c-50.8,42.1-94.9,92.3-130,148.2
				C65.9,351.5,40,411.9,24.3,475c-22,87.8-24.3,180.4-6.9,269.2c14.5,73.9,42.8,145,82.8,208.7c31.3,49.9,69.7,95.2,113.7,134.4
				c55,49,118.7,88.2,187.3,114.9c78.6,30.7,163.6,44.8,247.9,41.5c81.8-3.1,163-22.7,237.1-57.5c58.6-27.4,112.8-64,160.1-108.1
				c47.7-44.3,88.4-96.2,120.1-153.1c37-66.3,61.6-139.5,72-214.7c12.3-88.4,5.3-179.5-20.7-264.9c-21.1-69.6-54.8-135.3-98.7-193.2
				c-68.7-90.9-162.7-162.5-268.9-204C767.2,15.7,677.3,1.7,588.6,6.9z"/>
		</g>
		<g>
			<path class="st1" d="M583.7,12.9c89.3-6,179.9,7.6,263.3,40.3c105.6,41.1,199.2,112.2,267.4,202.6
				c43.3,57.1,76.5,121.8,97.4,190.3c26.1,85,33.1,175.7,20.8,263.8c-10.6,76.4-36,150.6-74.2,217.6
				c-31.1,54.7-70.7,104.5-116.8,147.2c-48.1,44.7-103.4,81.6-163.1,108.8c-76.8,35.1-161,53.9-245.5,54.9
				c-83.7,1.2-167.6-15-244.7-47.6c-69.9-29.4-134.1-71.9-188.7-124.5c-42.4-40.8-78.9-87.8-108-138.9C53.1,860,27.6,785.1,17.1,708
				c-12.6-92.4-4-187.7,25.6-276.2c20.8-62.4,51.8-121.3,91.2-173.8c39.6-52.9,87.8-99.3,142-137c53.3-37.1,112.6-65.7,174.9-84.2
				C494,23.9,538.7,15.9,583.7,12.9z M456.1,38.9c-61.2,17.7-119.5,45.2-172.2,80.9c-52.5,35.6-99.5,79.4-138.6,129.3
				C106.1,298.9,74.8,354.7,52.8,414c-17.7,47.6-29.3,97.4-34.5,148c-9.2,88.6,1.1,179.2,30.6,263.3c3.5,10.6,7.9,20.9,11.7,31.4
				c-0.3,1.6,0.7,3.1,1.3,4.5c6.4,14,13.1,27.9,20.4,41.4c0.8,2.5,1.7,5.2,3.7,7l0.4,0.8c0,0.1,0.1,0.2,0.1,0.3l0.6,1
				c1.7,4.2,4.2,8,6.3,12c31.3,55.4,71.3,105.8,118,149c57.2,52.9,124.5,94.8,197.3,122.6c16.7,6.2,33.5,12.2,50.8,16.6l0.3,0.1
				c10.3,3.3,20.9,5.9,31.5,8l0.4,0.1c4.1,1.6,8.5,2.4,12.9,2.8c112.8,23.4,232.3,14.1,339.8-27.3c61-23.4,118.1-56.9,168.2-98.8
				c53.3-44.4,98.7-98,134.8-157.2c16.4-27.1,31.3-55.1,43.7-84.3l-1.5,0c41.4-100.6,54.7-212.5,38.6-320
				c-11.4-77-37.9-151.8-77.5-218.8c-50.8-86.2-123-159.6-208.3-211.8c-68-41.8-144.4-70-223.3-82.2
				C631.7,8.7,541.2,14.3,456.1,38.9z"/>
		</g>
		<path class="st1" d="M613.8,63.3c6.9,0,13.9,0.2,20.8,0.3c-0.2,9.8-0.4,19.6-0.5,29.5c8.3,0.2,16.7,0.3,25,0.4
			c0.1-9.8,0.4-19.6,0.5-29.4c6.9,0,13.8,0.2,20.7,0.3c-0.5,24.7-0.9,49.5-1.4,74.2c-6.9-0.1-13.7-0.3-20.5-0.3
			c0-10.2,0.4-20.4,0.5-30.6c-8.4-0.1-16.8-0.3-25.3-0.4c-0.2,10.2-0.3,20.3-0.6,30.5c-6.8-0.1-13.7-0.3-20.5-0.4
			C612.8,112.8,613.4,88.1,613.8,63.3z"/>
		<path class="st1" d="M536.3,70c6.9-0.8,13.8-1.8,20.7-2.4c2.8,24.6,6,49.1,8.8,73.6c-6.9,0.7-13.8,1.8-20.7,2.4
			C542.3,119.1,539.1,94.6,536.3,70z"/>
		<g>
			<path class="st1" d="M724.5,73.8c11.6-2.3,23.9,0.1,34.2,5.6c10.1,5.3,16.6,16.4,16.9,27.7c0.2,7.4-1.3,14.8-3.9,21.7
				c-4,10.2-12.6,18.9-23.4,21.5c-9.5,2.3-19.5,0.4-28.4-3.1c-10-4-18.5-12.4-21-23c-2.6-12.1,0-25.2,6.5-35.7
				C709.8,81.7,716.3,75.6,724.5,73.8z M733.5,88.6c-5.3,1.7-8.5,6.7-10.6,11.6c-3.3,8.6-5.8,18.5-2.4,27.5
				c2.6,6.8,10.8,9.4,17.5,8.4c6.7-1.4,10.9-7.8,13.1-13.8c2.5-7.3,4.3-15.4,2.5-23.1C751.9,90.5,741.4,85.8,733.5,88.6z"/>
		</g>
		<g>
			<path class="st1" d="M465.2,86.5c8.2-2,16.2-4.5,24.4-6.3c15.5,21.5,31.6,42.6,47.2,64.1c-7.5,1.9-14.9,4.2-22.4,5.8
				c-2.6-4.3-5.6-8.4-8.4-12.5c-9.7,2.6-19.4,5.2-29.1,7.8c-0.4,5.1-0.4,10.3-1.1,15.4c-6.6,1.5-13.2,3.5-19.8,5.2
				C459.1,139.3,462.1,112.9,465.2,86.5z M480.1,97.2c-0.8,10.9-1.1,21.8-1.8,32.7c6.4-1.6,12.8-3.4,19.1-5.1
				C491.6,115.7,486.1,106.3,480.1,97.2z"/>
		</g>
		<path class="st1" d="M793.9,111.1c6.1-9.5,18.2-13.7,29.1-12c10.8,1.7,21.1,6.5,29.2,13.8c7.1,6,8.7,16.3,5.7,24.8
			c-6.9-2.2-13.5-5.2-20.3-7.6c3.4-11.1-12.3-20-20.9-13.3c-4,3.3-6.3,8-8.5,12.6c-2.9,6.5-5.5,13.5-5,20.8c0.2,4.3,2.9,8.5,7,10.1
			c3.4,1.3,7.1,2.1,10.8,1.5c3.2-0.7,5.2-3.6,7-6.1c6.7,2.7,13.5,4.9,20,8c-3.1,7-9.1,12.9-16.8,14.3c-11.8,2.1-23.7-2.1-33.8-7.9
			c-7.9-4.5-13.5-12.8-14.5-21.8C781.3,134.8,786.8,121.9,793.9,111.1z"/>
		<g>
			<path class="st1" d="M385.3,117.4c9.9-4,21.5-6.5,31.7-2.3c10.3,4.2,16.8,14.1,21,23.9c3.7,8.2,4.6,18.3,0.2,26.4
				c-5.3,9.2-14.1,15.9-23.6,20.2c-10.2,4.5-20.4,9.1-30.6,13.6c-4.4-10.1-9-20-13.3-30.2c-2.4,0.7-4.7,1.7-6.9,2.8
				c-1.2-2.5-2.3-5-3.3-7.7c2.3-0.9,4.5-1.9,6.6-3c-4.4-9.9-8.9-19.9-13.2-29.9C364.4,126.7,374.8,121.9,385.3,117.4z M379,136.1
				c1.8,5.7,4.8,11.1,7.1,16.7c2.2-1,4.5-2,6.8-3c1.1,2.4,2.3,4.8,3.1,7.3c-1.8,1.6-4.4,2.1-6.5,3.2c2.5,5.8,5.1,11.5,7.6,17.2
				c5.7-2.8,12.4-4.5,16.8-9.5c11.1-12.2,2.6-35.4-13.9-37.5C392.5,129,385.6,133.1,379,136.1z"/>
		</g>
		<path class="st1" d="M908.6,156c2.8-4,5.5-7.9,8.3-11.8c18.2,12.7,36.3,25.5,54.5,38.2c-2.8,3.9-5.3,8-8.3,11.7
			c-6.5-4.1-12.6-8.8-19-13.1c-11.4,16.3-22.9,32.5-34.2,48.9c-5.6-3.9-11.2-7.7-16.7-11.7l0-0.6c11-16.3,22.8-32.1,33.7-48.5
			C921,164.5,914.6,160.4,908.6,156z"/>
		<path class="st1" d="M714.2,149.8c5.7,1.4,11.4,2.5,17,4c-1.2,4.7-2.2,9.5-3.3,14.2c-5.7-1.3-11.4-2.6-17-3.9
			C711.9,159.4,713.1,154.6,714.2,149.8z"/>
		<path class="st1" d="M488.7,161.8c5.5-2,11.3-3.1,16.8-4.8c1.4,4.7,2.6,9.5,3.9,14.2c-5.6,1.5-11.2,3-16.8,4.5
			C491.2,171.2,490.1,166.4,488.7,161.8z"/>
		<g>
			<path class="st1" d="M551.9,167.4c72.9-11.2,148.5-4.6,218.3,19.5c62,21.3,119.2,56.2,166.7,101.3
				c41.7,39.5,75.9,86.8,100.2,138.8c33.1,70.4,47.5,149.5,41.8,227.1c-5.1,71.4-27.4,141.5-64.5,202.7
				c-35.6,59-84.6,109.8-142.2,147.6c-57.3,37.7-123.2,62.2-191.2,71c-80.3,10.6-163.4-0.6-237.9-32.4
				c-89-37.7-165.4-104.4-215-187.3c-16.9-28.2-30.8-58.2-41.3-89.4c-24.6-72.9-30.2-152-16.4-227.6
				c16.2-90.2,60.7-174.9,125.2-239.9c40.3-40.8,88.3-74.1,140.8-97.4C473.2,184.9,512.1,173.5,551.9,167.4z M592.6,165.9
				c-59.5,3.7-118.3,19.4-171.8,45.9c-54.5,26.9-103.5,64.8-143.4,110.8c-36.3,41.7-64.9,90.1-83.9,142
				c-14.3,39-23.2,80.1-26.3,121.5c-5.9,76.7,8,154.9,40.3,224.7c28.6,62,71.4,117.5,124,161c41.2,34.2,88.4,61,138.9,78.8
				c79.3,28.1,166.5,33.4,248.7,15.3c69.5-15.2,135.3-47.2,190.3-92.3c52.5-42.8,95.3-97.4,124.3-158.7
				c34.2-71.8,48.7-152.6,42-231.8c-7.3-91.2-43.3-179.7-101.4-250.3c-41.9-51.3-95-93.4-154.7-122.3
				C749.5,176.2,670.4,160.8,592.6,165.9z"/>
		</g>
		<path class="st1" d="M282,180c5.4-2.6,11.6-4.7,17.6-3.3c5,1.2,8.9,4.9,12.2,8.7c-5.3,4.3-10.6,8.5-16,12.5
			c-2.2-0.9-4.1-3.1-6.8-2.9c-5.5,0.2-10.2,3.8-13.7,7.6c-4.8,5.8-3.3,14.1-0.2,20.3c3.4,6.6,8,13.2,15.1,16.1
			c6,2.7,13.3,1.8,18.8-1.8c3.8-2.6,7.4-5.8,10.1-9.6c-2.9-3.4-5.5-7-8.3-10.5c-4,2.9-7.7,6.3-11.9,9c-3.1-3.5-5.8-7.5-8.8-11.1
			c9.5-7.3,18.7-14.9,28.4-21.9c7.9,10.5,16.1,20.7,24.1,31.1c-7.1,8-14.6,15.8-22.7,22.8c-5.2,4.7-11.1,8.7-17.9,10.6
			c-9.4,2.9-20.2,1.5-28.5-4c-12.8-8.1-21.2-23.2-20.7-38.4c0.4-9.3,5.9-17.4,12.6-23.5C270.6,187.2,276.1,183.1,282,180z"/>
		<path class="st1" d="M1002,198.8c6.3-0.9,12.5-1.8,18.8-2.6c4.2,4,8.5,7.9,12.7,11.9c-0.4,6.3-0.8,12.6-1.2,19
			c-3.6-2.6-6.5-5.9-9.8-8.8c-0.2-3.7-0.2-7.3-0.3-11c-3.6,0.1-7.2,0.3-10.8,0.5C1008.3,204.8,1005,202,1002,198.8z"/>
		<g>
			<path class="st1" d="M930.5,244.1c24.1-11.4,48-23,72.2-34.2c6,5.8,12.1,11.4,18.2,17.1c-9.7,24.7-19.6,49.4-29.2,74.1
				c-5.9-5-11.4-10.4-17-15.8c2.2-4.6,4.2-9.3,6.2-13.9c-7.3-6.8-14.6-13.6-21.9-20.5c-4.6,2.2-9,5-13.7,7.2
				C940.5,253.4,935.4,248.9,930.5,244.1z M972.7,244c4.1,4,8.4,7.9,12.5,11.8c0.6,0.9,2.3,1.8,2.6,0.1c4.4-9.3,9.1-18.5,13.5-27.8
				C991.7,233.3,982.2,238.7,972.7,244z"/>
		</g>
		<path class="st1" d="M211,246c4-4.7,8-9.6,12.3-14c18.4,16.4,37.3,32.4,55.7,48.8c-6.4,7.1-12.4,14.6-19,21.5
			c-19.4-6.3-38.8-12.1-58.3-18.2c0.8,0.9,1.7,1.8,2.6,2.7c13.1,11.5,26.2,23,39.4,34.5c-4,4.8-8.2,9.4-12.2,14.1
			c-18.8-16.1-37.3-32.5-56-48.6c5.6-6.8,11.6-13.3,17.2-20c0.8-0.8,1.7-2.4,3.1-1.5c18.8,5.6,37.6,11.6,56.5,17
			C238.9,269.9,224.8,258.1,211,246z"/>
		<path class="st1" d="M1053.2,259.3c4.7,6.3,9.2,12.8,14,19.1c-4.9,10.6-10.6,20.8-15.3,31.5c11.5-1.5,23.1-2.9,34.6-4.6
			c4.4,5.6,8.5,11.5,12.7,17.3c-17.3,1.2-34.7,2.5-52,3.7c-1.6,0.2-3.3,0.1-4.5,1.1c-6.8,5-13.7,10-20.6,15
			c-4.2-5.3-8.1-10.8-11.9-16.3c6.7-5.7,14.3-10.3,21.2-15.8c0.9-0.8,1.2-2.1,1.8-3.2C1039.7,291.1,1046.4,275.2,1053.2,259.3z"/>
		<g>
			<path class="st1" d="M151.4,310.3c3.9-3.5,11.4-0.6,11.6,4.8c0.2,1.7-0.5,3.3-0.9,4.9c8.9-2.5,18.6-0.8,26.7,3.4
				c9.3,4.5,17.8,11.4,21.8,21.1c4.8,10.3,2.6,22.6-3,32.1c-5.5,10.1-14.7,19.1-26.3,21.3c-7.7,1.7-15.6-0.5-22.7-3.4
				c-10.4-5-19.7-13.2-23.8-24.2c-2.8-7.1-1.9-15.1,0.8-22.1c2.9-7.4,6.9-14.4,12.7-19.9c2.3-2.2,5-3.8,7.2-6.1
				c-2.4-0.8-5.2-1.5-6.3-4C148.1,315.4,149,312,151.4,310.3z M159.5,339.6c-6.9,3.2-11.6,11.7-9,19.2c1.8,4.4,5.2,8,9,10.8
				c6.3,4.7,13.5,8.7,21.5,9c10.9,1,19.1-13,13.8-22.3c-3.7-6.9-10.7-11.2-17.5-14.6C171.9,339.2,165.4,337.2,159.5,339.6z"/>
		</g>
		<g>
			<path class="st1" d="M694.2,308.8c5.7,7.6,11.4,15.3,17.1,23c5.7-7.6,11.1-15.3,16.8-22.9c0.1,9.8,0,19.6,0.1,29.4
				c11.8,0,23.5,0,35.3,0.1c-9.7,5.3-19.8,9.9-29.5,15.2c0.5,0.7,1.2,1.3,2,1.6c8.8,4.7,17.9,8.8,26.5,14c-2.5,0.1-4.9,0.1-7.3,0.2
				h-0.2c-0.6,0-1.9,0-2.5,0c-8,0.1-16.1,0.1-24.1,0.1c-0.1,9.7,0,19.3-0.1,29c-5.6-7.7-11.3-15.4-16.6-23.3
				c-6,7.7-11.4,15.9-17.3,23.7c0-9.8,0-19.6,0-29.3c-9.6,0-19.2-0.1-28.8,0.1c-1.3,0-3.8,0-5,0.1c0.2-0.4,0.6-1.1,0.8-1.5l0.4-0.5
				c9.2-4.6,18.2-9.4,27.3-14.3c-10.1-4.9-20-10.2-30-15.3c11.8-0.2,23.6,0,35.4,0C694.2,328.4,694.2,318.6,694.2,308.8z
				 M694.3,338.3c0,10.3,0,20.7,0,31c11.3,0,22.5-0.1,33.8-0.1c0-10.3,0-20.5,0-30.7C716.9,338.3,705.6,338.4,694.3,338.3z"/>
		</g>
		<path class="st1" d="M123.1,328c6.1-0.6,12.1-1.3,18.2-1.9c-2,3.4-3.8,7-6,10.3c-7.3,3.7-15,6.7-22.5,9.9
			C116.1,340.2,119.7,334.2,123.1,328z"/>
		<g>
			<path class="st1" d="M1058.9,403c22.4-10.6,44.9-20.9,67.3-31.4c4.5,9.7,9,19.4,13.5,29c2.9,6.1,4.8,12.7,5.2,19.4
				c0.8,10.1-10.1,18.6-19.8,16.6c-5-1-8.9-4.7-12-8.6c1,5.8,1.8,12.4-1.7,17.5c-5.2,7.5-16.6,10.8-24.6,5.8
				c-6-3.7-9.8-10-12.9-16.1C1068.9,424.4,1064,413.7,1058.9,403z M1108.3,402.8c2.3,4.4,3.7,9.3,6.8,13.3c4.1,4.9,14,0.6,12.5-5.9
				c-1.1-4.8-3.9-9.1-5.7-13.6C1117.3,398.6,1112.8,400.7,1108.3,402.8z M1081,415.4c1,3.1,2.6,6,3.9,8.9c1.4,3.1,3.3,6.9,7,7.4
				c5.7,1.3,11.4-5.3,9-10.8c-1.8-4.1-3.7-8.2-5.7-12.2C1090.5,411.1,1085.8,413.3,1081,415.4z"/>
		</g>
		<path class="st1" d="M106,382.8c2.9-2.3,7.2-1.5,10.1,0.3c3.6,2.8,3.5,8,3.7,12.1c12.5,5.2,25.2,10.2,37.7,15.5
			c8.3,3.6,15,11.2,16.5,20.3c1.6,9.5-1.4,19.1-5.5,27.6c-4.3,8.8-11.8,16.6-21.5,19.2c-6.2,1.7-12.7,0.4-18.5-2.1
			c-13.9-5.6-27.7-11.3-41.6-16.8c2.1-6.5,5.1-12.7,7.4-19.1c14.1,5.6,28.1,11.4,42.3,17c5.4,2.2,12.6,2.4,16.8-2.3
			c4.1-4.6,6.6-11.6,3.9-17.4c-2.2-4.5-6.9-7-11.3-8.8c-13.5-5.4-26.8-11-40.3-16.2c1.7-5.8,4.4-11.3,6.4-16.9
			c-2.1-0.9-4.8-0.7-6.5-2.5C103.1,389.9,102.9,385,106,382.8z"/>
		<path class="st1" d="M527.6,514.1c2.7-44.6,19.6-87.4,43.3-125c-15.2,39.4-25.5,81.5-23.7,124c1.3,32.3,10.2,64.3,26.7,92.2
			c16.1,27.5,38.8,50.8,64.3,69.8c28.4,21.1,60,37.3,92.8,50.3c48.9,19.3,100.2,31.8,152,39.7c16.9,2.4,33.9,5,51,5.5
			c-10.3,0.8-20.7,0.5-31,0.6c-77.7,0-155.3,0-233,0c-21.6-18.6-42.7-38-61.6-59.4c-23.5-26.4-44.4-55.5-59.2-87.7
			C533.3,589.8,525.1,551.8,527.6,514.1z"/>
		<path class="st1" d="M546.4,397.4c3.8-2.2,7.5-4.5,11.5-6.3c-23.5,18.2-45.8,38-65.7,60c-23.4,25.9-43.6,54.7-59,86
			c-15.4,31.1-26,64.6-31.2,98.9c-7,44.8-4.9,90.6,3.6,135c-21.1,0-42.2,0-63.3,0c-4.1-46,0.4-92.7,13.6-137
			c18.3-61.8,53.1-118.2,98-164.2C481.3,441.8,512.5,417.3,546.4,397.4z"/>
		<path class="st1" d="M549,403.3c-9.5,10.7-19.2,21.3-27.9,32.7c-21.9,28.2-40,59.4-52.1,93c-12.6,34.8-18.6,72-17.8,109
			c0.9,45,11.4,89.3,27.4,131.2c-23.1,0-46.2,0.1-69.3,0.1c-8-42.3-10.1-85.9-4-128.5c5.4-38.6,17.6-76.2,35.9-110.6
			C467.3,480.8,505.5,438.3,549,403.3z"/>
		<path class="st1" d="M472.2,532.3c16.3-45.8,43.6-87.2,76.8-122.5c-18.3,27.2-34.4,56.1-44.9,87.3
			c-14.4,41.6-18.6,86.7-11.6,130.2c8.1,51.8,30.5,100.3,59.1,143.8c-22.6,0.1-45.2-0.1-67.7,0.1c-16-40.2-26.5-82.9-28.3-126.2
			C453.8,606.8,459.3,568.3,472.2,532.3z"/>
		<path class="st1" d="M495.2,553.2c6.3-51.9,28.7-100.7,58.7-143.1c-17.8,34.6-29.9,72.7-30.8,111.9c-1.2,40.5,9.8,80.7,28.5,116.4
			c26.8,51.3,67.3,94,110.8,131.6c-35.7,0-71.4,0.2-107-0.1c-19.3-29.7-36.1-61.3-47.2-95C495.2,635.9,490,594.1,495.2,553.2z"/>
		<path class="st1" d="M1178.8,468.8c1.9-3.1,5.3-4.6,8.6-5.7c0.9,4.4,1.9,8.7,2.8,13.1c-7.4,2.5-4.4,15.8,3.6,14.2
			c1.2,4.4,2.4,8.9,3.7,13.3c-7.5,1.2-15.4-2.1-19.9-8.2C1172.5,487.5,1173.6,476.6,1178.8,468.8z"/>
		<g>
			<path class="st1" d="M1087.3,465.3c26.3,3.5,52.7,7,79,10.5c2.1,8.1,4.1,16.2,6.1,24.4c-17.8,12.6-35.6,25.3-53.3,38
				c-3.9,2.7-7.6,5.7-11.8,8.1c-1.8-7.4-3.7-14.7-5.4-22.1c4.3-2.7,8.4-5.6,12.8-8.2c-2.2-9.8-4.8-19.6-7.2-29.3
				c-5-0.4-10-0.9-15-1.1C1090.5,478.8,1089,472.1,1087.3,465.3z M1122.7,488.2c1.6,6.3,3.2,12.6,4.7,19
				c9.4-5.3,18.9-10.8,27.9-16.8C1144.4,489.7,1133.5,488.9,1122.7,488.2z"/>
		</g>
		<g>
			<path class="st1" d="M83.8,491.7c5.4-5.6,14.5-4.8,20.8-1.2c6.6,4,8.6,12.5,8,19.7c1.7-4.5,3.1-10.4,8.5-11.8
				c10.4-2.7,21.1,0.8,31.6-1.2c-1.7,7.3-2.5,14.8-4.6,21.9c-7.7,0.4-15.4-0.9-23-1c-2.1-0.1-4.1,1-4.9,3c-2,4.4-2.6,9.2-3.6,13.9
				c9.2,1.7,18.3,3.7,27.5,5.3c-1,6.9-2.6,13.6-3.8,20.4c-24.3-4.6-48.6-9.4-72.9-14.2c2.2-11.1,4.3-22.3,6.6-33.5
				C75.7,505.5,78.4,497.7,83.8,491.7z M90.4,512.5c-3.3,4.8-3.4,11-4.7,16.5c5.5,1,11.1,2.2,16.6,3.2c0.9-5.3,2.9-10.7,2.1-16.1
				C103.4,510,94,507.2,90.4,512.5z"/>
		</g>
		<path class="st1" d="M1182.8,504.5c6.4,2.2,12.6,4.7,19,6.9c1.7,6.4,3.2,12.7,4.8,19.1c-7-4.7-13.9-9.5-20.8-14.2
			C1184.7,512.3,1183.8,508.4,1182.8,504.5z"/>
		<path class="st1" d="M1119.5,557.5c7.2-5.6,16.4-8.3,25.5-8.6c8.2-0.3,16.9-0.3,24.3,3.7c8.5,4.8,13.9,13.9,15.6,23.4
			c1.7,10.1,1.6,20.9-2.6,30.4c-3.3,7.2-10.8,11.3-18.4,12.1c-0.6-7.2-1.3-14.4-1.8-21.5c11.2-1.7,12.5-19.1,3.2-24.2
			c-4.7-2.4-10.1-2.4-15.3-2.5c-7.2,0.3-14.7,0.9-21.1,4.5c-4,2.2-6.6,6.6-6.1,11.2c0.5,3.6,1.3,7.5,3.8,10.3
			c2.1,2.3,5.3,2.7,8.2,3.1c0.7,7.1,1.3,14.2,1.9,21.4c-8,0.7-16.4-2.7-21-9.5c-6.7-9.6-8-21.9-7.1-33.3
			C1109.2,570.1,1113.2,562.4,1119.5,557.5z"/>
		<path class="st1" d="M67.3,553c4.8,0.3,9.6,0.8,14.4,1.1c-0.5,7.7-1.3,15.4-2,23.2c19.8,1.8,39.7,3.3,59.6,5.4
			c-0.9,6.8-1,13.6-2,20.4c-19.8-1.4-39.6-3.4-59.3-5.1c-0.7,7.5-1.3,15-2,22.5c-4.8-0.4-9.6-0.9-14.4-1.2
			C63.3,597.2,65.4,575.1,67.3,553z"/>
		<path class="st1" d="M1125.1,703.9c6,8.4,12,16.8,18.1,25.1c6-8.1,11.5-16.6,17.8-24.3c0.2,9.9,0,19.8,0.1,29.7
			c-12,0-24-0.1-36.1-0.1C1125.1,724.2,1124.9,714,1125.1,703.9z"/>
		<path class="st1" d="M127.6,706c0.3,10,0,20,0.2,30c-12,0-24-0.1-36-0.1c0-10-0.1-20,0-29.9c6.5,7.8,11.9,16.6,18.2,24.6
			C115.8,722.4,121.7,714.2,127.6,706z"/>
		<path class="st1" d="M1087.7,735.1c12.4-0.3,24.9,0,37.3,0c0,10.8,0,21.7,0,32.5c12,0,24-0.1,36-0.1c0-10.8,0-21.5,0-32.3
			c12.2,0.1,24.5,0,36.7,0.2c-10.2,5.8-21,10.5-31.1,16.5c10.6,5.4,21.2,10.7,31.7,16.2c-12.5,0.2-24.9,0.1-37.4,0.2
			c-0.1,10.4,0.1,20.8-0.1,31.2c-6-8.1-11.8-16.2-17.8-24.3c-6,8-11.9,16.2-18.1,24.2c-0.3-10.3,0-20.7-0.1-31
			c-12.3,0-24.7,0.2-37.1,0c10.2-5.8,20.9-10.8,31.3-16.3C1108.8,746.2,1098,741.1,1087.7,735.1z"/>
		<path class="st1" d="M54,736.5c12.6,0.1,25.1,0.2,37.7,0.1c0.2,10.9,0,21.7,0.1,32.6c12-0.1,24-0.1,36-0.2c0-10.8,0-21.5,0-32.2
			c12.1,0.1,24.3,0,36.4,0.2c-9.6,5.8-19.9,10.3-29.7,15.8c0,0.3-0.1,0.8-0.2,1c10.2,5.5,20.8,10.4,31,15.9c-12.5,0-25,0.1-37.5,0.1
			c0,10.4,0,20.8,0,31.2c-6.3-7.8-11.5-16.6-18.2-24.1c-5.8,8-11.6,16.1-17.8,23.9c-0.3-10.3,0.2-20.7-0.3-31
			c-12.4,0.2-24.9,0.2-37.4,0.1c10.5-5.5,21.1-10.9,31.8-16.3C75.4,747.7,64.4,742.5,54,736.5z"/>
	</g>
	<g>
		<g>
			<path class="st2" d="M592.6,165.9c77.9-5,157,10.3,227.1,44.6c59.6,28.9,112.8,71,154.7,122.3c58.1,70.6,94.1,159.1,101.4,250.3
				c6.7,79.2-7.9,160.1-42,231.8c-29,61.2-71.8,115.8-124.3,158.7c-55,45.1-120.8,77.1-190.3,92.3c-82.2,18.1-169.4,12.9-248.7-15.3
				c-50.5-17.8-97.7-44.7-138.9-78.8c-52.6-43.5-95.4-98.9-124-161c-32.4-69.8-46.3-148-40.3-224.7c3.1-41.5,12-82.5,26.3-121.5
				c19-51.9,47.7-100.3,83.9-142c39.8-45.9,88.8-83.9,143.4-110.8C474.3,185.3,533,169.6,592.6,165.9z M693.1,276.1
				c-6,1.2-12.6,2.4-16.9,7.2c-3.6,3.9-3.7,9.8-2.3,14.7c2.1,7.5,6.8,13.8,10,20.8c-4.5-5.4-9.2-10.6-15.1-14.6
				c-4.5-3.5-10.7-6.2-16.3-3.8c-6.2,2.6-9.6,8.7-12.5,14.3c-7,1.8-14.7,5.9-16.5,13.5c-1.7,6.9,2.5,13.2,6,18.7
				c-1,7.2-1.8,16.2,4.3,21.4c7,5.4,16.4,3.5,24.4,2c0.9-0.8,1.9-1.4,2.9-2.1c-0.2,0.4-0.6,1.1-0.8,1.5c1.3,0,3.8-0.1,5-0.1
				c-7.4,3-14.6,6.8-20.5,12.2c-3.3,3.2-5.6,7.8-4.7,12.4c1,6.1,5.4,10.8,9.6,15c-0.3,6.9,0.9,14.9,6.8,19.2
				c6,4.3,13.9,2.8,20.4,0.5c7,3.8,16.6,7.4,23.5,1.5c8.1-7.9,7.2-20.2,9.1-30.5c0.7,7,1.3,14.1,3.8,20.8
				c1.6,5.3,4.8,10.9,10.5,12.5c6.6,1.8,13.2-1.2,19-4.1c6.5,2.5,14.8,3.8,20.7-0.8c5.6-4.3,6.5-11.9,6.5-18.5
				c1.4-2.7,4.2-4.5,5.8-7.1c3.7-4.8,5.5-11.9,1.8-17.3c-5.8-8.8-16.7-11.2-25.3-16.2c0.6,0,1.9,0,2.5,0c0.9,0.8,1.9,1.2,3.1,1.3
				c6.6,1.4,13.4,2.2,20.1,1.4c4.4-0.5,9-2.8,11.1-6.9c3-5.6,2.2-12.1,1.3-18.1c4.2-5.4,8-12.4,5.9-19.4
				c-2.2-7.1-9.6-10.7-16.3-12.6c-2.9-5.8-6.5-12-12.9-14.4c-5.2-1.9-10.8,0.4-15,3.4c-5.6,4.4-10.2,9.8-15.1,14.9
				c2.8-5.7,6.4-10.9,8.2-17c2.1-5.6,3.5-12.5-0.4-17.7c-4.2-5.5-11.4-7-17.9-8c-4-6-10.1-12.1-17.9-11.5
				C702,265.1,697.2,271,693.1,276.1z M562.3,385.3c-45.7,23.9-87,56.2-121.6,94.4c-42.1,46.4-74.1,102.3-90.3,163
				c-11.2,41.4-14.8,84.8-11.2,127.6c0,1.8,1.9,2.6,2.9,3.8c65.9,0,131.9,0,197.8,0c74.3,0.3,148.7-0.1,223.1,0
				c57.7,0,115.4,0,173.1,0c0-1.9,0.1-3.8,0.1-5.7c-21.6-1.5-43.1-4.4-64.4-7.9c-49.9-8.4-99.2-21.1-146-40.2
				c-31.8-13.1-62.4-29.3-89.7-50.3c-25.4-19.5-47.8-43.5-63.1-71.8c-15.8-29-23.5-62.1-23.3-95c0.1-40.9,10.8-81.1,26.2-118.8
				c-0.8-1.8-2-3.4-3.7-4.4C569.2,382.1,565.6,383.5,562.3,385.3z M331.4,797.4c-12.2,14.2-10.3,38.3,4,50.4
				c6,5.1,13.9,7.3,21.7,7.1c173.7,0,347.3,0,521,0c24.4-0.1,48.7,0.3,73.1-0.2c-9.7-1.8-19-6.8-24.8-14.9c-5.7-7.9-7.5-18.3-5-27.7
				c3.3-13.3,15.7-24.2,29.6-24.6c-6.3-0.6-12.6-0.3-18.9-0.4c-192,0-384,0-576.1,0C346.8,787,337.4,790.3,331.4,797.4z"/>
		</g>
	</g>
	<g>
		<g>
			<path class="st3" d="M1014.4,856.8c58.4-0.5,116.8-1,175.2-1.5l1.5,0c-12.4,29.1-27.3,57.2-43.7,84.3
				c-36.1,59.2-81.5,112.8-134.8,157.2c-50.2,41.8-107.2,75.4-168.2,98.8c-107.5,41.4-227,50.7-339.8,27.3
				c-4.2-1.3-8.5-2.3-12.9-2.8l-0.4-0.1c-10.6-2.4-21-5.3-31.5-8l-0.3-0.1c-64.3-18.7-125.6-47.5-180.5-85.8
				c-46.4-32.3-88.3-71.1-124.3-114.8c-25.6-31-47.9-64.5-67.6-99.5l-0.6-1c0-0.1-0.1-0.2-0.1-0.3l-0.4-0.8c-1.1-2.4-2.3-4.8-3.7-7
				c-7.3-13.6-14-27.4-20.4-41.4c-0.6-1.4-1.6-2.9-1.3-4.5c55.8,0,111.6-0.7,167.4-1c49.6,83,126,149.6,215,187.3
				c74.5,31.8,157.6,43,237.9,32.4c68-8.8,133.9-33.3,191.2-71C929.9,966.6,978.8,915.8,1014.4,856.8z M1061.5,888.2
				c-3.8,5.2-7.4,10.6-11.2,15.8c5,10.1,10.1,20.2,15.1,30.4c-11.1-1.4-22.1-2.9-33.2-4.3c-4.3,6.2-8.7,12.4-13,18.6
				c17.5,1.3,35,2.2,52.5,3.8c7.3,4.7,14.2,9.9,21.4,14.7c3.7-5.3,7.4-10.6,11.1-16c-7-5.1-14.4-9.7-21.2-15.1
				c-7-15.8-13.6-31.8-20.5-47.7C1062.2,888.3,1061.8,888.3,1061.5,888.2z M183,909.4c4.3,5.9,9,11.5,13.3,17.3
				c-15.1,11.7-30.1,23.5-45.1,35.2c4,5.2,8.1,10.3,12,15.6c15.1-11.6,30.1-23.5,45.2-35.2c4.7,5.8,9.2,11.8,13.8,17.6
				c3.5-3,7.7-5.4,10.7-8.8c-12.8-16.7-25.8-33.4-38.9-49.9C190.1,903.3,186.9,906.9,183,909.4z M972.4,995.3
				c3.3,3.2,6.7,6.2,10,9.5c5.1-5.1,9.9-10.5,14.8-15.7c14.1,12.9,28,26,42,39c4.5-4.9,9.1-9.7,13.6-14.7
				c-14-12.9-27.8-26-41.8-38.8c4.8-5.7,10.2-11,15.2-16.6c-3.4-3.1-6.7-6.2-10.1-9.3C1001.5,964.2,987,979.8,972.4,995.3z
				 M173.1,990.1c4.4,4.9,8.9,9.7,13.5,14.5c4.4-2.1,8.9-4.2,13.3-6.3c5.9,6.4,11.8,12.8,17.8,19.1c0.7,0.9,2.4,2,1.1,3.3
				c-2.1,3.9-4,7.8-6.2,11.6c4.8,5.6,9.9,11,15.1,16.3c10.8-23,21.8-46,32.8-68.9c-5.5-5.9-10.9-11.9-16.5-17.7
				C220.5,971.6,196.8,980.8,173.1,990.1z M274.3,993.8c-2.5,17.4-4.7,34.8-7.3,52.2c-5.1,6.9-10.8,13.5-16.2,20.2
				c4.9,4.4,10.1,8.3,15.2,12.4c5.5-6.7,10.7-13.5,16.4-20c16.6-6.1,33.4-11.7,50-17.7c-5.1-4.4-10.5-8.4-15.6-12.8
				c-10.5,4.2-21,8.7-31.5,12.9c2.3-11,4.5-22,6.8-33C286.1,1003.3,280.3,998.5,274.3,993.8z M953.2,1011.2
				c15.6,17.9,31.2,35.9,46.8,53.8c5-4.3,10-8.7,15-13c-15.6-18-31.2-35.9-46.8-53.8C963.2,1002.5,958.2,1006.8,953.2,1011.2z
				 M925.1,1030.9c-7.2,5.1-14,11.8-16.4,20.6c-1.9,7.1,1.5,14.5,6.5,19.4c3.9,3.7,9.8,4.7,14.9,3.8c8.1-1.6,15.5-5.4,23.4-8
				c3.1-1,7.3-1.5,9.6,1.3c2.5,2.6,1.4,6.8-0.8,9.3c-2.8,3.3-6.7,6.3-11.2,6.2c-3.1-0.1-5.6-2.2-7.7-4.3
				c-5.1,3.9-10.3,7.6-15.5,11.2c4.1,6.8,12.3,11.6,20.4,10.2c8.8-1.5,16.6-6.4,23.3-12.1c6.1-5.6,11.7-12.9,12-21.5
				c-0.1-10.6-9.3-21.4-20.5-20.4c-9.2,1-17.3,6.3-26.1,8.8c-2.4,0.6-5,1-7.3-0.1c-2.6-1.4-3.4-4.9-2.1-7.5c2.1-4.5,7.3-8,12.3-6.8
				c1.9,0.4,3.1,2,4.5,3.3c5.3-3.7,10.5-7.6,15.8-11.4c-3.1-4.5-7.6-8.8-13.3-9.4C939,1022.8,931.4,1026.5,925.1,1030.9z
				 M298.2,1104.1c10.6,6,21,12.3,31.6,18.1c6.8,3.4,15.1,6.3,22.5,3.1c7.3-3.5,12.1-12.2,10.1-20.2c-1.3-4.4-4.6-7.9-7.8-11.1
				c4.2,1,8.7,1.9,12.9,0.4c9.1-2.9,13.7-15.3,8.3-23.3c-3.8-5.1-8.9-9.3-14.3-12.6c-9.2-5.4-18.5-10.7-27.8-16
				C322,1063,310.1,1083.5,298.2,1104.1z M873.5,1066.5c-9.1,5.2-18.2,10.5-27.4,15.8c11.9,20.6,23.7,41.1,35.7,61.7
				c5.7-3.3,11.5-6.7,17.2-10c-4.5-7.8-8.9-15.7-13.6-23.3c4-2.5,8-5.1,12.6-6.4c2.5-0.8,4.7,1,6.1,2.9c4.2,5.5,8.2,11.3,12.9,16.4
				c6.2-3.6,12.3-7.2,18.5-10.7c-7.8-6.4-12.1-16.1-20.3-21.9c-4.4-3.2-9.8-0.9-14.1,1.2c4.8-4.1,9.3-9.5,9.3-16.1
				c-0.3-8-6.6-16.7-15.3-16.6C887.4,1059.7,880.1,1062.8,873.5,1066.5z M410.2,1083.9c-18.4,17.6-37.3,34.9-55.4,52.8
				c6,2.6,11.9,5.5,17.8,8.2c3.3-3.6,6.7-7.1,10-10.6c8.7,4.1,17.4,8.2,26.2,12.2c-0.3,4.9-1,9.8-1.4,14.7
				c6.6,3.1,13.2,6.2,19.8,9.3c1.9-25.4,3.2-50.9,4.8-76.3C424.8,1090.7,417.5,1087.4,410.2,1083.9z M789.1,1104.1
				c8.8,22,17.8,43.9,26.5,65.9c16.9-6.4,33.6-13.6,50.4-20.2c-1.7-4.3-3.4-8.6-5.1-12.9c-10.7,4.2-21.4,8.6-32,12.8
				c-1.8-4.7-3.7-9.3-5.5-13.9c9.8-3.9,19.5-7.9,29.3-11.8c-1.6-4.4-3.5-8.6-5.1-12.9c-9.9,3.8-19.6,7.9-29.4,11.8
				c-1.9-4.4-3.6-9-5.6-13.4c10.5-4.5,21.2-8.7,31.8-12.9c-1.5-4.4-3.2-8.8-5.2-13C822.5,1090.6,805.8,1097.3,789.1,1104.1z
				 M768.1,1110.5c-1.6,18.1-2.8,36.3-4.2,54.4c-9.4-15.3-18.8-30.7-28-46.1c-7.1,1.6-14,3.5-21,5.2c13.7,21.1,27.7,42,41.4,63
				c7.6-1.9,15.3-3.7,22.9-5.7c2.6-25.2,5.3-50.3,8-75.5C780.8,1107.3,774.5,1109,768.1,1110.5z M462,1111
				c-6.6,2.5-11.7,8-14.6,14.3c-4.7,10.1-8.5,21.6-6,32.8c1.5,8.4,7.1,15.9,14.8,19.8c10.2,5,22,8.2,33.3,5.3
				c7.5-1.8,13.4-8.2,15.3-15.5c-6.6-1.8-13.1-3.7-19.6-5.6c-1.5,2.6-3.1,5.4-6.1,6.4c-6.5,1.5-15.5-0.3-17.5-7.6
				c-1.9-6.8,0-14,2.1-20.6c1.8-5.1,3.7-10.3,7.5-14.2c7.5-7.3,23.5-0.2,21.1,10.8c6.5,1.9,13.1,3.6,19.6,5.8
				c2-5.7,1.5-12.5-1.9-17.6c-3.5-5.6-9.5-8.7-15.1-11.6C484.6,1109.1,472.6,1106.6,462,1111z M691,1127.1
				c4.5,23.3,9.1,46.5,13.6,69.8c6.5-1.1,13-2.5,19.5-3.7c-4.5-23.3-9.1-46.6-13.6-69.9C703.9,1124.6,697.4,1125.9,691,1127.1z
				 M548.4,1126.1c-1.2,15-2.7,30-4,45c-0.6,6.7,1.2,13.8,5.8,18.8c6,6.9,15,10.3,23.9,11.4c8.3,0.9,17.1,0.4,24.7-3.4
				c7.4-3.7,12.3-11.4,13.5-19.4c1.7-14.5,2.2-29.2,4.3-43.6c1.7,23,4,45.9,5.9,68.8c6-0.5,11.9-1.1,17.9-1.6c-1.5-18-2.8-36-4.6-54
				c9.9,17.1,19.1,34.5,28.6,51.8c9.2-0.6,18.3-1.6,27.4-2.3c-2-23.6-4.1-47.3-6.2-70.9c-5.9,0.5-11.8,1-17.7,1.5
				c1.6,17.7,3.1,35.3,4.7,52.9c-9.8-16.8-19-33.9-28.6-50.8c-8.7,0.7-17.3,1.7-26,2.3c-7-1.3-14.2-1.6-21.3-2.2
				c-1.2,14.3-2.5,28.5-3.8,42.8c-0.5,5.4-2.6,11.6-8.1,13.7c-6.7,2.4-15.9,0.6-19.1-6.4c-2.5-5.1-1.2-11-0.8-16.4
				c1-12.1,2.3-24.2,3-36.3C561.4,1127.4,554.9,1126.4,548.4,1126.1z"/>
		</g>
		<path class="st3" d="M213.3,992.8c9.5-4.4,19-8.9,28.5-13.2c-4.8,9.1-10.3,17.7-15.2,26.7C221.6,1002.5,217.9,997.2,213.3,992.8z"
			/>
		<path class="st3" d="M336.8,1076.9c2.4-4.2,4.8-8.3,7.2-12.5c4,2.5,8.6,4.4,12.1,7.7c4.7,4.4-0.8,13.2-6.8,11.5
			C344.8,1082.1,341,1079,336.8,1076.9z"/>
		<path class="st3" d="M870.3,1084.5c4.6-2.9,9.2-6.4,14.7-7.2c6.1-0.8,10.3,7.6,6.5,12.2c-3.4,4.2-8.6,6.1-13.1,8.8
			C875.8,1093.7,873.2,1089,870.3,1084.5z"/>
		<path class="st3" d="M322.4,1102c2.4-4.6,5.1-9,7.7-13.4c4.1,2.4,8.4,4.5,12.2,7.3c4.8,4.3,1.3,13.8-5.3,13.4
			C331.5,1108.4,327.3,1104.3,322.4,1102z"/>
		<path class="st3" d="M393.3,1124c7-7.8,14.2-15.5,21.4-23.1c-1.3,10.3-3,20.6-4.3,31C404.6,1129.4,399,1126.6,393.3,1124z"/>
	</g>
	<g>
		<path class="st4" d="M82.3,902.6c1.4,2.2,2.7,4.6,3.7,7C84,907.8,83.1,905.1,82.3,902.6z"/>
	</g>
	<g>
		<path class="st5" d="M86.4,910.4c0,0.1,0.1,0.2,0.1,0.3C86.5,910.6,86.5,910.5,86.4,910.4z"/>
	</g>
	<g>
		<path class="st6" d="M491.7,1220c4.4,0.5,8.7,1.5,12.9,2.8C500.2,1222.4,495.8,1221.6,491.7,1220z"/>
	</g>
</g>
</svg>
