<?xml version="1.0" encoding="UTF-8"?>
<svg id="Layer_1" data-name="Layer 1" xmlns="http://www.w3.org/2000/svg" viewBox="0 0 400 299.17">
  <defs>
    <style>
      .cls-1 {
        fill: #fff;
      }

      .cls-2 {
        fill: #fd0;
      }

      .cls-3 {
        fill: #ae1c3f;
      }

      .cls-4 {
        fill: #053e2b;
      }
    </style>
  </defs>
  <g>
    <path class="cls-1" d="m97.59,5.39h197.33c3.91.43,7.53,3.14,8.72,6.94.73,2.21.47,4.58.52,6.87-.01,61.58,0,123.17,0,184.76-.07,2.91.37,6.01-.99,8.71-1.47,3.2-4.73,5.31-8.18,5.75H97.71c-4.71-.46-8.72-4.34-9.22-9.07V14.51c.47-4.71,4.43-8.58,9.1-9.12Zm11.66,10.68c-4.8,1.22-8.8,5.18-9.96,10-.6,2.28-.43,4.66-.46,6.99.01,36.7-.02,73.4,0,110.11,1.21-.82,2.22-1.89,3.24-2.92,23.17-22.9,46.36-45.79,69.52-68.69.25,2.33.99,4.58,1.95,6.71-24.89,24.64-49.77,49.28-74.7,73.88-.07,13.29,0,26.59-.04,39.89,0,1.9-.04,3.83.48,5.68,1.19,4.8,5.15,8.76,9.93,10.01,2.24.65,4.59.52,6.89.54,12.95,0,25.91,0,38.87,0,17.93-17.66,35.81-35.4,53.75-53.06-.59,2.44-.89,4.93-.78,7.44-3.85,1.55-7.91,2.99-10.97,5.91-3.51,3.19-5.45,7.84-5.72,12.52-1.05.97-2.07,1.97-3.03,3.03-4.34,1.09-8.96,1.89-12.71,4.49-4.63,3.82-6.99,9.8-7.55,15.66-1.55,1.19-2.88,2.63-4.25,4.02,38.63-.03,77.26.02,115.9-.02,5.9.05,11.54-3.96,13.42-9.55,1-2.74.73-5.69.77-8.54,0-36.82.01-73.63.02-110.44-21.1,20.82-42.18,41.68-63.28,62.5-.21-2.48-3.25-5-1.25-7.32,21.48-21.27,43-42.52,64.52-63.75.02-13.97.04-27.93,0-41.9-.02-7.21-6.43-13.52-13.61-13.62-14.4-.07-28.81.02-43.22-.04-16.04,15.81-32.05,31.67-48.05,47.52-.31-1.94-.93-3.81-1.82-5.56,5.23-2.87,10.48-6.98,11.89-13.09,1.77-1.67,3.49-3.39,5.19-5.11,3.15-1.34,6.28-2.79,9.14-4.69,3.98-2.49,6.09-7.03,7.18-11.44,2.6-2.52,5.18-5.06,7.72-7.65-37.35,0-74.71,0-112.06,0-2.31.02-4.66-.14-6.91.5Z"/>
    <path class="cls-4" d="m109.25,16.06c2.25-.64,4.61-.48,6.91-.5,37.35,0,74.71,0,112.06,0-2.54,2.59-5.12,5.13-7.72,7.65.37-2.02.42-4.08.41-6.13-7.88.16-16.19,2.02-22.27,7.33-3.36,2.87-5.39,6.94-6.49,11.15-6.33,2.11-12.55,6.01-15.36,12.32-1.78,3.5-1.9,7.47-2,11.31-1.98,3.81-3.83,7.93-3.2,12.37-23.16,22.91-46.35,45.79-69.52,68.69-1.02,1.04-2.03,2.1-3.24,2.92-.01-36.71.02-73.41,0-110.11.03-2.34-.14-4.71.46-6.99,1.16-4.83,5.16-8.79,9.96-10Z"/>
    <path class="cls-4" d="m199.34,41.27c1.61-.65,3.24-1.28,4.85-1.93-1.7,1.72-3.42,3.44-5.19,5.11.14-1.06.24-2.12.35-3.18Z"/>
    <path class="cls-4" d="m230.53,142.2c21.1-20.82,42.18-41.68,63.28-62.5,0,36.81-.02,73.62-.02,110.44-.04,2.85.23,5.8-.77,8.54-1.88,5.59-7.52,9.6-13.42,9.55-38.63.04-77.26,0-115.9.02,1.36-1.39,2.7-2.83,4.25-4.02-.03.99-.04,1.97-.05,2.95,3.95-1.27,7.82-2.8,11.9-3.66,5.51-1.01,11.15-2.77,15.3-6.72,3.63-3.26,5.28-8.14,5.39-12.93,5.01-2.04,10.73-3.19,14.57-7.3,3.34-3.39,4.71-8.11,5.42-12.69,2.72-2.1,5.61-4.17,7.41-7.18,2.83-4.21,3.91-9.56,2.65-14.51Z"/>
    <path class="cls-4" d="m188.22,184.09c.96-1.06,1.98-2.06,3.03-3.03-.01.83-.03,1.67-.04,2.49-1,.18-2,.35-2.99.53Z"/>
    <path class="cls-3" d="m236.97,15.57c14.41.06,28.82-.03,43.22.04,7.18.09,13.59,6.41,13.61,13.62.04,13.97.02,27.93,0,41.9-21.52,21.23-43.04,42.48-64.52,63.75-2,2.33,1.04,4.85,1.25,7.32,1.26,4.95.18,10.3-2.65,14.51-1.8,3.01-4.69,5.08-7.41,7.18-.7,4.59-2.08,9.31-5.42,12.69-3.83,4.11-9.56,5.27-14.57,7.3-.1,4.78-1.76,9.66-5.39,12.93-4.15,3.95-9.79,5.71-15.3,6.72-4.07.86-7.95,2.39-11.9,3.66.01-.99.03-1.97.05-2.95.57-5.86,2.92-11.84,7.55-15.66,3.75-2.6,8.37-3.4,12.71-4.49.99-.19,1.99-.36,2.99-.53,0-.83.03-1.67.04-2.49.27-4.68,2.21-9.33,5.72-12.52,3.06-2.92,7.12-4.35,10.97-5.91-.11-2.51.19-5,.78-7.44-17.94,17.66-35.81,35.4-53.75,53.06-12.96,0-25.92,0-38.87,0-2.3-.02-4.65.11-6.89-.54-4.78-1.25-8.73-5.21-9.93-10.01-.52-1.85-.48-3.78-.48-5.68.04-13.3-.03-26.59.04-39.89,24.93-24.6,49.81-49.24,74.7-73.88-.97-2.13-1.7-4.38-1.95-6.71-.63-4.44,1.22-8.55,3.2-12.37.11-3.83.23-7.8,2-11.31,2.81-6.3,9.02-10.21,15.36-12.32,1.09-4.22,3.13-8.28,6.49-11.15,6.08-5.31,14.39-7.17,22.27-7.33.01,2.05-.04,4.11-.41,6.13-1.09,4.41-3.2,8.95-7.18,11.44-2.86,1.9-5.99,3.34-9.14,4.69-1.61.65-3.24,1.28-4.85,1.93-.11,1.06-.21,2.12-.35,3.18-1.41,6.11-6.66,10.22-11.89,13.09.89,1.75,1.51,3.62,1.82,5.56,16.01-15.85,32.01-31.71,48.05-47.52Zm-38.63,11.05c-3.91,4.02-5.4,9.77-5.34,15.25,6.4-1.97,12.73-4.34,18.54-7.69,5.54-3.04,7.97-9.68,8.03-15.7-7.65.38-15.79,2.43-21.24,8.14Zm-19.22,19.81c-3.04,4.74-3.41,10.7-2.29,16.09,4.3-3.24,9.09-5.71,13.57-8.68,4.05-2.75,7.38-7.08,7.62-12.12-2.09.7-4.19,1.43-6.31,2.02-.07-2.22,0-4.45.19-6.66-5,1.83-9.92,4.69-12.77,9.34Zm-2.93,18.74c-.31-1.19-.53-2.43-1.28-3.43-1.72,3.36-2.55,7.25-1.77,10.99.9,5.49,4.93,9.68,8.7,13.46,1.75-3.34,2.56-7.09,3.86-10.63,1.95-5.48,3.17-11.96.2-17.31-3.38,2.09-6.96,3.98-9.72,6.91Zm6.65,23c-1.46-.79-2.79-1.81-4.07-2.87-.02,2.32.19,4.74,1.43,6.76,2.09,3.64,5.96,5.71,9.72,7.28,3.86,1.55,7.52,3.54,11.14,5.6.55-4.91-.13-10.16-3.02-14.28-3-4.46-7.89-7.15-12.86-8.85-.9,2.07-1.57,4.24-2.34,6.36Zm19.31,19.03c-1.94-1.12-3.86-2.29-5.86-3.3,1.02,3.61,3.03,7.3,6.57,8.94,5.57,2.82,11.39,5.12,16.9,8.04.47-4.48-.03-9.23-2.51-13.1-3.27-5.43-9.12-8.51-14.89-10.63.26,3.35.34,6.72-.21,10.04Zm18.34,16.04c-2.48-1.6-4.97-3.29-7.82-4.12-1.87,8.94,4.41,16.31,7.44,24.14.44.7.38,1.92,1.28,2.22,4.6-3.69,7.09-9.82,6.1-15.67-.45-4.62-3.25-8.48-6.08-11.96-.18,1.82-.45,3.63-.9,5.39Zm7.34,15.72c-1.63,3.73-4.33,6.94-7.77,9.12-.23-1.23-.35-2.51-1.08-3.56-2.96,2.73-6.44,5.2-8.09,9.01-2.33,5.03-1.8,10.83-.16,15.98,2.26-1.37,4.14-3.26,6.3-4.76,3.59-2.87,7.8-5.3,10.08-9.44,3.03-4.83,3.59-11.33.71-16.35Zm-31.42,32.14c-3.37,3.92-4.36,9.36-3.67,14.38,5.55-2.53,11.46-4.16,17-6.67,5.25-2.5,8.28-8.06,9.11-13.64-3.01,2.07-5.84,4.37-8.47,6.91-1.21-2.53-1.83-5.26-2.39-7.99-4.23,1.58-8.66,3.38-11.58,6.99Zm-4.59,16.59c-.15-.9-.3-1.8-.45-2.7-4.95.9-10.1,1.78-14.51,4.32-4.98,3.64-7.26,9.99-7.56,15.96,3.97-1.38,7.96-2.7,12.09-3.51,4.78-.88,9.53-2.78,13.04-6.24,3.01-2.88,4.49-7.01,4.67-11.12-2.53.86-4.99,1.91-7.28,3.29Z"/>
    <path class="cls-2" d="m198.34,26.63c5.45-5.71,13.59-7.75,21.24-8.14-.06,6.02-2.49,12.66-8.03,15.7-5.81,3.34-12.15,5.72-18.54,7.69-.07-5.48,1.42-11.23,5.34-15.25Z"/>
    <path class="cls-2" d="m179.12,46.44c2.85-4.65,7.77-7.51,12.77-9.34-.19,2.21-.26,4.44-.19,6.66,2.12-.6,4.22-1.33,6.31-2.02-.23,5.05-3.57,9.38-7.62,12.12-4.47,2.97-9.27,5.44-13.57,8.68-1.12-5.4-.74-11.36,2.29-16.09Z"/>
    <path class="cls-2" d="m176.19,65.18c2.76-2.93,6.33-4.83,9.72-6.91,2.97,5.35,1.75,11.83-.2,17.31-1.29,3.53-2.11,7.28-3.86,10.63-3.77-3.78-7.8-7.97-8.7-13.46-.79-3.75.04-7.63,1.77-10.99.75,1,.97,2.24,1.28,3.43Z"/>
    <path class="cls-2" d="m182.85,88.18c.77-2.12,1.43-4.29,2.34-6.36,4.97,1.7,9.87,4.4,12.86,8.85,2.88,4.12,3.56,9.37,3.02,14.28-3.62-2.06-7.28-4.05-11.14-5.6-3.75-1.56-7.62-3.63-9.72-7.28-1.24-2.02-1.45-4.44-1.43-6.76,1.28,1.06,2.6,2.07,4.07,2.87Z"/>
    <path class="cls-2" d="m202.16,107.21c.55-3.32.47-6.69.21-10.04,5.77,2.12,11.62,5.2,14.89,10.63,2.48,3.86,2.98,8.62,2.51,13.1-5.52-2.93-11.34-5.22-16.9-8.04-3.54-1.65-5.55-5.34-6.57-8.94,2,1.01,3.92,2.17,5.86,3.3Z"/>
    <path class="cls-2" d="m220.5,123.25c.45-1.77.72-3.58.9-5.39,2.83,3.48,5.64,7.34,6.08,11.96,1,5.85-1.5,11.98-6.1,15.67-.9-.31-.84-1.53-1.28-2.22-3.04-7.82-9.31-15.2-7.44-24.14,2.85.83,5.35,2.53,7.82,4.12Z"/>
    <path class="cls-2" d="m227.84,138.97c2.88,5.02,2.32,11.52-.71,16.35-2.28,4.15-6.49,6.58-10.08,9.44-2.16,1.5-4.05,3.39-6.3,4.76-1.64-5.15-2.17-10.95.16-15.98,1.65-3.81,5.13-6.28,8.09-9.01.73,1.05.85,2.34,1.08,3.56,3.44-2.19,6.13-5.4,7.77-9.12Z"/>
    <path class="cls-2" d="m196.42,171.11c2.92-3.61,7.35-5.42,11.58-6.99.55,2.73,1.18,5.46,2.39,7.99,2.63-2.54,5.46-4.85,8.47-6.91-.82,5.57-3.86,11.14-9.11,13.64-5.55,2.51-11.46,4.14-17,6.67-.69-5.02.3-10.46,3.67-14.38Z"/>
    <path class="cls-2" d="m191.82,187.7c2.29-1.38,4.75-2.43,7.28-3.29-.18,4.11-1.66,8.24-4.67,11.12-3.51,3.46-8.26,5.36-13.04,6.24-4.13.8-8.13,2.12-12.09,3.51.3-5.98,2.58-12.32,7.56-15.96,4.41-2.55,9.56-3.42,14.51-4.32.15.9.3,1.8.45,2.7Z"/>
  </g>
  <path class="cls-3" d="m257.19,249.17c.46-.02.92-.03,1.39-.03,5.46,11.8,10.94,23.59,16.44,35.37,1.03,1.83,1.83,4.02,3.79,5.06,1.15.7,2.51.85,3.83.95,0,.46,0,.93,0,1.4-6.17.09-12.35.01-18.52.04-.01-.47-.02-.94-.03-1.4,1.37-.22,2.88-.14,4.08-.95,1.18-1.24.36-2.99-.13-4.35-1.07-2.42-2.21-4.8-3.35-7.2-5.86-.02-11.72-.04-17.58.01-.71.9-1.03,2.08-1.58,3.1-.92,2.1-2.2,4.09-2.68,6.37-.31.95.41,1.89,1.24,2.28,1.29.51,2.69.55,4.06.71-.02.47-.03.95-.03,1.43-4.95-.01-9.9.02-14.85-.01,0-.48,0-.95,0-1.42,1.53-.29,3.31-.43,4.4-1.69,1.21-1.39,2.03-3.05,2.89-4.67,5.54-11.67,11.07-23.34,16.62-35Zm-8.94,26.29c5.11.03,10.23.03,15.35,0-2.49-5.41-5.04-10.79-7.54-16.21-2.69,5.36-5.2,10.8-7.81,16.2Z"/>
  <path class="cls-3" d="m80.24,249.51c4.96-.64,10.1.27,14.5,2.65.45-.64.88-1.3,1.3-1.95.93-.02,1.85-.01,2.78.04.12,4.95.11,9.89.27,14.84-.97,0-1.93,0-2.9-.02-1.13-4.06-2.69-8.38-6.29-10.91-2.93-2.12-6.81-2.42-10.27-1.68-3.19.65-5.99,2.71-7.78,5.41-2.77,4.24-3.53,9.46-3.37,14.44.24,5.1,1.74,10.51,5.65,14.03,4.4,4.1,11.34,4.69,16.66,2.13.62-.34,1.42-.77,1.42-1.58.19-2.54.14-5.09.12-7.63.01-1.14-.4-2.5-1.6-2.9-1.87-.69-3.9-.84-5.88-.95,0-.84,0-1.67-.01-2.5,6.69,0,13.38,0,20.07,0,.03.82.04,1.64.02,2.47-1.78.27-3.81.2-5.25,1.46-.58.88-.67,1.99-.65,3.03.03,3.12-.07,6.25.2,9.37-5.02,2.03-10.34,3.52-15.77,3.65-4.74.21-9.57-1.03-13.59-3.56-4.94-3.25-8.49-8.62-9.2-14.53-.78-5.16.2-10.61,2.93-15.09,3.5-5.81,9.94-9.58,16.65-10.24Z"/>
  <path class="cls-3" d="m35.48,249.62l2.69.02c5.16,12.15,10.19,24.35,15.36,36.49,1.12,2.44,3.86,3.31,6.34,3.52,0,.77-.01,1.55-.02,2.32-6.36.01-12.71-.03-19.07.02,0-.8,0-1.59.02-2.38,1.94-.16,3.96-.28,5.73-1.17-.05-.72-.09-1.46-.4-2.13-1.19-2.86-2.32-5.75-3.5-8.61-5.2-.04-10.4-.05-15.6,0-1.02,2.55-2.08,5.11-2.81,7.76-.18.92-.56,2.15.42,2.76,1.72,1.1,3.85,1.13,5.82,1.4,0,.77,0,1.55,0,2.32-5.7,0-11.41,0-17.12,0v-2.49c2.85.13,5.88-1.42,6.97-4.17,5.24-11.82,10.12-23.79,15.19-35.69Zm-7.27,25.18c4.4-.1,8.81-.1,13.21,0-2.3-5.14-4.39-10.37-6.66-15.52-2.23,5.15-4.23,10.41-6.55,15.52Z"/>
  <path class="cls-3" d="m159.58,249.78c6.86,0,13.71,0,20.57,0,0,.72,0,1.45-.05,2.17-1.72.1-3.44.26-5.1.72-1,.25-1.66,1.3-1.56,2.32-.02,10.41,0,20.83,0,31.24-.04.72.13,1.44.45,2.09,1.83,1.24,4.13,1.27,6.26,1.48,0,.72,0,1.44,0,2.17-6.86,0-13.72.02-20.58,0,0-.73,0-1.45,0-2.17,2.09-.19,4.36.06,6.24-1.07.38-.66.54-1.41.51-2.17,0-9.9,0-19.81,0-29.71-.04-1.14.02-2.32-.47-3.38-1.96-.97-4.15-1.25-6.28-1.55,0-.71.01-1.42.02-2.13Z"/>
  <path class="cls-3" d="m111.36,250.23c6.91-.05,13.82,0,20.73-.02,3.6,0,7.33.59,10.45,2.5,1.8,1.3,3.45,3.07,3.88,5.33.69,3.18.05,6.87-2.37,9.2-2.29,2.23-5.36,3.55-8.44,4.27,1.17,1,1.99,2.33,3.01,3.47,2.51,3.18,5.06,6.33,7.6,9.49,1.34,1.91,3.16,3.55,5.34,4.43,1.25.51,2.62.55,3.94.75,0,.77,0,1.54,0,2.31-4.09.03-8.18,0-12.27.01-2.64-3.6-5.14-7.32-7.91-10.83-2.18-2.58-4.09-5.4-6.48-7.8-1.41-.23-2.87-.04-4.29-.1-.07,4.44-.03,8.89,0,13.33-.03.88.31,1.94,1.22,2.26,1.58.64,3.31.63,4.98.77,0,.8,0,1.6-.04,2.4-6.43-.05-12.86-.05-19.29,0-.05-.8-.06-1.6-.05-2.4,1.84-.32,4.2.14,5.54-1.44.48-.75.47-1.68.49-2.54,0-9.69,0-19.37,0-29.06-.03-1.04-.05-2.35-1.08-2.93-1.56-.68-3.29-.82-4.96-1,0-.81,0-1.6,0-2.4Zm13.2,2.71c-.05,5.82-.03,11.64,0,17.47,3.14-.04,6.5.32,9.36-1.29,3.21-1.57,4.9-5.29,4.58-8.77.03-2.89-1.84-5.67-4.54-6.69-3-1.11-6.26-.57-9.38-.71Z"/>
  <path class="cls-3" d="m187.36,250.09c7.27.07,14.53-.02,21.8.04,4.54.04,9.3.55,13.24,3,2.22,1.55,4.14,3.85,4.58,6.6.49,2.46-.18,5.16-1.85,7.05-1.5,1.89-3.69,3.08-5.95,3.81,2.94.52,5.99,1.66,7.92,4.07,2.18,2.36,2.74,6,1.59,8.97-.88,2.39-2.72,4.29-4.8,5.69-3.46,2.1-7.6,2.42-11.55,2.62-8.32.05-16.63-.02-24.95.04,0-.51,0-1,.02-1.5,1.7.07,3.54.17,5.07-.71,1.58-1.04,1.55-3.12,1.59-4.8,0-9.47.03-18.94-.02-28.41-.09-1.46-.06-3.36-1.5-4.19-1.54-.99-3.45-.83-5.19-.81,0-.49,0-.99,0-1.47Zm13.62,3.02c0,5.24,0,10.48,0,15.72,1.46.18,2.93.37,4.41.34,2.2-.05,4.43.14,6.61-.26,2-.28,4.07-.96,5.48-2.47,2.42-2.32,2.87-6.36,1.1-9.18-1.37-2.2-3.8-3.52-6.25-4.16-3.72-.88-7.64-.79-11.37.01Zm.02,19.19c-.04,5.46,0,10.92-.02,16.38,3.6.75,7.32.99,10.98.59,2.96-.38,6.04-1.6,7.76-4.15,1.73-2.31,1.67-5.6.28-8.06-1.11-2.27-3.46-3.61-5.78-4.36-3.86-1.34-8-.98-12.01-.94-.38.12-1.3-.13-1.21.53Z"/>
  <path class="cls-3" d="m282.13,250.08c4.26.05,8.53.01,12.79.02,1.69,2.01,3.61,3.84,5.21,5.92l.06-.08c7.55,8.35,15.08,16.73,22.69,25.02-.01-8.25,0-16.5,0-24.75-.04-1.21-.22-2.5-.88-3.54-1.59-1.26-3.73-1.17-5.64-1.13,0-.49,0-.98,0-1.46,5.46.03,10.93,0,16.4.02,0,.47-.01.95-.01,1.42-1.94,0-4.2-.15-5.69,1.35-.79,1.16-.71,2.63-.8,3.97-.06,11.93.03,23.87-.04,35.81-.68-.02-1.46.08-1.88-.57-9.94-10.91-19.88-21.82-29.78-32.76.06,7.6,0,15.2.03,22.79.02,2.11-.14,4.28.44,6.34.22.88,1.08,1.39,1.87,1.69,1.37.45,2.84.32,4.26.39,0,.46-.02.93-.02,1.4-5.47.02-10.94-.02-16.4.02,0-.5,0-.99,0-1.48,1.96.08,4.25.15,5.77-1.31.71-1.27.75-2.8.79-4.22,0-9.75,0-19.51,0-29.26-1.05-.9-1.88-2.08-3.12-2.72-1.82-1.05-3.94-1.53-6.03-1.42,0-.5,0-.99,0-1.48Z"/>
  <path class="cls-3" d="m334.56,250.08c6.67.06,13.34,0,20.01.03,0,.48-.01.95-.01,1.44-1.95-.1-4.1.02-5.68,1.3-.77.94-.71,2.25-.79,3.4-.1,4.6.03,9.2-.07,13.8,2.35-2.01,4.78-3.92,7.09-5.99,2.56-2.05,5.07-4.18,7.41-6.49,1.19-1.24,2.63-2.42,3.01-4.18.09-.45-.21-.82-.33-1.22-1.18-.64-2.53-.69-3.84-.63,0-.48,0-.96,0-1.44,5.76.02,11.51,0,17.28,0-.01.47-.02.94-.02,1.42-3.11.03-5.96,1.53-8.37,3.37-2.61,1.87-4.81,4.23-7.23,6.34-2.4,2.25-4.89,4.38-7.32,6.61-.3.33-.77.58-.89,1.04,3.95,3.64,8.02,7.16,11.99,10.78,3.11,2.66,5.98,5.63,9.4,7.9,2.51,1.72,5.47,2.77,8.51,2.97-.03.48-.05.97-.07,1.45-7.42-.05-14.85-.03-22.27,0,.01-.5.03-.99.05-1.48,1.14-.07,2.54.05,3.35-.93.66-.63.32-1.68-.09-2.35-1.14-1.35-2.61-2.34-3.85-3.58-4.61-4.06-9.16-8.19-13.78-12.23.08,4.73-.03,9.47.05,14.2.07,1.13.02,2.33.57,3.36,1.56,1.5,3.88,1.66,5.94,1.55-.01.48-.02.96-.03,1.44-6.67,0-13.33-.03-20,.02,0-.51.03-1,.04-1.5,1.89.09,4.07.16,5.6-1.15.95-1.08.88-2.67.99-4.03.02-9.59.01-19.18,0-28.77-.11-1.32.02-2.98-1.16-3.88-1.56-1.14-3.6-1.2-5.46-1.08,0-.5,0-1,0-1.5Z"/>
</svg>