<?xml version="1.0" encoding="UTF-8"?>
<svg id="Layer_1" data-name="Layer 1" xmlns="http://www.w3.org/2000/svg" xmlns:xlink="http://www.w3.org/1999/xlink" viewBox="0 0 400 299.17">
  <defs>
    <style>
      .cls-1 {
        fill: url(#linear-gradient-2);
      }

      .cls-2 {
        fill: #fff;
      }

      .cls-3 {
        fill: #fdb913;
      }

      .cls-4 {
        fill: url(#linear-gradient-6);
      }

      .cls-5 {
        fill: #ab002f;
      }

      .cls-6 {
        fill: url(#linear-gradient-11);
      }

      .cls-7 {
        fill: url(#linear-gradient-10);
      }

      .cls-8 {
        fill: url(#linear-gradient-5);
      }

      .cls-9 {
        fill: #2d2f34;
      }

      .cls-10 {
        fill: url(#linear-gradient-7);
      }

      .cls-11 {
        fill: url(#linear-gradient-9);
      }

      .cls-12 {
        fill: url(#linear-gradient-3);
      }

      .cls-13 {
        fill: url(#linear-gradient);
      }

      .cls-14 {
        fill: url(#linear-gradient-4);
      }

      .cls-15 {
        fill: url(#linear-gradient-8);
      }

      .cls-16 {
        fill: url(#linear-gradient-12);
      }
    </style>
    <linearGradient id="linear-gradient" x1="198.06" y1="182.84" x2="198.06" y2="71.33" gradientUnits="userSpaceOnUse">
      <stop offset="0" stop-color="#f0f3f5"/>
      <stop offset=".06" stop-color="#e1e4e8"/>
      <stop offset=".14" stop-color="#d4d7dc"/>
      <stop offset=".24" stop-color="#ccd0d6"/>
      <stop offset=".44" stop-color="#caced4"/>
      <stop offset=".57" stop-color="#b3b6bd"/>
      <stop offset=".84" stop-color="#787b82"/>
      <stop offset="1" stop-color="#52545c"/>
    </linearGradient>
    <linearGradient id="linear-gradient-2" x1="198.06" y1="97.88" x2="198.06" y2="37.45" xlink:href="#linear-gradient"/>
    <linearGradient id="linear-gradient-3" x1="218.11" y1="86.77" x2="180.39" y2="55.11" xlink:href="#linear-gradient"/>
    <linearGradient id="linear-gradient-4" x1="221.96" y1="139.44" x2="166.94" y2="107.67" xlink:href="#linear-gradient"/>
    <linearGradient id="linear-gradient-5" x1="178.75" y1="7.85" x2="178.75" y2="103.69" xlink:href="#linear-gradient"/>
    <linearGradient id="linear-gradient-6" x1="217.35" y1="7.85" x2="217.35" y2="103.69" xlink:href="#linear-gradient"/>
    <linearGradient id="linear-gradient-7" x1="218.52" y1="7.05" x2="218.52" y2="166.99" xlink:href="#linear-gradient"/>
    <linearGradient id="linear-gradient-8" x1="177.58" y1="7.05" x2="177.58" y2="166.99" xlink:href="#linear-gradient"/>
    <linearGradient id="linear-gradient-9" x1="198.05" y1="7.86" x2="198.05" y2="203.57" gradientUnits="userSpaceOnUse">
      <stop offset="0" stop-color="#f0f3f5"/>
      <stop offset=".25" stop-color="#edf0f2"/>
      <stop offset=".41" stop-color="#e5e8ea"/>
      <stop offset=".53" stop-color="#d6d9dc"/>
      <stop offset=".64" stop-color="#c2c5c8"/>
      <stop offset=".74" stop-color="#a8abaf"/>
      <stop offset=".84" stop-color="#888a8f"/>
      <stop offset=".93" stop-color="#63656b"/>
      <stop offset="1" stop-color="#3d3f46"/>
    </linearGradient>
    <linearGradient id="linear-gradient-10" x1="198.06" y1="7.85" x2="198.06" y2="203.58" xlink:href="#linear-gradient-9"/>
    <linearGradient id="linear-gradient-11" x1="198.05" y1="7.87" x2="198.05" y2="203.59" xlink:href="#linear-gradient-9"/>
    <linearGradient id="linear-gradient-12" x1="198.06" y1="48.45" x2="198.06" y2="104.23" gradientUnits="userSpaceOnUse">
      <stop offset="0" stop-color="#caced4"/>
      <stop offset="1" stop-color="#52545c"/>
    </linearGradient>
  </defs>
  <path class="cls-5" d="m201.13,261.9c-.05-17.15,13.77-30.99,31.04-31.02,16.85.03,30.68,13.87,31.02,31.02-.34,16.96-14.17,30.8-31.02,31.04-17.27-.24-31.09-14.08-31.04-31.04h0Zm31.04,19.6c9.32-.14,17.04-8.9,17.13-19.6-.1-10.91-7.81-19.67-17.13-19.6-9.72-.06-17.46,8.7-17.15,19.6-.31,10.7,7.43,19.46,17.15,19.6"/>
  <polyline class="cls-5" points="298.29 243.93 298.29 291.31 285.24 291.31 285.24 243.93 266.45 243.93 266.45 233.33 316.26 233.33 316.26 243.93 298.29 243.93"/>
  <path class="cls-5" d="m331.77,278.22h0l-4.89,13.08h-15.51l24.49-57.97h16.32l23.69,57.97h-15.51l-4.9-13.08h-23.7Zm12.27-9.79h8.15l-8.15-21.24-8.17,21.24h8.17"/>
  <polyline class="cls-5" points="58.23 243.93 58.23 291.31 45.17 291.31 45.17 243.93 27.21 243.93 27.21 233.33 76.2 233.33 76.2 243.93 58.23 243.93"/>
  <path class="cls-5" d="m79.47,261.9c.02-17.15,13.84-30.99,31.01-31.02,16.95.03,30.79,13.87,31.04,31.02-.25,16.96-14.09,30.8-31.04,31.04-17.17-.24-30.99-14.08-31.01-31.04h0Zm31.01,19.6c9.43-.14,17.14-8.9,17.15-19.6,0-10.91-7.72-19.67-17.15-19.6-9.63-.06-17.35,8.7-17.13,19.6-.23,10.7,7.5,19.46,17.13,19.6"/>
  <polyline class="cls-5" points="170.92 291.31 177.44 291.31 177.44 269.25 200.31 233.33 185.62 233.33 170.92 257.82 157.03 233.33 141.52 233.33 164.39 269.25 164.39 291.31 170.92 291.31"/>
  <path d="m37.72,105.72c0,55.32,71.93,100.32,160.33,100.32s160.33-45.01,160.33-100.32S286.46,5.4,198.06,5.4,37.72,50.4,37.72,105.72Zm4.92,0c0-52.6,69.72-95.39,155.41-95.39s155.41,42.79,155.41,95.39-69.72,95.4-155.41,95.4S42.64,158.33,42.64,105.72Z"/>
  <path d="m182.91,23.64c-37.53,2.29-64.78,12.24-69.43,25.34-.48,1.36-.72,2.74-.72,4.11,0,2.21.62,4.42,1.86,6.53,5.21,8.87,21.38,16.19,44.38,20.12l2.44.4.41-2.43c3.78-23.03,12.06-41.15,22.75-49.7l6.05-4.85-7.75.48Zm-64.04,33.51c-.8-1.36-1.2-2.71-1.2-4.04,0-.84.14-1.65.44-2.48h0c3.55-10.01,27.64-18.75,58.41-21.57-8.78,9.93-15.53,25.93-19.05,45.37-20-3.7-34.38-10.07-38.61-17.28Zm-5.39-8.17h0Z"/>
  <path d="m176.04,79.18l-.48,2.68,2.71.21c6.44.48,13.09.74,19.77.74s13.34-.26,19.78-.74l2.71-.21-.48-2.68c-3.7-20.79-11.94-33.2-22.01-33.2s-18.31,12.42-22.01,33.2Zm22.01-28.28c6.89,0,13.24,10.31,16.59,26.41-5.44.36-10.99.58-16.6.58s-11.15-.22-16.59-.58c3.34-16.1,9.71-26.41,16.59-26.41Z"/>
  <path d="m211.51,28.01c10.68,8.55,18.98,26.67,22.76,49.7l.4,2.43,2.43-.4c23.01-3.93,39.19-11.24,44.38-20.12,2.02-3.41,2.4-7.09,1.15-10.65-4.65-13.1-31.9-23.05-69.43-25.34l-7.74-.48,6.04,4.85Zm8.09,1.04c30.76,2.82,54.85,11.58,58.39,21.57.31.83.45,1.65.45,2.48,0,1.33-.4,2.67-1.19,4.04-4.24,7.21-18.63,13.58-38.61,17.28-3.52-19.44-10.26-35.44-19.04-45.37Z"/>
  <path d="m89.73,58.63c-16.86,14.13-25.78,30.91-25.78,48.54,0,41.48,50.58,76.54,117.64,81.54l7.49.56-5.7-4.87c-14.69-12.57-23.82-42.39-23.82-77.84l.15-8.37-2.06-.42c-35.28-6.32-60.37-21.16-63.94-37.77l-.86-3.99-3.13,2.61Zm-20.85,48.54c0-15.12,7.38-29.63,21.22-42.23,6.45,16.78,30.56,30.76,64.63,37.27-.04,1.92-.08,4.35-.08,4.35,0,32.86,7.8,61.25,20.66,76.56-61.11-6.52-106.43-38.44-106.43-75.95Z"/>
  <path d="m174.04,102.74v.89c-.01,32.94,10.32,57.8,24.01,57.8s24.02-24.86,24.02-57.8l-.03-3.55-2.64.23c-6.97.61-14.14.91-21.35.91s-14.39-.3-21.34-.91l-2.65-.24-.02,2.68Zm43.09,2.64c-.37,30.65-10.03,51.14-19.08,51.14s-18.71-20.48-19.07-51.14c6.26.46,12.65.75,19.07.75s12.81-.29,19.08-.75Z"/>
  <path d="m302.38,60.01c-3.57,16.61-28.67,31.44-63.93,37.77l-2.07.38.16,8.41c0,35.44-9.13,65.27-23.82,77.84l-5.7,4.87,7.48-.56c67.07-5,117.65-40.06,117.65-81.54,0-17.63-8.92-34.42-25.79-48.54l-3.12-2.61-.86,3.99Zm3.62,4.93c13.86,12.6,21.24,27.11,21.24,42.23,0,37.51-45.32,69.43-106.44,75.95,12.86-15.31,20.66-43.69,20.66-76.56,0,0-.05-2.43-.08-4.35,34.06-6.51,58.17-20.49,64.62-37.27Z"/>
  <path class="cls-13" d="m304.12,47.34c.23.62.43,1.26.6,1.9.93,3.69.74,7.3-.47,10.83,16,13.19,25.43,29.47,25.43,47.1,0,44.01-58.94,79.7-131.63,79.7s-131.63-35.68-131.63-79.7c0-17.62,9.44-33.91,25.42-47.1-1.19-3.53-1.38-7.14-.46-10.83.17-.65.44-1.35.76-2.03-21.83,15.55-35.07,35.94-35.07,58.27,0,48.75,63.11,88.26,140.97,88.26s140.97-39.51,140.97-88.26c0-22.28-13.18-42.62-34.9-58.14Z"/>
  <path class="cls-1" d="m217.64,79.61c-6.21.47-12.76.72-19.59.72s-13.37-.25-19.58-.72h-.02l-4.06,2.95c7.49.65,15.4,1.02,23.66,1.02s16.17-.37,23.67-1.02l-4.08-2.95h0Zm72.01-30.92c-4.95-16.36-45.74-28.37-91.59-28.37s-86.63,12.01-91.58,28.37c-4.3,14.19,19.15,27.32,56.14,32.53l-3.21-3.91h0c-29.92-5.09-47.71-15.95-43.61-27.5,4.97-14.02,41.09-24.17,82.26-24.17s77.29,10.15,82.26,24.17c4.1,11.55-13.68,22.4-43.61,27.5h0l-3.2,3.91c36.98-5.21,60.44-18.34,56.15-32.53Z"/>
  <path class="cls-12" d="m178.52,79.61c3.44-19.09,10.89-31.02,19.53-31.02s16.1,11.93,19.54,31.02h.07l4.02,2.92c-3.39-25.21-12.68-41.32-23.62-41.32s-20.23,16.11-23.62,41.32l4.02-2.92h.07Z"/>
  <path class="cls-14" d="m222.9,96.81l-3.29,5.94h0c0,.43.02.88.02,1.33,0,31.64-9.68,55.64-21.58,55.64s-21.57-23.99-21.57-55.64c0-.5,0-.99.02-1.47l-3.29-5.8c-.1,2.37-.14,4.78-.14,7.24,0,35.88,11.19,63.05,24.99,63.05s25-27.18,25-63.05c0-2.46-.06-4.87-.16-7.24Z"/>
  <path class="cls-8" d="m162.67,81.23c4.73-35.04,18.78-60.91,35.39-60.91-17.8,0-32.98,22.92-38.61,57.05l3.17,3.86h.05Z"/>
  <path class="cls-4" d="m233.45,81.23h.03l3.17-3.86c-5.62-34.13-20.8-57.05-38.6-57.05,16.61,0,30.67,25.87,35.39,60.91Z"/>
  <path class="cls-10" d="m238.86,100.18l-4.04-4.82h-.03c.23,3.83.36,7.72.36,11.67,0,47.89-16.61,86.71-37.09,86.71,22.97,0,40.94-36.01,40.94-86.71,0-2.32-.05-4.6-.13-6.86Z"/>
  <path class="cls-15" d="m160.97,107.03c0-3.95.13-7.85.35-11.67h-.03l-4.05,4.8c-.08,2.27-.13,4.55-.13,6.87,0,50.7,17.98,86.71,40.94,86.71-20.47,0-37.08-38.82-37.08-86.71Z"/>
  <path class="cls-9" d="m304.25,60.08c6.12,5.04,11.28,10.55,15.31,16.4-1.43-9.51-5.22-18.26-10.76-25.61-1.52-1.2-3.08-2.39-4.68-3.52.23.62.43,1.26.6,1.9.93,3.69.74,7.3-.47,10.83Z"/>
  <path class="cls-9" d="m91.85,60.08c-1.19-3.53-1.38-7.14-.46-10.83.17-.65.44-1.35.76-2.03-1.67,1.2-3.28,2.42-4.85,3.65-5.53,7.35-9.33,16.1-10.76,25.61,4.04-5.85,9.19-11.35,15.3-16.4Z"/>
  <path class="cls-11" d="m40.18,105.72C40.18,51.68,110.86,7.86,198.06,7.86s157.86,43.82,157.86,97.86-70.68,97.85-157.86,97.85S40.18,159.77,40.18,105.72Zm157.87,88.02c77.85,0,140.97-39.51,140.97-88.26S275.9,17.2,198.06,17.2,57.08,56.73,57.08,105.48s63.11,88.26,140.97,88.26Z"/>
  <path class="cls-7" d="m160.97,107.03c0-47.39,16.61-86.71,37.08-86.71s37.09,39.32,37.09,86.71-16.61,86.71-37.09,86.71-37.08-38.82-37.08-86.71Zm37.08,60.07c13.8,0,25-27.18,25-63.04s-11.2-62.86-25-62.86-24.99,25.64-24.99,62.86,11.19,63.04,24.99,63.04Z"/>
  <path class="cls-6" d="m91.39,49.25c4.07-16.11,53.28-39.56,106.66-39.56s100.9,16.75,106.66,39.56c6.45,25.56-40.97,48.69-106.66,48.69s-113.13-23.13-106.66-48.69Zm106.66-28.92c-45.84,0-86.63,12.01-91.58,28.37-5.54,18.32,35.17,34.9,91.58,34.9s97.13-16.58,91.59-34.9c-4.95-16.36-45.74-28.37-91.59-28.37Z"/>
  <path class="cls-16" d="m173.16,96.77l.03.02,3.39,5.97c6.89.59,14.06.93,21.48.93s14.64-.34,21.57-.94l3.3-5.96.02-.02c-7.93.75-16.24,1.17-24.89,1.17s-16.97-.42-24.89-1.17Zm132.11-41.99c-.85,18.28-28.94,34.47-70.46,40.57h.01s4.05,4.85,4.05,4.85c40.63-7.3,67.36-25.24,66.4-45.42Zm-214.44,0c-.96,20.2,25.77,38.12,66.39,45.42l4.06-4.84h0c-41.53-6.12-69.6-22.31-70.46-40.59Z"/>
  <g>
    <rect class="cls-3" width="400" height="299.17"/>
    <g>
      <polygon class="cls-2" points="4.32 223.7 10.8 223.7 20.69 241.35 30.11 223.7 35.79 223.7 22.35 248.12 18.42 248.12 4.32 223.7"/>
      <rect class="cls-2" x="43.01" y="223.7" width="5.67" height="24.42"/>
      <polygon class="cls-2" points="59.24 223.7 84.22 223.7 84.22 227.87 64.92 227.87 64.92 233.31 76.18 233.31 76.18 237.47 64.92 237.47 64.92 243.53 84.46 243.53 84.46 248.12 59.24 248.12 59.24 223.7"/>
      <polygon class="cls-2" points="105.84 248.12 100.16 248.12 100.16 228.05 88.95 228.05 88.95 223.7 117.1 223.7 117.1 228.05 105.84 228.05 105.84 248.12"/>
      <path class="cls-2" d="m123.52,223.7h3.88l17.18,14.38c1,.81,1.94,1.66,2.8,2.66-.15-2.04-.24-3.46-.24-4.22v-12.83h5.12v24.42h-3.88l-17.93-15.09c-.72-.62-1.37-1.24-2.03-1.99.19,1.89.23,3.17.23,3.88v13.2h-5.11v-24.42Z"/>
      <path class="cls-2" d="m181.15,238.37l-5.25-9.94-5.44,9.94h10.69Zm-7.81-14.67h5.49l14.01,24.42h-6.38l-2.94-5.35h-15.48l-2.83,5.35h-5.68l13.82-24.42Z"/>
      <path class="cls-2" d="m200.16,223.7h4.59l11.5,14.77,11.26-14.77h4.55v24.42h-5.26v-15.09c0-.47.05-1.33.19-2.6-.52,1.09-1,1.99-1.42,2.56l-9.18,12.2h-1.13l-9.18-12.25c-.56-.75-1.09-1.57-1.47-2.51.09.99.14,1.8.14,2.6v15.09h-4.59v-24.42Z"/>
      <path class="cls-2" d="m266.95,227.92v6.48h12.78c1.75,0,2.55-.33,2.55-1.94v-2.6c0-1.61-.8-1.94-2.55-1.94h-12.78Zm-5.58-4.22h20.91c3.74,0,5.5,1.32,5.5,4.73v5.44c0,3.41-1.76,4.73-5.5,4.73h-15.33v9.51h-5.58v-24.42Z"/>
      <path class="cls-2" d="m319.94,228.05h-18.74v15.48h18.74v-15.48Zm-18.37-4.35h17.98c4.59,0,6.06,1.18,6.06,5.78v12.86c0,4.6-1.47,5.78-6.06,5.78h-17.98c-4.58,0-6.05-1.18-6.05-5.78v-12.86c0-4.6,1.47-5.78,6.05-5.78"/>
      <path class="cls-2" d="m342.26,227.96v5.25h15.24c4.59,0,6.1,1.18,6.1,5.77v3.35c0,4.6-1.51,5.78-6.1,5.78h-15.1c-4.59,0-6.1-1.18-6.1-5.78v-.83h5.02v2.02h17.27v-5.58h-15.24c-4.59,0-6.06-1.18-6.06-5.77v-2.69c0-4.6,1.47-5.78,6.06-5.78h13.87c4.35,0,6.06,1.14,6.06,5.35v.58h-5.02v-1.68h-15.99Z"/>
      <polygon class="cls-2" points="386.26 248.12 380.58 248.12 380.58 228.05 369.36 228.05 369.36 223.7 397.52 223.7 397.52 228.05 386.26 228.05 386.26 248.12"/>
      <path class="cls-2" d="m169.91,140.32h114.4l14.25-15.83h-114.39c-5.15,5.72-10,11.11-14.26,15.83"/>
      <path class="cls-2" d="m191.29,116.57h114.38l14.25-15.84h-114.38c-4.74,5.27-9.55,10.62-14.25,15.84"/>
      <path class="cls-2" d="m212.66,92.83h114.37l14.25-15.83h-114.37c-4.34,4.83-9.19,10.21-14.25,15.83"/>
      <path class="cls-2" d="m357.44,51.59h-102.55s0,0,0,0c-3.49,0-6.66,1.61-8.77,4.06,0,0-4.75,5.28-12.1,13.44h114.37l11.29-12.54c.44-.5.72-1.17.72-1.89,0-1.58-1.37-3.05-2.95-3.05"/>
      <path class="cls-2" d="m138.92,171.16c0,1.25-1.02,2.28-2.28,2.28-.48,0-.93-.15-1.3-.41l-55.02-36.55c-.52-.42-.85-1.06-.85-1.78,0-1.26,1.02-2.28,2.28-2.28h54.9c1.26,0,2.28,1.02,2.28,2.28v36.46Zm23.16-22.93l.03-14.05c0-2.11-1.01-3.99-2.59-5.14l-54.65-36.29c-1.02-.7-2.24-1.11-3.58-1.11s-2.56.41-3.58,1.11l-54.76,36.35c-1.53,1.15-2.55,2.99-2.55,5.06s1.02,4.08,2.59,5.23l84.82,56.87c2.32,1.57,5.29,2.69,8.31,2.69h87.3c5.17-.05,10.03-2.28,13.32-5.78l40.44-44.95h-115.12Z"/>
    </g>
  </g>
</svg>